<svg width="286" height="52" viewBox="0 0 286 52" fill="none" xmlns="http://www.w3.org/2000/svg">
<path d="M21.41 17.3696H26.06L33.48 34.9096H28.3L27.03 31.7996H20.31L19.07 34.9096H13.99L21.41 17.3696ZM25.64 28.0496L23.7 23.0996L21.73 28.0496H25.64ZM41.15 17.4896H50.08C52.27 17.4896 53.81 18.0396 54.83 19.0596C55.53 19.7596 55.95 20.6796 55.95 21.8696V21.9196C55.95 23.9396 54.81 25.1296 53.26 25.7996C55.38 26.4996 56.72 27.6896 56.72 30.0596V30.1096C56.72 33.0996 54.28 34.9096 50.13 34.9096H41.15V17.4896ZM48.89 24.4296C50.36 24.4296 51.18 23.9296 51.18 22.9096V22.8596C51.18 21.9096 50.43 21.3696 48.99 21.3696H45.85V24.4296H48.89ZM49.59 31.0197C51.06 31.0197 51.9 30.4496 51.9 29.4296V29.3796C51.9 28.4296 51.15 27.8096 49.54 27.8096H45.86V31.0197H49.59ZM64.32 26.2496V26.1996C64.32 21.1996 68.35 17.1396 73.73 17.1396C79.11 17.1396 83.09 21.1497 83.09 26.1497V26.1996C83.09 31.1996 79.06 35.2596 73.68 35.2596C68.3 35.2596 64.32 31.2496 64.32 26.2496ZM78.16 26.2496V26.1996C78.16 23.6896 76.34 21.4996 73.68 21.4996C71.02 21.4996 69.28 23.6397 69.28 26.1497V26.1996C69.28 28.7096 71.1 30.8997 73.73 30.8997C76.36 30.8997 78.16 28.7596 78.16 26.2496ZM91.34 27.2697V17.4896H96.24V27.1696C96.24 29.6796 97.51 30.8796 99.45 30.8796C101.39 30.8796 102.66 29.7296 102.66 27.2996V17.4896H107.56V27.1497C107.56 32.7697 104.35 35.2396 99.4 35.2396C94.45 35.2396 91.34 32.7297 91.34 27.2797V27.2697ZM120.66 21.7196H115.43V17.4896H130.71V21.7196H125.48V34.9096H120.65V21.7196H120.66Z" fill="#2C586E"/>
<path d="M257.31 13.1104C254.08 17.7104 250.89 22.2603 247.66 26.8503C247.63 26.8103 247.6 26.7703 247.56 26.7303C247.53 26.7703 247.5 26.8103 247.46 26.8503C244.24 22.2603 241.05 17.7104 237.81 13.1104H240.47C240.67 13.1104 240.75 13.2604 240.82 13.3704C241.43 14.3504 242.15 15.2804 242.81 16.2404C243.52 17.2804 244.3 18.2804 245 19.3204C245.47 20.0204 245.98 20.7004 246.46 21.4004C246.82 21.9304 247.19 22.4604 247.55 22.9904C247.91 22.4604 248.28 21.9304 248.64 21.4004C249.12 20.7004 249.63 20.0204 250.1 19.3204C250.8 18.2804 251.58 17.2704 252.29 16.2404C252.95 15.2804 253.67 14.3504 254.28 13.3704C254.35 13.2604 254.43 13.1104 254.63 13.1104H257.29H257.31Z" fill="#DD9F52"/>
<path d="M253.5 13.1104C251.53 15.9104 249.59 18.6803 247.63 21.4703C247.61 21.4503 247.59 21.4204 247.57 21.4004C247.55 21.4204 247.53 21.4503 247.51 21.4703C245.55 18.6803 243.61 15.9104 241.64 13.1104H243.26C243.38 13.1104 243.43 13.2004 243.47 13.2704C243.84 13.8704 244.28 14.4304 244.68 15.0204C245.11 15.6504 245.59 16.2604 246.01 16.9004C246.3 17.3304 246.61 17.7403 246.9 18.1603C247.12 18.4803 247.34 18.8004 247.57 19.1304C247.79 18.8104 248.01 18.4903 248.24 18.1603C248.53 17.7403 248.84 17.3204 249.13 16.9004C249.56 16.2704 250.03 15.6504 250.46 15.0204C250.86 14.4404 251.3 13.8704 251.67 13.2704C251.71 13.2004 251.76 13.1104 251.88 13.1104H253.5Z" fill="#DCC894"/>
<path d="M250.73 13.1104C249.68 14.6104 248.64 16.0804 247.6 17.5804C247.59 17.5704 247.58 17.5503 247.57 17.5403C247.56 17.5503 247.55 17.5704 247.54 17.5804C246.49 16.0904 245.46 14.6104 244.41 13.1104H245.27C245.33 13.1104 245.36 13.1604 245.38 13.1904C245.58 13.5104 245.81 13.8104 246.03 14.1204C246.26 14.4604 246.51 14.7804 246.74 15.1204C246.89 15.3504 247.06 15.5703 247.21 15.7903C247.33 15.9603 247.45 16.1304 247.57 16.3104C247.69 16.1404 247.81 15.9703 247.93 15.7903C248.09 15.5603 248.25 15.3404 248.4 15.1204C248.63 14.7804 248.88 14.4504 249.11 14.1204C249.32 13.8104 249.56 13.5104 249.76 13.1904C249.78 13.1504 249.81 13.1104 249.87 13.1104H250.73Z" fill="#DCC894"/>
<path d="M237.82 36.7302C241.05 32.1302 244.24 27.5802 247.47 22.9902C247.5 23.0302 247.53 23.0702 247.57 23.1102C247.6 23.0702 247.63 23.0302 247.67 22.9902C250.89 27.5802 254.08 32.1302 257.32 36.7302H254.66C254.46 36.7302 254.38 36.5802 254.31 36.4702C253.7 35.4902 252.98 34.5602 252.32 33.6002C251.61 32.5602 250.83 31.5603 250.13 30.5203C249.66 29.8203 249.15 29.1402 248.67 28.4402C248.31 27.9102 247.94 27.3802 247.58 26.8502C247.22 27.3802 246.85 27.9102 246.49 28.4402C246.01 29.1402 245.5 29.8203 245.03 30.5203C244.33 31.5603 243.55 32.5702 242.84 33.6002C242.18 34.5602 241.46 35.4902 240.85 36.4702C240.78 36.5802 240.7 36.7302 240.5 36.7302H237.84H237.82Z" fill="#DD9F52"/>
<path d="M241.63 36.7399C243.6 33.9399 245.54 31.1699 247.5 28.3799C247.52 28.3999 247.54 28.4299 247.56 28.4499C247.58 28.4299 247.6 28.3999 247.62 28.3799C249.58 31.1699 251.52 33.9399 253.49 36.7399H251.87C251.75 36.7399 251.7 36.6499 251.66 36.5799C251.29 35.9799 250.85 35.4199 250.45 34.8299C250.02 34.1999 249.54 33.5899 249.12 32.9499C248.83 32.5199 248.52 32.1099 248.23 31.6899C248.01 31.3699 247.79 31.0498 247.56 30.7198C247.34 31.0398 247.12 31.3599 246.89 31.6899C246.6 32.1099 246.29 32.5299 246 32.9499C245.57 33.5799 245.1 34.1999 244.67 34.8299C244.27 35.4099 243.83 35.9799 243.46 36.5799C243.42 36.6499 243.37 36.7399 243.25 36.7399H241.63Z" fill="#DCC894"/>
<path d="M244.4 36.7395C245.45 35.2395 246.49 33.7695 247.53 32.2695C247.54 32.2795 247.55 32.2995 247.56 32.3095C247.57 32.2995 247.58 32.2795 247.59 32.2695C248.64 33.7595 249.67 35.2395 250.72 36.7395H249.86C249.8 36.7395 249.77 36.6895 249.75 36.6595C249.55 36.3395 249.32 36.0395 249.1 35.7295C248.87 35.3895 248.62 35.0695 248.39 34.7295C248.24 34.4995 248.07 34.2795 247.92 34.0595C247.8 33.8895 247.68 33.7195 247.56 33.5395C247.44 33.7095 247.32 33.8795 247.2 34.0595C247.04 34.2895 246.88 34.5095 246.73 34.7295C246.5 35.0695 246.25 35.3995 246.02 35.7295C245.81 36.0395 245.57 36.3395 245.37 36.6595C245.35 36.6995 245.32 36.7395 245.26 36.7395H244.4Z" fill="#DCC894"/>
<path d="M163.95 36.7404C162.27 36.7404 160.75 36.7004 159.4 36.6204C158.05 36.5404 156.83 36.3304 155.74 36.0004C154.65 35.6704 153.64 35.1603 152.7 34.4703C150.5 32.6803 149.4 29.9804 149.4 26.3604V23.4904C149.4 20.9304 149.9 18.9004 150.9 17.3804C151.9 15.8604 153.33 14.7704 155.2 14.1104C157.07 13.4404 159.32 13.1104 161.93 13.1104H163.96C166.58 13.1104 168.82 13.4404 170.69 14.1104C172.56 14.7804 174 15.8704 175.01 17.3804C176.02 18.9004 176.52 20.9304 176.52 23.4904V26.3604C176.52 28.9204 176.02 30.9503 175.01 32.4703C174 33.9903 172.56 35.0804 170.69 35.7404C168.82 36.4004 166.57 36.7404 163.96 36.7404H163.95ZM163.95 34.2804C167.55 34.2804 170.12 33.7004 171.68 32.5504C173.24 31.4004 174.02 29.3304 174.02 26.3604V23.4904C174.02 20.5204 173.24 18.4604 171.68 17.3004C170.12 16.1504 167.54 15.5704 163.95 15.5704C161.5 15.5704 159.52 15.6704 158.01 15.8804C156.5 16.0904 155.23 16.5804 154.19 17.3404C153.42 17.9204 152.84 18.7003 152.44 19.6603C152.04 20.6303 151.85 21.9003 151.85 23.4803V26.3503C151.85 29.3203 152.63 31.3903 154.2 32.5403C155.77 33.6903 158.34 34.2704 161.92 34.2704H163.95V34.2804ZM205.51 35.8704H202.7L200.92 32.3204C200.5 31.4304 200.05 30.6303 199.55 29.9203C199.05 29.2104 198.39 28.6504 197.57 28.2404C196.75 27.8204 195.62 27.6204 194.19 27.6204H183.53V35.8804H181.07V13.1204H194.19C196.91 13.1204 199.07 13.4204 200.66 14.0204C202.25 14.6204 203.39 15.4304 204.07 16.4404C204.76 17.4504 205.1 18.5403 205.1 19.7303V21.0104C205.1 22.4404 204.67 23.7104 203.82 24.8004C202.97 25.8904 201.77 26.6103 200.24 26.9703C201.05 27.4703 202.02 28.8804 203.14 31.2104L205.51 35.8904V35.8704ZM194.19 25.1504C196.46 25.1504 198.2 24.9704 199.41 24.6204C200.63 24.2704 201.46 23.7803 201.92 23.1603C202.38 22.5403 202.61 21.8204 202.61 21.0104V19.7303C202.61 18.9203 202.38 18.2004 201.92 17.5804C201.46 16.9604 200.63 16.4704 199.41 16.1104C198.19 15.7604 196.45 15.5804 194.19 15.5804H183.53V25.1504H194.19ZM222.66 35.8704H220.17V25.7704L207.64 13.1104H211.13L221.42 23.4904L231.71 13.1104H235.2L222.67 25.7704V35.8704H222.66Z" fill="#DD9F52"/>
<path d="M155.3 24.57C155.29 25.05 155.32 25.54 155.3 26.02C155.29 26.34 155.3 26.67 155.3 26.99V27.25C154.78 27.55 154.26 27.84 153.74 28.14C153.76 26.26 153.77 24.39 153.79 22.5C154.3 22.71 154.78 22.9 155.25 23.09C155.36 23.13 155.34 23.2 155.34 23.25C155.29 23.69 155.33 24.14 155.32 24.59L155.3 24.57ZM170.63 24.57C170.64 25.05 170.61 25.54 170.63 26.02C170.64 26.34 170.63 26.67 170.63 26.99V27.25C171.15 27.55 171.67 27.84 172.19 28.14C172.17 26.26 172.16 24.39 172.14 22.5C171.63 22.71 171.15 22.9 170.68 23.09C170.57 23.13 170.59 23.2 170.59 23.25C170.64 23.69 170.6 24.14 170.61 24.59L170.63 24.57ZM165.44 27.16V26.34C165.46 25.7 165.43 25.06 165.44 24.42V23H164C164 24.39 163.98 25.77 163.98 27.16H165.43H165.44ZM161.86 27.16V26.34C161.88 25.7 161.85 25.06 161.86 24.42V23H160.42C160.42 24.39 160.4 25.77 160.4 27.16H161.85H161.86ZM158.28 27.16V26.34C158.3 25.7 158.27 25.06 158.28 24.42V23H156.84C156.84 24.39 156.82 25.77 156.82 27.16H158.27H158.28ZM169.09 27.16V26.34C169.11 25.7 169.08 25.06 169.09 24.42V23H167.65C167.65 24.39 167.63 25.77 167.63 27.16H169.08H169.09Z" fill="#DCC894"/>
</svg>
