<svg width="11" height="12" viewBox="0 0 11 12" fill="none" xmlns="http://www.w3.org/2000/svg">
<path d="M5.69006 0.849733C2.69006 0.829733 0.310059 3.22958 0.310059 6.18958C0.310059 9.17958 2.70005 11.5297 5.61005 11.5497C8.60005 11.5697 11.0001 9.1796 11.0101 6.2096C11.0101 3.2696 8.66006 0.869733 5.69006 0.849733ZM9.38007 7.13953C8.96007 8.58953 8.03006 9.53952 6.56006 9.87952C5.15006 10.2095 3.92007 9.79965 2.92007 8.75965C2.36007 8.16965 2.04006 7.44953 1.94006 6.63953C1.73006 4.84953 2.82005 3.14973 4.55005 2.59973C6.63005 1.93973 8.80006 3.14961 9.37006 5.21961C9.40006 5.31961 9.39007 5.32971 9.29007 5.32971H7.68005C7.60005 5.32971 7.56005 5.29963 7.52005 5.23963C7.18005 4.62963 6.66006 4.26957 5.97006 4.17957C4.90006 4.02957 3.87007 4.79974 3.70007 5.85974C3.52007 6.96974 4.22007 7.99962 5.32007 8.22962C6.21007 8.41962 7.13005 7.96953 7.55005 7.13953C7.59005 7.05953 7.64007 7.02966 7.73007 7.02966H9.29007C9.42007 7.02966 9.43008 7.02955 9.39008 7.15955L9.38007 7.13953Z" fill="#2C586E"/>
</svg>
