<svg width="34" height="41" viewBox="0 0 34 41" fill="none" xmlns="http://www.w3.org/2000/svg">
<path d="M19.9737 37.7914C18.4837 37.6614 16.7437 37.5013 15.0037 37.3513C13.9237 37.2613 12.8437 37.1713 11.7637 37.0913C11.1337 37.0413 10.5437 37.2013 10.0237 37.5613C9.74371 37.7513 9.7037 37.9114 9.9537 38.1714C10.4537 38.6914 10.4437 38.8713 9.94369 39.3813C9.48369 39.8413 9.0337 40.3013 8.5737 40.7513C8.31369 41.0113 8.02372 41.1113 7.72372 40.8113C7.44372 40.5213 7.57374 40.2413 7.80374 40.0013C8.10374 39.6813 8.40373 39.3713 8.73373 39.0713C8.97373 38.8613 8.96373 38.7013 8.73373 38.4813C7.78373 37.5413 6.8437 36.5813 5.8937 35.6213C4.8337 34.5513 3.7637 33.5013 2.7037 32.4313C2.2537 31.9713 2.2637 31.9614 1.8237 32.4014C1.5437 32.6714 1.27368 32.9513 0.993678 33.2213C0.733678 33.4613 0.453732 33.5314 0.173732 33.2714C-0.116268 32.9914 -0.0062708 32.7113 0.233729 32.4613C0.743729 31.9413 1.25372 31.4214 1.78372 30.9214C2.14372 30.5814 2.39371 30.5813 2.77371 31.0013C3.10371 31.3613 3.30368 31.3113 3.62368 30.9813C4.57368 29.9913 5.59371 29.0513 6.52371 28.0513C7.80371 26.6813 9.33368 26.2313 11.1837 26.5013C14.6437 26.9913 18.1037 27.4113 21.5737 27.8513C22.8937 28.0213 23.8437 28.7814 24.0937 29.9214C24.4837 31.6714 23.0337 33.2813 21.2337 33.1213C19.2737 32.9513 17.3037 32.8114 15.3337 32.6514C15.2237 32.6514 15.1037 32.6413 14.9937 32.6113C14.6937 32.5313 14.5137 32.3313 14.5437 32.0113C14.5737 31.7113 14.7937 31.5513 15.0837 31.5613C15.7137 31.5813 16.3437 31.6313 16.9737 31.6813C18.4037 31.7913 19.8437 31.9314 21.2737 32.0214C22.2837 32.0914 23.0037 31.5013 23.0637 30.5913C23.1237 29.7313 22.4937 29.0813 21.5037 28.9513C17.8437 28.4813 14.1937 28.0014 10.5337 27.5314C9.42372 27.3914 8.44369 27.6813 7.63369 28.4713C6.48369 29.5913 5.36372 30.7413 4.22372 31.8613C3.99372 32.0813 3.99372 32.2313 4.22372 32.4613C5.68372 33.9113 7.13371 35.3613 8.5837 36.8213C8.7837 37.0213 8.93371 37.0513 9.15371 36.8713C9.98371 36.2013 10.9437 35.9213 12.0037 36.0113L18.1837 36.5513C18.8937 36.6113 19.6037 36.6713 20.3137 36.7113C21.2437 36.7613 22.0337 36.4214 22.6837 35.7714C25.3537 33.1114 28.0237 30.4414 30.6837 27.7714C31.3637 27.0914 31.4037 26.1613 30.7937 25.5613C30.1737 24.9413 29.2637 24.9813 28.5537 25.6813C27.7237 26.5013 26.9037 27.3314 26.0837 28.1514C25.9837 28.2514 25.8837 28.3613 25.7637 28.4513C25.5137 28.6313 25.2437 28.6414 25.0237 28.4014C24.8137 28.1714 24.8237 27.9113 25.0237 27.7013C26.0837 26.6313 27.1137 25.5214 28.2437 24.5414C29.2337 23.6814 30.7437 23.9014 31.6537 24.9114C32.5337 25.8814 32.5337 27.3713 31.6037 28.3513C30.8037 29.1913 29.9637 30.0013 29.1337 30.8313C27.2537 32.7113 25.3737 34.5813 23.5037 36.4613C22.5837 37.3813 21.4937 37.8513 19.9437 37.8113L19.9737 37.7914Z" fill="white"/>
<path d="M10.7337 16.4809V12.8409C10.7337 12.0009 11.0937 11.3809 11.8037 10.9609C13.8637 9.77091 15.9236 8.59096 17.9736 7.39096C18.8136 6.90096 19.6136 6.93098 20.4436 7.41098C22.4336 8.58098 24.4436 9.73095 26.4536 10.881C27.2736 11.351 27.6837 12.0409 27.6737 12.9909V20.031C27.6737 20.911 27.3036 21.591 26.5336 22.031C24.4436 23.241 22.3636 24.441 20.2736 25.641C19.5536 26.061 18.8137 26.051 18.1037 25.641C16.0137 24.441 13.9236 23.241 11.8436 22.021C11.0836 21.581 10.7036 20.921 10.7236 20.021C10.7536 18.841 10.7236 17.6609 10.7236 16.4809H10.7337ZM11.6436 16.4509V20.041C11.6436 20.601 11.8536 21.001 12.3436 21.271C12.7136 21.471 13.0736 21.691 13.4336 21.901C14.1336 22.301 14.1736 22.301 14.1236 21.521C13.9936 19.431 15.7936 18.0209 17.3436 17.8209C17.6436 17.7809 17.8636 17.841 18.0936 18.031C18.7736 18.611 19.5636 18.601 20.2436 18.031C20.4236 17.881 20.5937 17.751 20.8537 17.791C21.8837 17.931 22.7736 18.361 23.4536 19.161C24.1036 19.921 24.3136 20.811 24.2536 21.781C24.2336 22.211 24.3636 22.251 24.7036 22.031C25.1236 21.761 25.5636 21.521 26.0036 21.281C26.5036 21.001 26.7536 20.591 26.7536 20.011V12.921C26.7536 12.371 26.5237 11.9609 26.0437 11.6809C24.0137 10.5109 21.9736 9.34099 19.9436 8.17099C19.4136 7.86099 18.9036 7.87099 18.3836 8.17099C16.3636 9.34099 14.3536 10.511 12.3336 11.671C11.8536 11.951 11.6136 12.331 11.6236 12.891C11.6436 14.071 11.6236 15.2509 11.6236 16.4309L11.6436 16.4509ZM15.0537 21.791C15.0537 21.921 15.0737 22.0509 15.0537 22.1809C14.9737 22.6709 15.1837 22.951 15.6137 23.171C16.5437 23.661 17.4436 24.2009 18.3436 24.7409C18.9136 25.0809 19.4436 25.1009 20.0236 24.7409C20.7536 24.2909 21.5036 23.8909 22.2436 23.4609C23.0036 23.0209 23.377 22.3643 23.3637 21.4909C23.3437 20.1709 22.6237 19.2309 21.3637 18.8309C21.0737 18.7409 20.8436 18.7709 20.5936 18.9409C19.6836 19.5509 18.7436 19.5509 17.8236 18.9609C17.5136 18.7609 17.2437 18.7509 16.9137 18.8609C15.6137 19.3209 15.0537 20.1909 15.0537 21.8009V21.791ZM19.6336 2.92099V5.2009C19.6336 5.5209 19.5636 5.82089 19.1836 5.82089C18.8036 5.82089 18.7236 5.5109 18.7236 5.2009V0.590913C18.7236 0.280913 18.8236 -0.0190527 19.2036 0.000947283C19.5536 0.0209473 19.6236 0.290923 19.6236 0.600923V2.93088L19.6336 2.92099ZM13.4536 6.85092C13.4536 7.07092 13.3837 7.20087 13.2337 7.30087C13.0837 7.40087 12.9136 7.39098 12.7836 7.28098C12.6836 7.20098 12.5936 7.10094 12.5336 6.99094C11.8236 5.80094 11.1137 4.61098 10.4137 3.41098C10.3137 3.24098 10.2236 3.07093 10.3336 2.86093C10.4136 2.70093 10.5336 2.61093 10.7136 2.61093C10.9536 2.61093 11.0836 2.7709 11.2036 2.9509C11.9136 4.1409 12.6236 5.33098 13.3236 6.53098C13.3836 6.64098 13.4336 6.76091 13.4636 6.84091L13.4536 6.85092ZM28.0936 3.12094C28.0536 3.20094 28.0136 3.34091 27.9336 3.46091C27.2436 4.63091 26.5537 5.80091 25.8537 6.96091C25.7437 7.14091 25.6336 7.33092 25.3936 7.35092C25.0336 7.39092 24.8136 7.01095 25.0236 6.63095C25.3536 6.02095 25.7136 5.4309 26.0736 4.8309C26.4636 4.1809 26.8436 3.52095 27.2436 2.88095C27.3736 2.67095 27.5636 2.55097 27.8136 2.65097C27.9936 2.72097 28.0936 2.87095 28.0936 3.13095V3.12094ZM9.00362 11.2209C8.98362 11.5609 8.63364 11.731 8.27364 11.541C7.74364 11.261 7.23364 10.961 6.71364 10.661C6.13364 10.331 5.56361 10.001 4.99361 9.67099C4.71361 9.51099 4.51363 9.30091 4.70363 8.96091C4.89363 8.65091 5.16366 8.73095 5.42366 8.88095L8.66365 10.7409C8.85365 10.8509 9.00362 10.9909 9.00362 11.2309V11.2209ZM33.7536 9.16098C33.7536 9.36098 33.6437 9.50091 33.4837 9.59091C32.3537 10.2509 31.2136 10.9009 30.0736 11.5509C29.8336 11.6909 29.5936 11.661 29.4436 11.411C29.2936 11.161 29.3936 10.921 29.6236 10.781C30.7636 10.111 31.9136 9.44087 33.0736 8.80087C33.3936 8.62087 33.7436 8.84098 33.7536 9.16098Z" fill="white"/>
<path d="M16.4636 14.4212C16.4836 13.2612 16.8536 12.3011 17.9236 11.7511C18.8936 11.2511 19.8736 11.3311 20.7736 11.9311C21.6236 12.4911 21.9236 13.3711 21.9236 14.3211C21.9236 15.4711 21.6036 16.5211 20.7136 17.3311C19.7936 18.1711 18.5736 18.1811 17.6536 17.3311C16.8136 16.5411 16.4836 15.5412 16.4636 14.4212ZM17.3836 14.7211C17.3836 15.1911 17.5936 15.9511 18.1636 16.5511C18.8236 17.2411 19.6936 17.2011 20.3036 16.4611C20.8137 15.8411 21.0036 15.1111 20.9936 14.3411C20.9936 13.5211 20.7236 12.8011 19.8736 12.4711C18.5436 11.9511 17.3836 12.8311 17.3736 14.7111L17.3836 14.7211Z" fill="white"/>
</svg>
