<svg width="206" height="170" viewBox="0 0 206 170" fill="none" xmlns="http://www.w3.org/2000/svg">
<g opacity="0.31">
<path d="M0 145.958C2.46 144.578 4.9 143.168 7.38 141.818C14.29 138.078 21.06 134.088 27.83 130.098C40.22 122.788 52.3801 115.108 64.3 107.058C73.93 100.548 83.39 93.7979 92.66 86.7579C99.98 81.2079 107.14 75.468 114.23 69.628C117.84 66.658 121.28 63.4778 124.81 60.4078C131.85 54.2878 138.58 47.8378 145.14 41.2078C150.43 35.8578 155.52 30.318 160.43 24.628C161.1 23.848 161.71 22.9979 162.44 22.2879C163.15 21.5979 163.07 21.0979 162.36 20.4979C159.76 18.3179 157.18 16.1178 154.6 13.9178C153.59 13.0578 152.57 12.1879 151.57 11.3279C151.35 11.1379 150.98 10.948 151.06 10.638C151.15 10.288 151.59 10.2478 151.91 10.1778C155.44 9.48779 158.98 8.81799 162.51 8.12799C167.3 7.19799 172.09 6.24794 176.89 5.32794C182.03 4.34794 187.17 3.39778 192.31 2.41778C196.35 1.64778 200.39 0.86795 204.42 0.0879503C205.69 -0.16205 205.94 0.0779797 205.76 1.36798C205.08 6.24798 204.69 11.1579 204.22 16.0579C203.77 20.7079 203.23 25.3479 202.76 29.9879C202.27 34.8479 201.81 39.7079 201.32 44.5579C201.08 46.9879 200.63 49.398 200.54 51.838C200.51 52.678 200.16 52.518 199.68 52.118C197.38 50.188 195.07 48.268 192.76 46.348C191.67 45.438 190.55 44.568 189.52 43.608C188.79 42.938 188.37 43.1779 187.77 43.7879C185.27 46.3479 182.73 48.858 180.2 51.388C173.91 57.678 167.23 63.5378 160.38 69.2078C154.06 74.4378 147.53 79.3878 140.85 84.1578C130.56 91.4978 119.9 98.2578 108.91 104.478C99.48 109.818 89.84 114.738 80.01 119.298C71.12 123.418 62.1 127.198 52.95 130.688C49.02 132.188 45.01 133.458 41.07 134.928C35.84 136.888 30.48 138.448 25.15 140.058C18.62 142.028 12.03 143.768 5.36005 145.218C3.61005 145.598 1.86005 145.958 0.110046 146.338C0.0800464 146.218 0.0400098 146.098 0.0100098 145.968L0 145.958Z" fill="url(#paint0_linear_44_571)"/>
<path d="M188.91 109.738V167.118C188.91 169.668 188.95 169.238 186.73 169.238C179.49 169.258 172.26 169.218 165.02 169.268C163.84 169.268 163.5 168.938 163.5 167.758C163.53 136.528 163.53 105.298 163.5 74.0679C163.5 73.1079 163.81 72.5077 164.57 71.9077C167.81 69.3577 170.92 66.6677 174.01 63.9277C178.75 59.7377 183.2 55.2477 187.8 50.9177C188.04 50.6977 188.26 50.2477 188.61 50.4077C189.03 50.5877 188.88 51.0878 188.88 51.4578C188.89 54.1678 188.88 56.8879 188.88 59.5979V109.738H188.91Z" fill="url(#paint1_linear_44_571)"/>
<path d="M150.91 126.288V167.388C150.91 168.628 150.31 169.248 149.11 169.248C141.83 169.248 134.55 169.228 127.27 169.268C126.1 169.268 125.74 168.958 125.74 167.758C125.77 145.618 125.77 123.478 125.74 101.328C125.74 100.458 126.01 99.938 126.76 99.458C133.36 95.268 139.87 90.9382 146.23 86.3882C147.42 85.5382 148.57 84.6381 149.75 83.7781C150.01 83.5781 150.27 83.248 150.65 83.458C150.96 83.628 150.88 83.9881 150.89 84.2781C150.91 84.6681 150.89 85.058 150.89 85.438V126.278L150.91 126.288Z" fill="url(#paint2_linear_44_571)"/>
<path d="M113.24 138.578C113.24 148.268 113.21 157.948 113.27 167.638C113.27 168.958 112.91 169.288 111.62 169.278C104.22 169.218 96.8099 169.218 89.4099 169.278C88.1199 169.288 87.8398 168.848 87.8398 167.648C87.8698 152.538 87.8698 137.428 87.8398 122.318C87.8398 121.328 88.1399 120.828 89.0599 120.368C94.5599 117.628 100.02 114.828 105.46 111.988C107.55 110.898 109.56 109.658 111.62 108.518C112.05 108.278 112.56 107.818 113.03 108.068C113.47 108.298 113.23 108.928 113.23 109.378C113.24 119.108 113.23 128.838 113.23 138.568L113.24 138.578Z" fill="url(#paint3_linear_44_571)"/>
<path d="M75.2401 147.987C75.2401 154.617 75.22 161.247 75.26 167.877C75.26 168.937 74.98 169.277 73.89 169.267C66.4 169.227 58.91 169.227 51.42 169.267C50.35 169.267 50.03 168.957 50.04 167.887C50.08 158.117 50.09 148.337 50.02 138.567C50.02 137.297 50.48 136.707 51.57 136.327C56.55 134.587 61.46 132.617 66.34 130.627C68.88 129.587 71.39 128.477 73.92 127.397C75.23 126.837 75.2301 126.837 75.2401 128.227V147.987Z" fill="url(#paint4_linear_44_571)"/>
<path d="M37.2401 155.478C37.2401 159.658 37.22 163.828 37.26 168.008C37.26 168.958 36.98 169.268 36.02 169.268C28.44 169.238 20.87 169.238 13.29 169.268C12.32 169.268 12.04 168.968 12.04 168.018C12.07 161.988 12.07 155.968 12.04 149.938C12.04 149.178 12.26 148.758 13.03 148.558C20.75 146.548 28.39 144.278 36 141.918C37.01 141.608 37.26 141.788 37.25 142.828C37.21 147.048 37.23 151.268 37.23 155.488L37.2401 155.478Z" fill="url(#paint5_linear_44_571)"/>
</g>
<defs>
<linearGradient id="paint0_linear_44_571" x1="0" y1="73.158" x2="205.8" y2="73.158" gradientUnits="userSpaceOnUse">
<stop stop-color="#2C586E"/>
<stop offset="0.4" stop-color="#58798B"/>
<stop offset="0.79" stop-color="#7E96A5"/>
<stop offset="1" stop-color="#8DA1AF"/>
</linearGradient>
<linearGradient id="paint1_linear_44_571" x1="163.5" y1="109.828" x2="188.92" y2="109.828" gradientUnits="userSpaceOnUse">
<stop stop-color="#2C586E"/>
<stop offset="0.4" stop-color="#58798B"/>
<stop offset="0.79" stop-color="#7E96A5"/>
<stop offset="1" stop-color="#8DA1AF"/>
</linearGradient>
<linearGradient id="paint2_linear_44_571" x1="125.74" y1="126.338" x2="150.91" y2="126.338" gradientUnits="userSpaceOnUse">
<stop stop-color="#2C586E"/>
<stop offset="0.4" stop-color="#58798B"/>
<stop offset="0.79" stop-color="#7E96A5"/>
<stop offset="1" stop-color="#8DA1AF"/>
</linearGradient>
<linearGradient id="paint3_linear_44_571" x1="87.8398" y1="138.638" x2="113.29" y2="138.638" gradientUnits="userSpaceOnUse">
<stop stop-color="#2C586E"/>
<stop offset="0.4" stop-color="#58798B"/>
<stop offset="0.79" stop-color="#7E96A5"/>
<stop offset="1" stop-color="#8DA1AF"/>
</linearGradient>
<linearGradient id="paint4_linear_44_571" x1="50.02" y1="148.157" x2="75.26" y2="148.157" gradientUnits="userSpaceOnUse">
<stop stop-color="#2C586E"/>
<stop offset="0.4" stop-color="#58798B"/>
<stop offset="0.79" stop-color="#7E96A5"/>
<stop offset="1" stop-color="#8DA1AF"/>
</linearGradient>
<linearGradient id="paint5_linear_44_571" x1="12.04" y1="155.518" x2="37.26" y2="155.518" gradientUnits="userSpaceOnUse">
<stop stop-color="#2C586E"/>
<stop offset="0.4" stop-color="#58798B"/>
<stop offset="0.79" stop-color="#7E96A5"/>
<stop offset="1" stop-color="#8DA1AF"/>
</linearGradient>
</defs>
</svg>
