<svg width="31" height="42" viewBox="0 0 31 42" fill="none" xmlns="http://www.w3.org/2000/svg">
<path d="M20.4364 17.5989C20.1964 17.9789 20.2764 18.3089 20.2764 18.6189V36.929C20.2764 37.349 20.2864 37.779 20.1564 38.189C19.9964 38.669 19.6664 38.9489 19.1564 38.9589C18.6464 38.9589 18.2864 38.6989 18.1564 38.2089C18.0764 37.9089 18.0464 37.5789 18.0464 37.2689V13.1489C18.0464 12.8989 17.9164 12.539 18.2164 12.439C18.4964 12.339 18.6564 12.6789 18.8364 12.8589C20.5064 14.5289 22.1264 16.2489 23.8864 17.8289C25.1064 18.9289 26.6764 18.9389 27.7464 17.8489C28.8064 16.7889 28.8064 15.1189 27.6664 13.9789C23.9664 10.2589 20.2364 6.54888 16.5064 2.84888C15.5964 1.93888 15.0064 1.96892 14.0664 2.88892C12.3264 4.59892 10.6064 6.33896 8.88643 8.05896C6.95643 9.98896 5.02639 11.9289 3.0964 13.8589C1.88639 15.0789 1.82642 16.6889 2.93642 17.8389C4.03642 18.9789 5.64638 18.9389 6.89638 17.7089C8.55638 16.0689 10.2064 14.4089 11.8564 12.7689C12.0164 12.6089 12.1364 12.299 12.4164 12.439C12.6464 12.559 12.6164 12.8589 12.6164 13.0889C12.6164 15.3989 12.6364 17.7089 12.6164 20.0189C12.6164 20.9089 12.2164 21.3188 11.5464 21.3188C10.8264 21.3188 10.4364 20.8789 10.3964 19.9989C10.3764 19.4189 10.3764 18.8289 10.3564 18.2489C10.3564 18.0589 10.5064 17.7689 10.2264 17.6989C10.0064 17.6389 9.8764 17.8889 9.7264 18.0389C9.1364 18.6089 8.58638 19.2389 7.95638 19.7489C5.83638 21.4389 2.9764 21.1789 1.1664 19.1589C-0.483598 17.3189 -0.373578 14.259 1.43642 12.439C5.22642 8.64897 9.02644 4.86887 12.8264 1.08887C14.2664 -0.341131 16.3764 -0.371048 17.8164 1.04895C21.6964 4.89895 25.5564 8.76892 29.4064 12.6389C31.2164 14.4589 30.9464 17.5489 29.6564 18.9889C27.6564 21.2089 24.8464 21.4789 22.7064 19.7089C21.9364 19.0689 21.2264 18.3489 20.4364 17.6189V17.5989Z" fill="white"/>
<path d="M4.61642 22.6886C7.05642 22.7086 8.99643 24.6685 8.99643 27.0985C8.99643 29.5085 6.98644 31.4986 4.57644 31.4886C2.17644 31.4786 0.176438 29.4586 0.196438 27.0586C0.216438 24.6286 2.19642 22.6686 4.61642 22.6886ZM2.35641 27.0985C2.36641 28.3385 3.4764 29.3885 4.7164 29.3285C5.7564 29.2785 6.83639 28.1485 6.83639 27.0985C6.83639 25.9485 5.7364 24.8385 4.5964 24.8385C3.4564 24.8385 2.3364 25.9685 2.3464 27.0985H2.35641ZM11.8164 32.8586C14.2864 32.8586 16.1864 34.7686 16.1764 37.2586C16.1764 39.7586 14.3564 41.5586 11.8364 41.5586C9.29639 41.5586 7.41644 39.7286 7.38644 37.2386C7.35644 34.8486 9.36642 32.8586 11.8064 32.8586H11.8164ZM11.7764 39.4186C13.0264 39.4186 14.0464 38.4386 14.0364 37.2386C14.0264 36.0086 13.0364 34.9986 11.8264 34.9986C10.6564 34.9986 9.62643 35.9986 9.62643 37.1586C9.62643 38.4486 10.5364 39.4086 11.7864 39.4186H11.7764ZM1.35641 37.9086C1.35641 37.5086 1.56639 37.2086 1.83639 36.9386C4.82639 33.9686 7.81641 30.9986 10.7964 28.0186C11.5464 27.2686 12.2764 26.5086 13.0264 25.7486C13.4764 25.2986 13.9864 25.1986 14.5464 25.5086C15.1564 25.8486 15.2164 26.6786 14.6264 27.2886C13.4164 28.5486 12.1864 29.7786 10.9464 31.0086C8.85644 33.0986 6.76641 35.1886 4.66641 37.2686C4.15641 37.7686 3.6464 38.2685 3.0964 38.7285C2.7464 39.0285 2.3164 39.0686 1.9064 38.8086C1.5764 38.6086 1.34639 38.3186 1.33639 37.9086H1.35641Z" fill="white"/>
</svg>
