<svg width="40" height="41" viewBox="0 0 40 41" fill="none" xmlns="http://www.w3.org/2000/svg">
<path d="M19.8124 0C22.2024 1.55 24.6024 3.10002 26.9924 4.65002C29.8624 6.50002 32.7224 8.35995 35.5924 10.2C35.9524 10.43 36.0824 10.71 36.0824 11.13C36.0824 15.58 36.0824 20.04 36.0724 24.49C36.0724 24.85 36.1624 25.12 36.4424 25.36C36.7824 25.66 37.0924 25.9899 37.4124 26.3199C37.9524 26.8799 38.0024 27.56 37.5124 28.15C37.3324 28.37 37.2924 28.55 37.4324 28.79C37.5124 28.91 37.5624 29.0499 37.6024 29.1899C37.6624 29.4099 37.7924 29.51 38.0224 29.54C38.9424 29.68 39.3424 30.16 39.3424 31.09V32.9299C39.3224 33.7699 38.8824 34.29 38.0624 34.39C37.7924 34.42 37.6524 34.53 37.5924 34.78C37.5524 34.92 37.5024 35.0599 37.4224 35.1899C37.2924 35.4199 37.3224 35.58 37.5024 35.79C37.9924 36.33 37.9724 37.0299 37.4724 37.5599C36.9524 38.0999 36.4224 38.63 35.8924 39.14C35.3624 39.65 34.6824 39.68 34.1224 39.21C33.8924 39.01 33.7024 38.97 33.4524 39.13C33.3424 39.2 33.2124 39.25 33.0824 39.28C32.8324 39.35 32.7324 39.49 32.7024 39.76C32.6124 40.57 32.1124 40.99 31.3024 40.99H29.2224C28.4624 40.99 28.0024 40.59 27.8624 39.85C27.8324 39.69 27.8825 39.47 27.7024 39.38C27.3925 39.23 27.0624 39.11 26.7424 39.01C26.6324 38.98 26.5424 39.13 26.4524 39.2C25.8925 39.66 25.2024 39.65 24.6724 39.14C24.1324 38.62 23.6124 38.0899 23.0824 37.5599C22.9824 37.4599 22.8624 37.33 22.8324 37.2C22.7424 36.77 22.4724 36.73 22.1024 36.74H0.582424C0.222424 36.7 -0.0275624 36.43 0.00243763 36.1C0.0324376 35.75 0.232424 35.53 0.582424 35.5C0.952424 35.48 1.33245 35.47 1.70245 35.5C2.08245 35.53 2.21245 35.4 2.20245 35.01C2.18245 32.74 2.20245 30.48 2.20245 28.21V26.45C2.20245 25.94 2.44242 25.65 2.83242 25.64C3.24242 25.63 3.50244 25.93 3.50244 26.46V34.9399C3.50244 35.3133 3.68245 35.5 4.04245 35.5H5.84243C6.10243 35.5 6.20244 35.41 6.19244 35.15C6.18244 34.9 6.19244 34.64 6.19244 34.39V16.63C6.19244 16.29 6.16242 16.0099 5.86242 15.7999C5.66242 15.6599 5.57245 15.4299 5.54245 15.1799C5.46245 14.5599 5.46244 13.9299 5.53244 13.3099C5.61244 12.6199 6.03244 12.2399 6.72244 12.1799C6.85244 12.1699 6.99243 12.1799 7.12243 12.1799H31.5624C32.2724 12.2399 32.7524 12.71 32.7824 13.42C32.8024 13.93 32.8024 14.4299 32.7824 14.9399C32.7724 15.3399 32.6224 15.7 32.2924 15.95C32.1124 16.08 32.0824 16.2299 32.0824 16.4299V22.79C32.0824 23 32.1224 23.17 32.2824 23.33C32.5524 23.57 32.6824 23.9 32.7024 24.26C32.7124 24.5 32.8224 24.6199 33.0424 24.6899C33.2124 24.7399 33.3724 24.81 33.5224 24.89C33.7324 25 33.9024 24.9899 34.0624 24.8099C34.1224 24.7399 34.2024 24.67 34.2824 24.65C34.7724 24.54 34.8024 24.2 34.7924 23.78C34.7824 19.79 34.7824 15.8099 34.7924 11.8199C34.7924 11.4099 34.6724 11.17 34.3224 10.95C29.5224 7.86995 24.7324 4.77003 19.9424 1.66003C19.6424 1.47003 19.4324 1.45001 19.1224 1.64001C14.0424 4.78001 8.95242 7.91004 3.86242 11.04C3.58242 11.21 3.50244 11.41 3.50244 11.72V23.12C3.50244 23.31 3.50243 23.4999 3.46243 23.6799C3.38243 23.9999 3.16244 24.18 2.82244 24.17C2.50244 24.16 2.30245 23.97 2.23245 23.67C2.19245 23.53 2.20245 23.38 2.20245 23.23V11.23C2.20245 10.77 2.35245 10.47 2.76245 10.22C8.14245 6.91997 13.5024 3.60994 18.8724 0.309937C19.0124 0.229937 19.1424 0.129927 19.2724 0.0499268H19.8324L19.8124 0ZM24.5624 24.84C25.2824 24.28 25.9224 24.27 26.5524 24.84C26.6024 24.88 26.6624 24.9199 26.7224 24.9299C27.0824 24.9899 27.8024 24.47 27.8624 24.1C27.9824 23.39 28.4624 22.96 29.1724 22.95C29.5424 22.95 29.9224 22.92 30.2924 22.95C30.6924 22.98 30.7924 22.8199 30.7924 22.4399C30.7824 20.5299 30.7924 18.63 30.7924 16.72C30.7924 16.19 30.7924 16.1799 30.2624 16.1799H21.2224C21.0724 16.1799 20.9224 16.18 20.7824 16.16C20.4524 16.1 20.2524 15.8999 20.2224 15.5699C20.1924 15.2299 20.3824 15.02 20.6924 14.92C20.8824 14.86 21.0924 14.87 21.2824 14.87H30.6424C31.5924 14.87 31.4724 14.9699 31.4824 14.0499C31.4824 13.4599 31.4824 13.46 30.8924 13.46H7.65243C6.67243 13.46 6.81243 13.3299 6.80243 14.3099C6.80243 14.8699 6.80244 14.88 7.38244 14.88H17.7424C18.3724 14.88 18.7024 15.11 18.7124 15.54C18.7124 15.96 18.3924 16.1899 17.7524 16.1899H8.23245C7.46245 16.1899 7.51245 16.11 7.51245 16.89V35.0499C7.51245 35.3899 7.61243 35.53 7.96243 35.51C8.49243 35.48 9.03244 35.51 9.56244 35.51C9.9291 35.51 10.1158 35.33 10.1224 34.97V28.65C10.1224 27.91 10.5224 27.51 11.2524 27.51C12.1824 27.51 13.1224 27.49 14.0524 27.51C14.4324 27.51 14.5224 27.39 14.5224 27.03C14.5124 24.9 14.5224 22.76 14.5224 20.63C14.5224 19.93 14.9124 19.51 15.5924 19.5H23.5124C23.8224 19.5 24.0824 19.61 24.3024 19.83C24.5324 20.07 24.5824 20.3599 24.5824 20.6799V24.84H24.5624ZM36.4924 27.2999C36.4824 27.1799 36.3924 27.11 36.3124 27.04L35.3524 26.08C35.0991 25.8266 34.8458 25.8266 34.5924 26.08C34.1424 26.51 33.9524 26.54 33.3924 26.23C33.0424 26.04 32.6724 25.89 32.2924 25.76C31.4724 25.49 31.4424 25.47 31.4124 24.62C31.4124 24.34 31.3024 24.24 31.0324 24.24H29.7524C29.3458 24.24 29.1391 24.4433 29.1324 24.85C29.1324 25.37 29.0124 25.5299 28.5024 25.6799C28.0124 25.8299 27.5524 26.02 27.1024 26.26C26.5924 26.53 26.4124 26.5 26.0024 26.1C25.9324 26.03 25.8624 25.97 25.8024 25.9C25.6624 25.73 25.5424 25.71 25.3724 25.88C24.9724 26.29 24.5624 26.7 24.1524 27.1C24.0024 27.25 24.0124 27.37 24.1624 27.5C24.2524 27.58 24.3324 27.67 24.4124 27.75C24.7524 28.11 24.7924 28.33 24.5624 28.75C24.2924 29.23 24.0924 29.73 23.9324 30.26C23.8224 30.64 23.5824 30.84 23.1724 30.83H23.0124C22.6524 30.83 22.4724 31.0167 22.4724 31.39V32.51C22.4724 32.9033 22.6658 33.1033 23.0524 33.11C23.6124 33.11 23.8025 33.25 23.9524 33.77C24.1024 34.29 24.3024 34.78 24.5724 35.24C24.7724 35.58 24.7225 35.87 24.4524 36.15C24.3624 36.25 24.2724 36.3499 24.1724 36.4299C23.9824 36.5899 24.0024 36.72 24.1724 36.89C24.5024 37.2 24.8124 37.53 25.1424 37.85C25.6324 38.34 25.5224 38.3 25.9924 37.85C26.3924 37.46 26.5924 37.43 27.0924 37.71C27.4524 37.91 27.8424 38.07 28.2324 38.2C29.0824 38.49 29.1024 38.49 29.1124 39.36C29.1124 39.66 29.2224 39.76 29.5124 39.75C29.9224 39.73 30.3424 39.75 30.7524 39.75C31.3824 39.75 31.3924 39.75 31.3924 39.13C31.3924 38.75 31.5024 38.4299 31.9024 38.3199C32.5124 38.1499 33.0824 37.9 33.6324 37.61C33.9024 37.47 34.1524 37.52 34.3724 37.71C34.4824 37.81 34.5924 37.9 34.6824 38.02C34.8524 38.23 35.0024 38.24 35.2024 38.02C35.5224 37.68 35.8624 37.36 36.1924 37.03C36.4391 36.7834 36.4391 36.5367 36.1924 36.29C35.7324 35.82 35.7124 35.69 36.0224 35.1C36.2124 34.75 36.3724 34.38 36.5024 34C36.7724 33.16 36.7724 33.14 37.6724 33.12C37.9524 33.12 38.0524 33.01 38.0424 32.74C38.0324 32.33 38.0424 31.91 38.0424 31.5C38.0424 30.77 38.0724 30.83 37.4024 30.84C36.9624 30.84 36.7024 30.66 36.5824 30.23C36.4524 29.75 36.2624 29.3 36.0324 28.86C35.7124 28.26 35.7324 28.13 36.2224 27.64C36.3224 27.54 36.4524 27.4599 36.4924 27.2999ZM15.1324 35.5H18.5324C18.7924 35.5 18.9224 35.43 18.9124 35.14V29.1C18.9124 28.84 18.8124 28.74 18.5524 28.75C18.0824 28.76 17.6224 28.76 17.1524 28.75C16.8924 28.75 16.7924 28.84 16.8024 29.1C16.8124 29.67 16.8024 30.2499 16.8024 30.8199C16.8024 31.3199 16.6124 31.55 16.1224 31.58C15.4624 31.61 14.7924 31.61 14.1224 31.58C13.6524 31.55 13.4724 31.32 13.4624 30.84C13.4624 30.27 13.4524 29.69 13.4624 29.12C13.4624 28.84 13.3624 28.74 13.0924 28.75C12.6524 28.77 12.2124 28.77 11.7724 28.75C11.4624 28.74 11.3524 28.85 11.3524 29.17C11.3524 31.14 11.3624 33.11 11.3524 35.09C11.3524 35.44 11.4924 35.51 11.8024 35.51C12.9124 35.5 14.0124 35.51 15.1224 35.51L15.1324 35.5ZM19.2024 27.5H22.3224C22.5624 27.5 22.6924 27.44 22.7024 27.17C22.7225 26.87 22.8524 26.61 23.0624 26.39C23.1824 26.26 23.2724 26.1199 23.2624 25.9299V21.17C23.2624 20.89 23.1324 20.7899 22.8724 20.7999H21.5524C21.2924 20.7999 21.2024 20.91 21.2024 21.16C21.2125 21.71 21.2024 22.2499 21.2024 22.7999C21.2024 23.3299 20.9924 23.58 20.4724 23.6C19.8424 23.62 19.2224 23.62 18.5924 23.6C18.0824 23.58 17.8724 23.35 17.8624 22.84C17.8624 22.29 17.8524 21.75 17.8624 21.2C17.8624 20.91 17.7724 20.7899 17.4724 20.7999C17.0324 20.8099 16.5924 20.8099 16.1524 20.7999C15.8624 20.7999 15.7524 20.9 15.7524 21.2V27.12C15.7524 27.42 15.8524 27.51 16.1424 27.51C17.1524 27.5 18.1724 27.51 19.1824 27.51L19.2024 27.5ZM20.1724 32.13V35.13C20.1724 35.36 20.2024 35.51 20.4924 35.51C21.3224 35.5 22.1424 35.51 22.9724 35.51C23.0624 35.51 23.1724 35.54 23.1924 35.4C23.2424 35.15 22.7524 34.46 22.4924 34.41C21.6424 34.28 21.2324 33.8099 21.2324 32.9399V30.8199C21.2424 30.1699 21.6624 29.6899 22.3124 29.5699C22.4324 29.5499 22.5524 29.55 22.6624 29.51C22.9624 29.42 23.0124 29.12 23.0224 28.9C23.0424 28.64 22.7524 28.76 22.6124 28.76C21.9324 28.75 21.2524 28.76 20.5724 28.75C20.2524 28.75 20.1524 28.85 20.1624 29.17C20.1824 30.16 20.1624 31.14 20.1624 32.13H20.1724ZM15.5524 29.5499V29.03C15.5524 28.95 15.5524 28.8499 15.4724 28.8199C15.2724 28.7299 15.0524 28.7399 14.8524 28.7999C14.6824 28.8499 14.7324 29.02 14.7324 29.15V30.03C14.7324 30.15 14.7524 30.2599 14.9024 30.3099C15.3424 30.4399 15.5524 30.29 15.5524 29.84V29.5599V29.5499ZM19.9524 21.59V21.23C19.9825 20.93 19.8724 20.7999 19.5524 20.7999C19.2224 20.7999 19.0924 20.92 19.1224 21.24C19.1424 21.45 19.1424 21.66 19.1224 21.87C19.0924 22.19 19.2024 22.3099 19.5424 22.3099C19.8924 22.3099 19.9825 22.16 19.9524 21.86V21.58V21.59Z" fill="white"/>
<path d="M19.5225 7.30021C19.1725 7.30021 18.8326 7.31021 18.4826 7.30021C18.0826 7.29021 17.8226 7.05025 17.7926 6.72025C17.7626 6.36025 18.0026 6.05031 18.4126 6.03031C19.1426 6.00031 19.8726 6.00031 20.6026 6.03031C21.0026 6.05031 21.2225 6.34022 21.2125 6.69022C21.2025 7.05022 20.9326 7.29022 20.5126 7.31022C20.1826 7.32022 19.8426 7.31022 19.5126 7.31022L19.5225 7.30021ZM19.5126 9.70023C19.1626 9.70023 18.8225 9.71023 18.4725 9.70023C18.0725 9.68023 17.8126 9.45027 17.7926 9.11027C17.7726 8.75027 18.0025 8.44033 18.4225 8.42033C19.1525 8.39033 19.8825 8.39033 20.6125 8.42033C21.0125 8.44033 21.2325 8.73024 21.2125 9.08024C21.1925 9.43024 20.9425 9.66022 20.5525 9.69022H19.5126V9.70023ZM26.6425 31.9903C26.6225 30.0003 28.2325 28.3803 30.2425 28.3703C32.2425 28.3603 33.8825 29.9602 33.9025 31.9402C33.9325 33.9102 32.2625 35.5903 30.2725 35.6103C28.3125 35.6303 26.6625 33.9803 26.6425 31.9903ZM32.5925 31.9602C32.5925 30.6802 31.5226 29.6203 30.2326 29.6403C28.9726 29.6603 27.9126 30.7103 27.9126 31.9703C27.9126 33.2503 28.9726 34.3102 30.2626 34.3102C31.5526 34.3102 32.5925 33.2602 32.5925 31.9602Z" fill="white"/>
</svg>
