<svg width="139" height="50" viewBox="0 0 139 50" fill="none" xmlns="http://www.w3.org/2000/svg">
<path d="M138.53 0.00976562C134.38 6.25452 130.28 12.4253 126.15 18.6489L126.03 18.4904C125.99 18.5433 125.95 18.5961 125.9 18.6489C121.76 12.4253 117.67 6.25452 113.52 0.00976562H116.94C117.2 0.00976562 117.3 0.210524 117.38 0.36902C118.17 1.70039 119.09 2.96836 119.94 4.26803C120.86 5.67336 121.85 7.03643 122.75 8.45233C123.35 9.4033 124.01 10.3226 124.62 11.2736L126.03 13.4291C126.5 12.7106 126.97 11.9921 127.43 11.2736C128.04 10.3331 128.7 9.4033 129.3 8.45233C130.2 7.03643 131.2 5.67336 132.11 4.26803C132.96 2.96836 133.88 1.70039 134.67 0.36902C134.76 0.22109 134.86 0.00976562 135.11 0.00976562H138.53Z" fill="white"/>
<path d="M133.63 0.00976562C131.1 3.81367 128.61 7.56475 126.09 11.3581C126.06 11.3264 126.04 11.2947 126.01 11.263C125.98 11.2947 125.96 11.3264 125.93 11.3581C123.41 7.56475 120.92 3.81367 118.39 0.00976562H120.47C120.63 0.00976562 120.69 0.136559 120.74 0.221091C121.22 1.0347 121.78 1.80605 122.3 2.58796C122.86 3.44384 123.46 4.27859 124.01 5.13447C124.38 5.71563 124.77 6.27564 125.15 6.84623C125.43 7.27945 125.72 7.72325 126.01 8.15647C126.29 7.72325 126.58 7.27945 126.86 6.84623C127.23 6.27564 127.63 5.70506 128 5.13447C128.55 4.27859 129.15 3.44384 129.71 2.58796C130.23 1.79548 130.79 1.02414 131.27 0.221091C131.32 0.125993 131.38 0.00976562 131.54 0.00976562H133.62H133.63Z" fill="white"/>
<path d="M130.08 0.00976562C128.73 2.03852 127.4 4.04613 126.06 6.06432C126.05 6.04318 126.03 6.03262 126.02 6.01149C126.01 6.03262 125.99 6.04318 125.98 6.06432C124.64 4.04613 123.3 2.03852 121.96 0.00976562H123.07C123.15 0.00976562 123.19 0.0731647 123.21 0.125997C123.47 0.55922 123.77 0.971307 124.04 1.39396C124.34 1.84832 124.66 2.29211 124.95 2.75703C125.15 3.06346 125.36 3.36988 125.56 3.6763C125.71 3.90877 125.86 4.14123 126.02 4.37369C126.17 4.14123 126.32 3.90877 126.48 3.6763C126.68 3.36988 126.89 3.07402 127.09 2.75703C127.38 2.30268 127.71 1.85889 128 1.39396C128.28 0.971307 128.58 0.55922 128.83 0.125997C128.86 0.0731647 128.89 0.00976562 128.97 0.00976562H130.08ZM113.51 32.0577C117.66 25.8129 121.76 19.6422 125.89 13.4185L126.01 13.577C126.05 13.5242 126.09 13.4714 126.14 13.4185C130.28 19.6422 134.37 25.8129 138.52 32.0577H135.1C134.84 32.0577 134.74 31.8569 134.66 31.6984C133.87 30.3671 132.95 29.0991 132.1 27.7994C131.18 26.3941 130.19 25.031 129.29 23.6151C128.69 22.6642 128.03 21.7449 127.42 20.7939L126.01 18.6383C125.54 19.3569 125.07 20.0754 124.61 20.7939C124 21.7343 123.34 22.6642 122.74 23.6151C121.84 25.031 120.84 26.3941 119.93 27.7994C119.08 29.0991 118.16 30.3671 117.37 31.6984C117.28 31.8464 117.18 32.0577 116.93 32.0577H113.51Z" fill="white"/>
<path d="M118.41 32.0583C120.94 28.2544 123.43 24.5033 125.95 20.71C125.98 20.7417 126 20.7734 126.03 20.8051C126.06 20.7734 126.08 20.7417 126.11 20.71C128.63 24.5033 131.12 28.2544 133.65 32.0583H131.57C131.41 32.0583 131.35 31.9315 131.3 31.847C130.82 31.0333 130.26 30.262 129.74 29.4801C129.18 28.6242 128.58 27.7895 128.03 26.9336C127.66 26.3524 127.27 25.7924 126.89 25.2218C126.61 24.7886 126.32 24.3448 126.03 23.9116C125.75 24.3448 125.46 24.7886 125.18 25.2218C124.81 25.7924 124.41 26.363 124.04 26.9336C123.49 27.7895 122.89 28.6242 122.33 29.4801C121.81 30.2726 121.25 31.0439 120.77 31.847C120.72 31.9421 120.66 32.0583 120.5 32.0583H118.42H118.41Z" fill="white"/>
<path d="M121.96 32.0692C123.31 30.0404 124.64 28.0328 125.98 26.0146C125.99 26.0358 126.01 26.0463 126.02 26.0675C126.03 26.0463 126.05 26.0358 126.06 26.0146C127.4 28.0328 128.74 30.0404 130.08 32.0692H128.97C128.89 32.0692 128.85 32.0058 128.83 31.953C128.57 31.5197 128.27 31.1077 128 30.685C127.7 30.2306 127.38 29.7869 127.09 29.3219C126.89 29.0155 126.68 28.7091 126.48 28.4027C126.33 28.1702 126.18 27.9377 126.02 27.7053C125.87 27.9377 125.72 28.1702 125.56 28.4027C125.36 28.7091 125.15 29.0049 124.95 29.3219C124.66 29.7763 124.33 30.2201 124.04 30.685C123.76 31.1077 123.46 31.5197 123.21 31.953C123.18 32.0058 123.15 32.0692 123.07 32.0692H121.96Z" fill="white"/>
<path d="M18.68 32.0585C16.52 32.0585 14.57 32.0057 12.84 31.8894C11.11 31.7732 9.53998 31.4985 8.13998 31.0441C6.73998 30.5898 5.43999 29.9029 4.23999 28.9731C1.40999 26.5534 0 22.8869 0 17.9735V14.085C0 10.6192 0.639983 7.85084 1.91998 5.80096C3.19998 3.74051 5.04 2.26121 7.44 1.36307C9.84 0.464923 12.72 0.0105687 16.08 0.0105687H18.68C22.04 0.0105687 24.92 0.464923 27.32 1.36307C29.72 2.26121 31.57 3.75107 32.86 5.80096C34.15 7.86141 34.8 10.6192 34.8 14.085V17.9735C34.8 21.4393 34.15 24.2076 32.86 26.2575C31.57 28.318 29.72 29.7973 27.32 30.6954C24.92 31.5936 22.04 32.0479 18.68 32.0479V32.0585ZM18.68 28.7195C23.3 28.7195 26.6 27.9376 28.61 26.3738C30.61 24.8099 31.61 22.0098 31.61 17.984V14.0956C31.61 10.0592 30.61 7.26969 28.61 5.70586C26.61 4.14204 23.3 3.36012 18.68 3.36012C15.53 3.36012 12.99 3.49748 11.06 3.78278C9.13 4.06807 7.49 4.72319 6.16 5.76926C5.17 6.56174 4.42998 7.60782 3.91998 8.91805C3.40998 10.2283 3.16 11.9612 3.16 14.0956V17.984C3.16 22.0204 4.16999 24.8099 6.17999 26.3738C8.18999 27.9376 11.5 28.7195 16.09 28.7195H18.69H18.68ZM72.03 30.8751H68.43L66.15 26.0568C65.62 24.8416 65.03 23.7639 64.39 22.8023C63.75 21.8408 62.9 21.08 61.85 20.52C60.8 19.96 59.35 19.6747 57.51 19.6747H43.82V30.8856H40.66V0.0105687H57.51C61.01 0.0105687 63.77 0.422655 65.81 1.23627C67.85 2.04988 69.31 3.14879 70.19 4.51185C71.07 5.87492 71.51 7.36479 71.51 8.97088V10.7038C71.51 12.648 70.96 14.3598 69.87 15.839C68.78 17.3183 67.24 18.301 65.27 18.7765C66.31 19.4528 67.55 21.3759 68.99 24.5246L72.03 30.8645V30.8751ZM57.5 16.3251C60.41 16.3251 62.64 16.0821 64.2 15.6066C65.76 15.1311 66.83 14.4654 67.42 13.6201C68.01 12.7748 68.3 11.8027 68.3 10.7038V8.97088C68.3 7.87197 68.01 6.89986 67.42 6.05455C66.83 5.20924 65.76 4.54356 64.2 4.06807C62.64 3.59258 60.4 3.34955 57.5 3.34955H43.81V16.3357H57.5V16.3251ZM94.04 30.8751H90.84V17.1704L74.75 0H79.23L92.44 14.085L105.65 0H110.13L94.04 17.1704V30.8751Z" fill="white"/>
<path d="M3.0499 48.8278H2.65991V39.075H8.02991C9.15991 39.075 10.0499 39.1912 10.6899 39.4237C11.3299 39.6561 11.7799 39.9626 12.0499 40.3535C12.3099 40.7445 12.4399 41.1777 12.4399 41.6637V42.2343C12.4399 42.7204 12.3099 43.1642 12.0499 43.5446C11.7899 43.9355 11.3399 44.242 10.6899 44.4744C10.0499 44.7069 9.15991 44.8231 8.02991 44.8231H3.0499V48.8383V48.8278ZM8.02991 44.3793C10.6999 44.3793 12.0299 43.6608 12.0299 42.2238V41.6532C12.0299 41.2622 11.9099 40.903 11.6799 40.5648C11.1599 39.8463 9.94991 39.4871 8.02991 39.4871H3.0499V44.3793H8.02991ZM20.0499 49.2293C18.9499 49.2293 18.0299 49.1765 17.2899 49.0708C16.5499 48.9651 15.9099 48.6904 15.3599 48.2572C14.4899 47.5598 14.0599 46.4081 14.0599 44.8125V43.4917C14.0599 42.3823 14.2599 41.5053 14.6499 40.8607C15.0399 40.2161 15.6199 39.7618 16.3799 39.4871C17.1399 39.2123 18.0699 39.075 19.1699 39.075H20.0499C21.1599 39.075 22.0999 39.2123 22.8599 39.4871C23.6199 39.7618 24.1999 40.2267 24.5899 40.8607C24.9799 41.5053 25.1799 42.3717 25.1799 43.4812V44.802C25.1799 45.9114 24.9799 46.7885 24.5899 47.433C24.1999 48.0776 23.6199 48.5319 22.8599 48.8066C22.0999 49.0814 21.1599 49.2187 20.0499 49.2187V49.2293ZM20.0499 48.8172C21.6699 48.8172 22.8599 48.5214 23.6199 47.9191C24.3799 47.3168 24.7699 46.2813 24.7699 44.8231V43.5023C24.7699 42.0547 24.3899 41.0192 23.6199 40.4169C22.8599 39.8146 21.6599 39.5082 20.0499 39.5082C18.9699 39.5082 18.0799 39.561 17.3799 39.6561C16.6799 39.7512 16.0799 40.0048 15.5999 40.3958C14.8299 41.0086 14.4499 42.0441 14.4499 43.5023V44.8231C14.4499 46.2813 14.8299 47.3062 15.5999 47.9085C16.3699 48.5108 17.5599 48.8172 19.1699 48.8172H20.0499ZM30.6299 48.8278H26.2099V48.4157H28.2199V39.5188H26.2099V39.0855H30.6299V39.5188H28.6199V48.4157H30.6299V48.8278ZM42.5699 48.8278H41.9499L32.6799 39.4237V48.8278H32.2899V39.075H32.9099L42.1599 48.4685V39.075H42.5699V48.8278ZM49.7699 48.8278H49.3799V39.4976H44.2699V39.0855H54.8899V39.4976H49.7799V48.8278H49.7699ZM67.6699 49.2293C66.5699 49.2293 65.6499 49.1765 64.9099 49.0708C64.1699 48.9651 63.5299 48.6904 62.9799 48.2572C62.1099 47.5598 61.6799 46.4081 61.6799 44.8125V43.4917C61.6799 42.3823 61.8799 41.5053 62.2699 40.8607C62.6599 40.2161 63.2399 39.7618 63.9999 39.4871C64.7599 39.2123 65.6899 39.075 66.7899 39.075H67.6699C68.7799 39.075 69.7199 39.2123 70.4799 39.4871C71.2399 39.7618 71.8199 40.2267 72.2099 40.8607C72.5999 41.5053 72.7999 42.3717 72.7999 43.4812V44.802C72.7999 45.9114 72.5999 46.7885 72.2099 47.433C71.8199 48.0776 71.2399 48.5319 70.4799 48.8066C69.7199 49.0814 68.7799 49.2187 67.6699 49.2187V49.2293ZM67.6699 48.8172C69.2899 48.8172 70.4799 48.5214 71.2399 47.9191C71.9999 47.3168 72.3899 46.2813 72.3899 44.8231V43.5023C72.3899 42.0547 72.0099 41.0192 71.2399 40.4169C70.4799 39.8146 69.2799 39.5082 67.6699 39.5082C66.5899 39.5082 65.6999 39.561 64.9999 39.6561C64.2999 39.7512 63.6999 40.0048 63.2199 40.3958C62.4499 41.0086 62.0699 42.0441 62.0699 43.5023V44.8231C62.0699 46.2813 62.4499 47.3062 63.2199 47.9085C63.9899 48.5108 65.1799 48.8172 66.7899 48.8172H67.6699ZM75.5599 48.8278H75.1699V39.075H85.2799V39.4871H75.5699V44.4321H83.9499V44.8654H75.5699V48.8172L75.5599 48.8278ZM97.4299 48.944C96.3599 48.944 95.5099 48.9017 94.8799 48.8278C94.2499 48.7538 93.6999 48.5742 93.2399 48.2995C92.5199 47.8557 92.1499 47.1794 92.1499 46.2601V45.7741H92.5399V46.2601C92.5399 47.0104 92.8499 47.5704 93.4699 47.9508C94.0899 48.3312 95.1499 48.5214 96.6499 48.5214C97.6499 48.5214 98.5199 48.4685 99.2499 48.3734C99.9799 48.2783 100.54 48.0881 100.93 47.8028C101.32 47.5175 101.52 47.0949 101.52 46.5243V46.0488C101.52 45.6473 101.44 45.3197 101.29 45.0767C101.14 44.8337 100.9 44.6329 100.57 44.485C100.15 44.2948 99.6399 44.1786 99.0199 44.1257C98.3999 44.0835 97.6099 44.0518 96.6499 44.0518C95.9299 44.0518 95.2899 44.0201 94.7399 43.9461C94.1899 43.8827 93.7199 43.7559 93.3399 43.5868C92.5399 43.2276 92.1499 42.583 92.1499 41.6532V41.1777C92.1499 40.5648 92.3399 40.0894 92.7099 39.7407C93.0799 39.392 93.6099 39.1489 94.2799 38.9904C94.9599 38.8425 95.7499 38.7686 96.6499 38.7686C97.7199 38.7686 98.5699 38.8108 99.1999 38.8848C99.8299 38.9587 100.38 39.1384 100.84 39.4131C101.56 39.8569 101.93 40.5331 101.93 41.4524V41.9385H101.52V41.4524C101.52 40.7022 101.21 40.1422 100.6 39.7618C99.9899 39.3814 98.9299 39.1912 97.4299 39.1912C96.4299 39.1912 95.5599 39.244 94.8299 39.3391C94.0999 39.4342 93.5399 39.6244 93.1399 39.9097C92.7399 40.195 92.5399 40.6177 92.5399 41.1883V41.6637C92.5399 42.0653 92.6199 42.3928 92.7699 42.6359C92.9199 42.8789 93.1699 43.0691 93.4999 43.217C93.9099 43.4072 94.4199 43.5234 95.0499 43.5763C95.6799 43.6291 96.4699 43.6502 97.4199 43.6502C98.1399 43.6502 98.7799 43.6819 99.3299 43.7453C99.8799 43.8087 100.35 43.9355 100.73 44.1046C101.53 44.4744 101.92 45.1295 101.92 46.0594V46.5349C101.92 47.1477 101.73 47.6232 101.36 47.9719C100.99 48.3206 100.46 48.5742 99.7899 48.7221C99.1199 48.87 98.3199 48.944 97.4199 48.944H97.4299ZM114.25 48.8278H113.79L112.04 45.679H105.19L103.44 48.8278H102.97L108.38 39.075H108.84L114.25 48.8278ZM111.79 45.2458L108.6 39.5082L105.41 45.2458H111.79ZM126.1 48.8278H115.99V39.075H116.38V48.3945H126.09V48.8278H126.1ZM137.91 48.8278H127.8V39.075H137.91V39.4871H128.2V43.7348H136.58V44.1469H128.2V48.3945H137.91V48.8278Z" fill="white"/>
<path d="M7.58005 15.5644C7.57005 16.2195 7.61005 16.8746 7.58005 17.5297C7.56005 17.963 7.58007 18.4068 7.57007 18.84V19.1887C6.90007 19.5902 6.24007 19.9917 5.57007 20.3932C5.59007 17.8467 5.61007 15.3002 5.63007 12.7432C6.29007 13.0179 6.90006 13.2821 7.50006 13.5462C7.64006 13.6096 7.62005 13.6941 7.61005 13.7575C7.55005 14.3598 7.59005 14.9621 7.58005 15.5644ZM27.2501 15.5644C27.2601 16.2195 27.2201 16.8746 27.2501 17.5297C27.2701 17.963 27.25 18.4068 27.26 18.84V19.1887C27.93 19.5902 28.59 19.9917 29.26 20.3932C29.24 17.8467 29.22 15.3002 29.2 12.7432C28.54 13.0179 27.93 13.2821 27.33 13.5462C27.19 13.6096 27.2101 13.6941 27.2201 13.7575C27.2801 14.3598 27.2401 14.9621 27.2501 15.5644ZM20.6001 19.0724V17.963C20.6201 17.0965 20.5801 16.2301 20.6001 15.3636C20.6101 14.7191 20.5901 14.0745 20.6001 13.43H18.7501L18.7201 19.0724H20.58H20.6001ZM16.0001 19.0724V17.963C16.0201 17.0965 15.9801 16.2301 16.0001 15.3636C16.0101 14.7191 15.9901 14.0745 16.0001 13.43H14.1501L14.1201 19.0724H15.98H16.0001ZM11.4001 19.0724V17.963C11.4201 17.0965 11.3801 16.2301 11.4001 15.3636C11.4101 14.7191 11.3901 14.0745 11.4001 13.43H9.55005L9.52005 19.0724H11.3801H11.4001ZM25.2801 19.0724V17.963C25.3001 17.0965 25.2601 16.2301 25.2801 15.3636C25.2901 14.7191 25.2701 14.0745 25.2801 13.43H23.4301L23.4001 19.0724H25.26H25.2801Z" fill="white"/>
</svg>
