<svg width="61" height="61" viewBox="0 0 61 61" fill="none" xmlns="http://www.w3.org/2000/svg">
<path d="M30.2899 60.7996C13.7599 60.8196 0.139888 47.3196 0.129888 30.6396C0.119888 13.9296 13.8399 0.289636 30.6399 0.449636C46.9699 0.599636 60.6799 14.0696 60.4899 31.0096C60.2999 47.5596 46.6799 60.8496 30.2899 60.7996Z" fill="#8DA1AF"/>
<path d="M21.6499 30.9892V19.4492C21.6499 18.1892 22.6599 17.2692 23.8599 17.4292C24.1599 17.4692 24.4299 17.5792 24.6799 17.7292C28.3899 19.8692 32.1099 22.0192 35.8199 24.1592C38.7799 25.8692 41.7199 27.6093 44.6999 29.2793C45.9399 29.9793 46.1499 31.8792 44.7799 32.6692C43.3599 33.4892 41.9399 34.3092 40.5299 35.1392C38.4199 36.3692 36.3199 37.5992 34.2099 38.8192C31.3199 40.4792 28.4299 42.1292 25.5399 43.7892C25.2399 43.9592 24.9299 44.1292 24.6399 44.3192C23.4099 45.1492 21.6499 44.2292 21.6599 42.6292V38.9692V30.9892H21.6499Z" fill="#BED0DB"/>
</svg>
