<svg width="1440" height="1024" viewBox="0 0 1440 1024" fill="none" xmlns="http://www.w3.org/2000/svg">
<mask id="mask0_44_297" style="mask-type:luminance" maskUnits="userSpaceOnUse" x="0" y="0" width="1440" height="1024">
<path d="M0 0H1440V1024H0V0Z" fill="white"/>
</mask>
<g mask="url(#mask0_44_297)">
<path d="M-199.593 -38.9004C-101.153 312.793 -6.5812 408.501 70.1031 412.961C230.025 422.265 346.662 36.7268 471.806 66.5437C570.541 90.0583 524.837 336.471 669.515 427.884C808.089 515.432 955.678 356.181 1195.18 358.232C1331.42 359.391 1523.11 412.975 1754.23 654.483" stroke="#BED0DB" stroke-width="0.25" stroke-linecap="round" stroke-linejoin="round"/>
<path d="M-203.545 -27.7666C-105.808 311.902 -9.97061 406.258 69.92 410.761C232.781 420.036 347.308 44.9325 475.926 73.5156C576.194 96.0641 535.412 334.673 677.755 424.659C778.515 488.366 884.211 423.708 1028.07 386.087C1079.47 372.591 1135.77 362.588 1198.42 363.138C1334.25 364.327 1524.69 414.567 1754.46 642.236" stroke="#BED0DB" stroke-width="0.25" stroke-linecap="round" stroke-linejoin="round"/>
<path d="M-207.51 -16.6338C-110.463 310.995 -13.3736 403.998 69.7233 408.561C235.523 417.807 347.997 52.8101 480.047 80.4717C581.89 101.801 545.987 332.875 685.982 421.433C785.462 484.367 889.921 424.406 1032.74 389.402C1083.65 376.812 1139.48 367.478 1201.65 368.028C1337.07 369.246 1526.28 416.142 1754.68 629.973" stroke="#BED0DB" stroke-width="0.25" stroke-linecap="round" stroke-linejoin="round"/>
<path d="M-211.476 -5.50293C-115.118 310.086 -16.777 401.751 69.5263 406.359C238.251 415.575 348.644 60.879 484.167 87.4407C587.557 107.715 556.548 331.074 694.209 418.206C792.409 480.381 895.63 425.117 1037.41 392.714C1087.84 381.046 1143.2 372.366 1204.87 372.931C1339.89 374.179 1527.84 417.715 1754.89 617.723" stroke="#BED0DB" stroke-width="0.25" stroke-linecap="round" stroke-linejoin="round"/>
<path d="M-215.442 5.63086C-119.773 309.18 -20.166 399.493 69.3295 404.16C240.994 413.331 349.291 68.9508 488.288 94.3977C593.224 113.617 567.124 329.261 702.45 414.966C799.384 476.369 901.354 425.802 1042.09 396.015C1092.03 385.253 1146.95 377.242 1208.12 377.807C1342.73 379.085 1529.44 419.277 1755.13 605.446" stroke="#BED0DB" stroke-width="0.25" stroke-linecap="round" stroke-linejoin="round"/>
<path d="M-219.407 16.7656C-124.427 308.275 -23.5693 397.235 69.1325 401.962C243.736 411.103 349.924 77.0534 492.394 101.371C598.863 119.549 577.685 327.479 710.662 411.743C806.317 472.387 907.119 426.829 1046.75 399.346C1096.22 389.61 1150.64 382.149 1211.33 382.728C1345.53 384.021 1530.99 420.869 1755.33 593.2" stroke="#BED0DB" stroke-width="0.25" stroke-linecap="round" stroke-linejoin="round"/>
<path d="M-223.373 27.8994C-129.082 307.369 -26.9726 394.992 68.9356 399.763C246.464 408.875 350.571 85.1698 496.514 108.343C604.516 125.495 588.26 325.682 718.889 408.518C813.264 468.389 912.829 427.588 1051.42 402.662C1100.4 393.847 1154.37 387.04 1214.56 387.634C1348.34 388.957 1532.57 422.46 1755.55 580.953" stroke="#BED0DB" stroke-width="0.25" stroke-linecap="round" stroke-linejoin="round"/>
<path d="M-227.339 39.0303C-133.737 306.461 -30.3754 392.73 68.739 397.546C249.207 406.628 351.19 93.2833 500.635 115.282C610.17 131.409 598.835 323.851 727.13 405.261C820.226 464.359 918.553 428.299 1056.1 405.944C1104.6 398.066 1158.1 391.898 1217.81 392.492C1351.18 393.845 1534.16 424.004 1755.79 568.659" stroke="#BED0DB" stroke-width="0.25" stroke-linecap="round" stroke-linejoin="round"/>
<path d="M-231.291 50.1631C-138.378 305.554 -33.7508 390.486 68.5559 395.346C251.963 404.398 351.837 101.428 504.769 122.253C615.837 137.384 609.424 322.052 735.371 402.035C827.186 460.375 924.276 429.057 1060.78 409.259C1108.79 402.302 1161.84 396.788 1221.04 397.397C1354.01 398.78 1535.75 425.579 1756.02 556.411" stroke="#BED0DB" stroke-width="0.25" stroke-linecap="round" stroke-linejoin="round"/>
<path d="M-235.256 61.2969C-143.032 304.663 -37.1538 388.227 68.3592 393.147C254.691 402.169 352.469 109.575 508.876 129.225C621.476 143.36 619.971 320.27 743.597 398.81C834.148 456.378 929.985 429.786 1065.45 412.574C1112.97 406.539 1165.55 401.679 1224.28 402.288C1356.83 403.7 1537.34 427.156 1756.24 544.149" stroke="#BED0DB" stroke-width="0.25" stroke-linecap="round" stroke-linejoin="round"/>
<path d="M-239.222 72.4307C-147.687 303.757 -40.5571 385.983 68.1622 390.948C257.433 399.941 353.088 117.751 512.996 136.182C627.129 149.336 630.547 318.457 751.824 395.571C841.094 452.38 935.695 430.516 1070.12 415.89C1117.15 410.776 1169.28 406.57 1227.51 407.194C1359.66 408.636 1538.92 428.747 1756.45 531.902" stroke="#BED0DB" stroke-width="0.25" stroke-linecap="round" stroke-linejoin="round"/>
<path d="M-243.188 83.5635C-152.342 302.85 -43.9602 383.724 67.9655 388.748C260.175 397.711 353.707 125.94 517.116 143.153C632.769 155.341 641.122 316.658 760.051 392.345C848.042 448.382 941.404 431.244 1074.79 419.204C1121.34 414.997 1173 411.46 1230.73 412.084C1362.47 413.541 1540.49 430.307 1756.67 519.639" stroke="#BED0DB" stroke-width="0.25" stroke-linecap="round" stroke-linejoin="round"/>
<path d="M-247.153 94.6953C-156.997 301.942 -47.3635 381.478 67.7684 386.547C262.903 395.48 354.326 134.144 521.223 150.108C638.408 161.33 651.683 314.844 768.277 389.118C854.988 444.397 947.1 431.956 1079.46 422.517C1125.51 419.232 1176.72 416.349 1233.97 416.988C1365.3 418.474 1542.07 431.896 1756.89 507.39" stroke="#BED0DB" stroke-width="0.25" stroke-linecap="round" stroke-linejoin="round"/>
<path d="M-251.119 105.828C-161.652 301.035 -50.7527 379.219 67.5715 384.347C265.646 393.25 354.958 142.349 525.343 157.079C644.047 167.335 662.258 313.06 776.504 385.893C861.949 440.398 952.809 432.669 1084.13 425.832C1129.69 423.454 1180.44 421.239 1237.2 421.893C1368.12 423.409 1543.66 433.487 1757.12 495.127" stroke="#BED0DB" stroke-width="0.25" stroke-linecap="round" stroke-linejoin="round"/>
<path d="M-255.084 116.963C-166.306 300.13 -54.1556 376.961 67.3749 382.149C268.388 391.022 355.577 150.57 529.464 164.052C649.7 173.371 672.834 311.263 784.731 382.669C868.897 436.417 958.505 433.384 1088.8 429.148C1133.87 427.692 1184.16 426.131 1240.42 426.785C1370.94 428.331 1545.22 435.049 1757.33 482.866" stroke="#BED0DB" stroke-width="0.25" stroke-linecap="round" stroke-linejoin="round"/>
<path d="M-259.05 128.096C-170.975 299.223 -57.5588 374.717 67.178 379.934C271.116 388.778 356.196 158.79 533.584 170.993C655.339 179.376 683.395 309.435 792.972 379.414C875.858 432.388 964.228 434.053 1093.48 432.448C1138.06 431.898 1187.9 431.006 1243.67 431.675C1373.78 433.25 1546.82 436.625 1757.57 470.603" stroke="#BED0DB" stroke-width="0.25" stroke-linecap="round" stroke-linejoin="round"/>
<path d="M-263.002 139.212C-175.616 298.3 -60.948 372.44 66.9951 377.717C273.873 386.531 356.829 167.022 537.704 177.947C660.979 185.394 693.97 307.634 801.198 376.171C882.805 428.388 969.924 434.72 1098.13 435.746C1142.22 436.102 1191.61 435.879 1246.89 436.548C1376.58 438.154 1548.38 438.168 1757.78 458.324" stroke="#BED0DB" stroke-width="0.25" stroke-linecap="round" stroke-linejoin="round"/>
<path d="M-266.968 150.346C-180.271 297.394 -64.3373 370.197 66.7981 375.518C276.615 384.303 357.448 175.287 541.825 184.919C666.632 191.444 704.545 305.836 809.425 372.947C889.752 424.39 975.633 435.404 1102.8 439.061C1146.41 440.31 1195.32 440.77 1250.11 441.454C1379.39 443.074 1549.96 439.76 1757.99 446.077" stroke="#BED0DB" stroke-width="0.25" stroke-linecap="round" stroke-linejoin="round"/>
<path d="M-270.933 161.479C-184.925 296.502 -67.7403 367.937 66.6014 373.318C279.343 382.073 358.066 183.551 545.945 191.875C672.271 197.479 715.12 304.023 817.666 369.706C896.727 420.377 981.343 436.058 1107.49 442.361C1150.6 444.516 1199.06 445.645 1253.36 446.344C1382.23 447.994 1551.56 441.335 1758.23 433.814" stroke="#BED0DB" stroke-width="0.25" stroke-linecap="round" stroke-linejoin="round"/>
<path d="M-274.899 172.611C-189.58 295.595 -71.1437 365.693 66.4043 371.118C282.085 379.843 358.699 191.83 550.051 198.846C677.91 203.528 725.681 302.224 825.879 366.48C903.66 416.393 987.038 436.727 1112.14 445.69C1154.76 448.737 1202.76 450.55 1256.58 451.249C1385.04 452.929 1553.12 442.91 1758.44 421.566" stroke="#BED0DB" stroke-width="0.25" stroke-linecap="round" stroke-linejoin="round"/>
<path d="M-278.865 183.746C-194.235 294.69 -74.5469 363.435 66.2074 368.92C284.827 377.615 359.318 200.111 554.172 205.819C683.563 209.594 736.256 300.442 834.119 363.257C910.621 412.397 992.761 437.383 1116.82 449.006C1158.96 452.945 1206.5 455.442 1259.81 456.156C1387.87 457.865 1554.71 444.503 1758.66 409.305" stroke="#BED0DB" stroke-width="0.25" stroke-linecap="round" stroke-linejoin="round"/>
<path d="M-282.831 194.878C-198.89 293.782 -77.95 361.189 66.0106 366.719C287.57 375.384 359.937 208.419 558.292 212.774C689.202 215.658 746.818 298.628 842.346 360.015C917.568 408.397 998.471 438.021 1121.49 452.305C1163.15 457.136 1210.21 460.316 1263.05 461.03C1390.7 462.769 1556.29 446.062 1758.87 397.026" stroke="#BED0DB" stroke-width="0.25" stroke-linecap="round" stroke-linejoin="round"/>
<path d="M-286.796 206.011C-203.545 292.875 -81.339 358.93 65.8139 364.519C290.298 373.155 360.57 217.084 562.413 219.745C694.856 221.975 757.393 296.829 850.573 356.79C924.529 404.398 1004.22 438.407 1126.16 455.619C1167.34 461.253 1213.94 465.206 1266.28 465.935C1393.52 467.704 1557.87 447.637 1759.1 384.778" stroke="#BED0DB" stroke-width="0.25" stroke-linecap="round" stroke-linejoin="round"/>
<path d="M-290.748 217.145C-208.185 291.969 -84.7282 356.671 65.631 362.32C293.054 370.911 361.202 225.29 566.533 226.702C700.509 227.965 767.968 295.016 858.814 353.565C931.49 400.416 1009.95 439.121 1130.84 458.935C1171.53 465.49 1217.68 470.097 1269.52 470.826C1396.35 472.624 1559.45 449.214 1759.32 372.516" stroke="#BED0DB" stroke-width="0.25" stroke-linecap="round" stroke-linejoin="round"/>
<path d="M-294.714 228.277C-212.84 291.062 -88.1315 354.427 65.434 360.105C295.796 368.666 361.835 233.48 570.653 233.658C706.162 233.955 778.543 293.218 867.04 350.324C938.437 396.402 1015.66 439.805 1135.51 462.249C1175.7 469.711 1221.39 474.987 1272.75 475.731C1399.18 477.544 1561.04 450.789 1759.55 360.268" stroke="#BED0DB" stroke-width="0.25" stroke-linecap="round" stroke-linejoin="round"/>
<path d="M-298.679 239.411C-217.495 290.156 -91.5345 352.168 65.2373 357.906C298.525 366.438 362.468 241.67 574.774 240.63C823.333 239.396 875.394 409.736 1140.18 465.565C1278.28 494.683 1483.03 494.504 1759.77 348.006" stroke="#BED0DB" stroke-width="0.25" stroke-linecap="round" stroke-linejoin="round"/>
<path d="M-168.317 525.999C-78.5547 457.09 33.1741 394.469 117.804 435.092C187.499 468.55 177.107 542.409 243.834 579.286C367.643 647.704 490.524 441.662 672.411 467.644C856.563 493.953 879.191 726.379 1025.33 723.079C1179.81 719.586 1221.89 458.383 1403.13 432.446C1513.97 416.586 1616.52 497.356 1685.73 567.915" stroke="#BED0DB" stroke-width="0.25" stroke-miterlimit="10"/>
<path d="M-168.922 532.941C-79.3139 467.08 32.2602 407.357 117.157 447.028C141.837 458.607 156.659 475.062 168.472 493.002C190.101 525.613 201.337 563.204 243.947 585.767C282.592 606.027 321.096 599.754 361.878 582.839C450.825 545.947 547.07 459.707 671.61 478.302C699.75 482.479 724.219 491.337 746.044 503.273C865.944 569.075 901.958 729.263 1025.68 724.848C1039.1 724.403 1051.67 722.039 1063.6 718.1C1187.8 677.136 1239.31 461.55 1405.62 439.15C1516 423.974 1618.56 503.541 1688.88 573.579" stroke="#BED0DB" stroke-width="0.25" stroke-miterlimit="10"/>
<path d="M-169.527 539.897C-80.0876 477.098 31.3317 420.273 116.51 458.979C141.148 470.275 156.111 486.298 168.205 503.57C190.283 535.067 201.843 571.141 244.059 592.292C282.31 611.452 320.533 604.406 361.455 587.595C450.852 550.926 546.395 469.621 670.808 489.004C698.835 493.314 723.319 502.143 745.285 513.871C865.451 578.484 902.282 732.399 1026.01 726.647C1039.37 726.022 1051.92 723.6 1063.85 719.601C1187.39 678.443 1240.97 467.436 1408.08 445.854C1518.02 431.659 1620.58 509.739 1692.02 579.242" stroke="#BED0DB" stroke-width="0.25" stroke-miterlimit="10"/>
<path d="M-170.117 546.855C-80.8329 487.102 30.5162 432.953 115.877 470.915C140.515 481.87 155.605 497.492 167.966 514.11C190.536 544.462 202.405 578.961 244.2 598.774C282.099 616.745 319.984 609.001 361.062 592.308C450.895 555.877 545.734 479.492 670.049 499.647C697.964 504.106 722.461 512.891 744.568 524.41C865.015 587.82 902.647 735.64 1026.39 728.387C1039.69 727.614 1052.22 725.102 1064.14 721.059C1187.01 679.708 1242.64 473.056 1410.58 452.529C1520.09 439.151 1622.63 515.908 1695.18 584.876" stroke="#BED0DB" stroke-width="0.25" stroke-miterlimit="10"/>
<path d="M-170.722 553.809C-81.5921 497.104 29.6304 445.794 115.231 482.864C139.84 493.522 155.084 508.712 167.699 524.676C190.776 553.884 202.954 586.807 244.313 605.298C281.874 622.079 319.422 613.636 360.64 597.063C450.909 560.855 545.059 489.404 669.248 510.347C697.05 514.94 721.589 523.636 743.808 535.007C864.678 596.885 902.985 738.924 1026.72 730.184C1039.97 729.247 1052.47 726.661 1064.4 722.558C1186.6 681.014 1244.27 478.702 1413.06 459.246C1522.11 446.686 1624.67 522.12 1698.32 590.553" stroke="#BED0DB" stroke-width="0.25" stroke-miterlimit="10"/>
<path d="M-171.327 560.749C-82.3658 507.106 28.7301 458.62 114.583 494.799C139.165 505.159 154.564 519.904 167.431 535.213C191.015 563.261 203.502 594.624 244.425 611.777C281.649 627.384 318.859 618.228 360.218 601.774C450.923 565.788 544.37 499.258 668.446 521.004C696.121 525.73 720.703 534.381 743.063 545.559C864.242 606.158 903.308 742.192 1027.06 731.936C1040.25 730.851 1052.73 728.176 1064.66 724.029C1186.19 682.291 1245.92 484.305 1415.53 465.933C1524.12 454.176 1626.7 528.287 1701.47 596.2" stroke="#BED0DB" stroke-width="0.25" stroke-miterlimit="10"/>
<path d="M-171.917 567.708C-83.1111 517.111 27.8442 471.464 113.951 506.751C138.504 516.814 154.058 531.128 167.178 545.783C191.268 572.687 204.079 602.474 244.552 618.289C281.438 632.707 318.297 622.852 359.81 606.517C450.951 570.77 543.653 509.456 667.672 531.693C695.235 536.627 719.831 545.159 742.332 556.158C863.806 615.495 903.66 745.494 1027.43 733.737C1040.56 732.488 1053.01 729.709 1064.95 725.532C1185.72 683.304 1247.57 489.94 1418.02 472.653C1526.16 461.684 1628.75 534.502 1704.62 601.88" stroke="#BED0DB" stroke-width="0.25" stroke-miterlimit="10"/>
<path d="M-172.522 574.664C-83.8702 527.115 26.9444 484.322 113.318 518.702C137.843 528.467 153.566 542.335 166.939 556.337C191.535 582.111 204.67 610.308 244.678 624.8C281.242 638.029 317.749 627.475 359.402 611.259C450.979 575.734 542.978 519.4 666.885 542.38C694.321 547.463 718.959 555.951 741.586 566.742C863.37 624.815 903.997 748.794 1027.76 735.521C1040.84 734.123 1053.26 731.255 1065.2 727.033C1185.3 684.567 1249.18 495.559 1420.49 479.372C1528.19 469.19 1630.78 540.715 1707.76 607.558" stroke="#BED0DB" stroke-width="0.25" stroke-miterlimit="10"/>
<path d="M-173.127 581.604C-84.6437 537.116 26.0444 497.162 112.671 530.636C137.168 540.104 153.045 553.541 166.672 566.889C191.788 591.518 205.232 618.139 244.791 631.294C281.017 643.348 317.186 632.082 358.995 615.999C451.007 580.697 542.303 529.328 666.112 553.051C693.436 558.283 718.088 566.71 740.855 577.308C862.934 634.118 904.349 752.092 1028.13 737.288C1041.14 735.727 1053.54 732.769 1065.48 728.503C1184.89 685.799 1250.83 501.146 1422.98 486.059C1530.21 476.665 1632.83 546.897 1710.92 613.205" stroke="#BED0DB" stroke-width="0.25" stroke-miterlimit="10"/>
<path d="M-173.718 588.56C-85.3892 547.12 25.1582 510.005 112.038 542.586C136.507 551.757 152.553 564.748 166.419 577.442C192.055 600.927 205.823 625.973 244.917 637.804C280.834 648.67 316.637 636.719 358.587 620.74C451.049 585.662 541.628 539.257 665.324 563.738C692.535 569.118 717.215 577.501 740.124 587.891C862.484 643.438 904.686 755.407 1028.49 739.072C1041.45 737.362 1053.82 734.315 1065.78 729.99C1184.51 687.063 1252.49 506.735 1425.49 492.748C1532.25 484.127 1634.88 553.065 1714.08 618.853" stroke="#BED0DB" stroke-width="0.25" stroke-miterlimit="10"/>
<path d="M-174.322 595.517C-86.1484 557.124 24.2444 522.863 111.391 554.538C135.818 563.411 152.047 575.971 166.152 588.011C192.323 610.351 206.399 633.821 245.03 644.315C280.623 653.992 316.061 641.343 358.165 625.483C451.064 590.642 540.939 549.187 664.537 574.425C691.621 579.955 716.33 588.279 739.379 598.475C862.034 652.773 905.01 758.722 1028.83 740.856C1041.73 738.998 1054.09 735.862 1066.03 731.492C1184.09 688.342 1254.1 512.324 1427.96 499.467C1534.26 491.604 1636.92 559.279 1717.22 624.531" stroke="#BED0DB" stroke-width="0.25" stroke-miterlimit="10"/>
<path d="M-174.927 602.458C-86.9219 567.127 23.3302 535.72 110.744 566.473C135.143 575.064 151.555 587.164 165.899 598.549C192.604 619.745 206.99 641.625 245.156 650.796C280.44 659.283 315.513 645.935 357.757 630.194C451.092 595.576 540.264 559.086 663.749 585.083C690.721 590.761 715.444 599.025 738.633 609.043C861.57 662.092 905.347 762.037 1029.18 742.624C1042.02 740.618 1054.36 737.378 1066.3 732.963C1183.66 689.59 1255.72 517.883 1430.44 506.156C1536.29 499.051 1638.95 565.462 1720.37 630.18" stroke="#BED0DB" stroke-width="0.25" stroke-miterlimit="10"/>
<path d="M-175.518 609.415C-87.6674 577.131 22.4441 548.577 110.111 578.424C134.482 586.718 151.062 598.386 165.645 609.118C192.885 629.169 207.595 649.458 245.269 657.321C280.257 664.619 314.95 650.573 357.335 634.951C451.106 600.556 539.574 569.03 662.947 595.77C689.807 601.596 714.544 609.816 737.874 619.626C861.106 671.427 905.657 765.366 1029.52 744.423C1042.3 742.253 1054.61 738.938 1066.56 734.479C1183.26 690.884 1257.34 523.472 1432.93 512.889C1538.31 506.542 1641 571.69 1723.52 635.873" stroke="#BED0DB" stroke-width="0.25" stroke-miterlimit="10"/>
<path d="M-176.122 616.372C-88.4266 587.135 21.5302 561.45 109.465 590.375C133.807 598.387 150.57 609.594 165.378 619.672C193.166 638.579 208.185 657.278 245.381 663.818C280.06 669.912 314.373 655.182 356.913 639.679C451.12 605.522 538.886 578.945 662.16 606.443C688.907 612.404 713.672 620.594 737.129 630.196C860.642 680.762 905.98 768.697 1029.86 746.193C1042.59 743.874 1054.86 740.471 1066.82 735.952C1182.83 692.148 1258.94 529.018 1435.39 519.579C1540.3 513.975 1643.01 577.86 1726.64 641.522" stroke="#BED0DB" stroke-width="0.25" stroke-miterlimit="10"/>
<path d="M-176.727 623.313C-89.2001 597.138 20.602 574.307 108.818 602.31C133.118 610.025 150.078 620.786 165.111 630.225C193.448 647.987 208.79 665.095 245.494 670.327C279.891 675.232 313.811 659.804 356.491 644.42C451.134 610.485 538.196 588.858 661.358 617.13C687.979 623.239 712.772 631.369 736.383 640.778C860.164 690.096 906.304 772.04 1030.21 747.976C1042.88 745.509 1055.13 742.016 1067.08 737.452C1182.43 693.44 1260.56 534.561 1437.86 526.297C1542.31 521.421 1645.05 584.072 1729.79 647.199" stroke="#BED0DB" stroke-width="0.25" stroke-miterlimit="10"/>
<path d="M-177.332 630.269C-89.9598 607.141 19.6877 587.179 108.171 614.26C132.443 621.692 149.586 632.008 164.858 640.778C193.743 657.395 209.409 672.898 245.62 676.822C279.722 680.524 313.262 664.411 356.083 649.146C451.176 615.435 537.521 598.757 660.585 627.801C687.093 634.059 711.9 642.145 735.652 651.346C859.713 699.43 906.641 775.385 1030.58 749.744C1043.19 747.128 1055.41 743.531 1067.36 738.924C1182.03 694.689 1262.19 540.075 1440.37 532.985C1544.35 528.838 1647.1 590.255 1732.96 652.847" stroke="#BED0DB" stroke-width="0.25" stroke-miterlimit="10"/>
<path d="M-177.922 637.225C-90.705 617.144 18.7877 600.066 107.552 626.211C131.782 633.346 149.122 643.215 164.619 651.346C194.052 666.804 210.041 680.702 245.761 683.333C279.582 685.83 312.728 669.049 355.69 653.888C451.218 620.399 536.86 608.672 659.811 638.474C686.207 644.865 711.028 652.921 734.92 661.929C859.263 708.795 906.993 778.744 1030.93 751.528C1043.49 748.763 1055.68 745.077 1067.65 740.425C1181.64 695.982 1263.82 545.619 1442.85 539.703C1546.37 536.285 1649.16 596.468 1736.11 658.525" stroke="#BED0DB" stroke-width="0.25" stroke-miterlimit="10"/>
<path d="M-178.527 644.181C-91.4783 627.147 17.8598 612.938 106.905 638.162C131.107 645.014 148.63 654.408 164.352 661.899C194.348 676.198 210.66 688.505 245.874 689.843C279.413 691.121 312.151 673.671 355.268 658.644C451.232 625.394 536.171 618.601 659.01 649.176C685.293 655.716 710.128 663.727 734.161 672.527C858.772 718.174 907.302 782.133 1031.27 753.327C1043.77 750.428 1055.95 746.638 1067.9 741.926C1181.22 697.275 1265.42 551.134 1445.32 546.407C1548.35 543.702 1651.17 602.652 1739.24 664.188" stroke="#BED0DB" stroke-width="0.25" stroke-miterlimit="10"/>
<path d="M-179.131 651.123C-92.2375 637.151 16.9459 625.81 106.259 650.097C130.418 656.667 148.152 665.6 164.085 672.453C194.643 685.592 211.279 696.279 245.972 696.339C279.245 696.398 311.575 678.279 354.832 663.371C451.233 630.343 535.469 628.5 658.208 659.848C684.379 666.537 709.228 674.489 733.416 683.095C858.308 727.523 907.626 785.492 1031.62 755.096C1044.06 752.049 1056.21 748.169 1068.17 743.398C1180.81 698.554 1267.03 556.619 1447.81 553.096C1550.38 551.104 1653.22 608.835 1742.39 669.837" stroke="#BED0DB" stroke-width="0.25" stroke-miterlimit="10"/>
<path d="M-179.722 658.079C-92.9973 647.154 16.0314 638.711 105.625 662.047C129.757 668.335 147.673 676.807 163.845 683.005C194.98 694.971 211.926 704.052 246.112 702.848C279.118 701.674 311.04 682.901 354.438 668.112C451.274 635.307 534.807 638.399 657.435 670.535C683.479 677.357 708.356 685.279 732.685 693.678C857.843 736.887 907.977 788.88 1031.97 756.879C1044.36 753.683 1056.48 749.714 1068.45 744.898C1180.41 699.846 1268.66 562.118 1450.29 559.814C1552.4 558.521 1655.26 615.048 1745.54 675.514" stroke="#BED0DB" stroke-width="0.25" stroke-miterlimit="10"/>
<path d="M-180.327 665.035C-93.7565 657.157 15.1035 651.598 104.979 673.998C129.068 680.003 147.195 688 163.578 693.574C195.276 704.365 212.559 711.841 246.225 709.359C278.963 706.951 310.464 687.524 354.016 672.854C451.289 640.287 534.118 648.299 656.647 681.207C682.579 688.178 707.47 696.056 731.939 704.246C857.365 746.236 908.301 792.255 1032.32 758.648C1044.65 755.303 1056.75 751.245 1068.71 746.37C1180.01 701.125 1270.26 567.588 1452.78 566.503C1554.41 565.908 1657.31 621.231 1748.71 681.162" stroke="#BED0DB" stroke-width="0.25" stroke-miterlimit="10"/>
<path d="M-180.932 671.977C-94.5159 667.162 14.1753 664.486 104.332 685.935C128.393 691.657 146.717 699.178 163.311 704.113C195.585 713.715 213.192 719.586 246.338 715.841C278.809 712.184 309.901 692.118 353.594 677.566C451.303 645.223 533.443 658.184 655.846 691.865C681.665 698.97 706.57 706.818 731.18 714.815C856.873 755.601 908.624 795.645 1032.66 760.417C1044.93 756.939 1057 752.762 1068.97 747.857C1179.6 702.419 1271.87 573.044 1455.24 573.207C1556.41 573.296 1659.32 627.416 1751.83 686.826" stroke="#BED0DB" stroke-width="0.25" stroke-miterlimit="10"/>
<path d="M-181.522 678.933C-95.2755 677.164 13.261 677.387 103.699 697.87C127.718 703.31 146.253 710.355 163.058 714.666C195.908 723.094 213.824 727.33 246.464 722.351C278.668 717.431 309.353 696.74 353.186 682.307C451.345 650.187 532.768 668.068 655.072 702.552C680.779 709.791 705.712 717.609 730.463 725.398C856.423 764.98 908.975 799.048 1033.02 762.201C1045.23 758.574 1057.3 754.308 1069.25 749.343C1179.21 703.711 1273.48 578.498 1457.73 579.91C1558.42 580.683 1661.38 633.613 1754.98 692.489" stroke="#BED0DB" stroke-width="0.25" stroke-miterlimit="10"/>
<path d="M-182.127 685.891C-96.0346 687.169 12.3331 690.305 103.052 709.821C127.043 714.979 145.761 721.549 162.805 725.22C196.232 732.444 214.471 735.06 246.591 728.847C278.71 722.634 308.804 701.364 352.779 687.035C451.373 655.152 532.093 677.953 654.285 713.225C679.879 720.612 704.826 728.401 729.717 735.967C855.945 774.36 909.313 802.438 1033.37 763.97C1045.53 760.195 1057.56 755.84 1069.53 750.831C1178.81 705.005 1275.11 583.939 1460.24 586.615C1560.46 588.057 1663.43 639.813 1758.14 698.153" stroke="#BED0DB" stroke-width="0.25" stroke-miterlimit="10"/>
<path d="M-182.732 692.832C-96.7941 697.172 11.4049 703.207 102.405 721.757C126.354 726.647 145.283 732.711 162.538 735.773C196.527 741.808 215.104 742.789 246.689 735.357C278.373 727.895 308.214 705.986 352.343 691.776C451.373 660.116 531.404 687.852 653.469 723.897C678.937 731.418 703.898 739.177 728.944 746.535C855.424 783.739 909.622 805.841 1033.7 765.739C1045.79 761.83 1057.8 757.37 1069.77 752.302C1178.39 706.298 1276.69 589.35 1462.68 593.289C1562.43 595.399 1665.44 645.981 1761.26 703.786" stroke="#BED0DB" stroke-width="0.25" stroke-miterlimit="10"/>
<path d="M-183.336 699.788C-97.5673 707.175 10.477 716.123 101.758 733.707C125.665 738.315 144.805 743.889 162.271 746.342C196.837 751.172 215.723 750.518 246.802 741.868C278.218 733.128 307.652 710.609 351.921 696.518C451.387 665.081 530.715 697.737 652.682 734.584C678.037 742.239 703.012 749.968 728.199 757.118C854.947 793.133 909.96 809.275 1034.04 767.523C1046.07 763.465 1058.06 758.916 1070.02 753.803C1177.97 707.606 1278.29 594.79 1465.14 600.007C1564.43 602.787 1667.45 652.179 1764.39 709.464" stroke="#BED0DB" stroke-width="0.25" stroke-miterlimit="10"/>
<path d="M-183.927 706.743C-98.3128 717.178 9.56269 729.039 101.139 745.657C125.018 749.997 144.354 755.081 162.031 756.894C197.174 760.506 216.384 758.217 246.942 748.362C278.077 738.329 307.117 715.216 351.527 701.259C451.429 670.044 530.054 707.62 651.908 745.27C677.151 753.074 702.14 760.759 727.481 767.715C854.496 802.541 910.326 812.723 1034.42 769.335C1046.41 765.143 1058.31 760.357 1070.33 755.318C1178.07 710.103 1279.95 600.214 1467.68 606.739C1566.49 610.173 1669.55 658.406 1767.58 715.156" stroke="#BED0DB" stroke-width="0.25" stroke-miterlimit="10"/>
<path d="M-184.532 713.684C-99.0723 727.18 8.63454 741.955 100.493 757.591C124.329 761.649 143.862 766.227 161.778 767.446C197.484 769.854 217.003 765.915 247.069 754.871C277.937 743.53 306.568 719.837 351.119 705.999C451.457 675.023 529.393 717.504 651.135 755.956C676.265 763.894 701.268 771.563 726.75 778.297C854.018 811.934 910.691 816.155 1034.78 771.117C1046.72 766.792 1058.59 761.917 1070.61 756.804C1177.67 711.38 1281.57 605.609 1470.16 613.442C1568.51 617.529 1671.59 664.603 1770.74 720.818" stroke="#BED0DB" stroke-width="0.25" stroke-miterlimit="10"/>
<path d="M-185.136 720.641C-99.8455 737.184 7.69252 754.887 99.8459 769.543C123.64 773.333 143.384 777.406 161.511 778C197.793 779.189 218.648 776.083 247.182 761.368C276.699 746.147 305.992 724.446 350.698 710.727C451.486 679.973 528.704 727.374 650.333 766.615C675.351 774.686 700.369 782.326 725.991 788.851C853.526 821.314 911.029 819.574 1035.1 772.872C1046.99 768.398 1058.83 763.434 1070.85 758.276C1177.24 712.644 1283.16 610.975 1472.63 620.131C1570.5 624.858 1673.61 670.787 1773.86 726.467" stroke="#BED0DB" stroke-width="0.25" stroke-miterlimit="10"/>
<path d="M-185.727 727.597C-100.591 747.188 6.77825 767.819 99.2129 781.493C122.979 785.001 142.92 788.583 161.258 788.569C198.102 788.524 219.323 783.649 247.308 767.893C275.293 752.137 305.443 729.083 350.29 715.483C451.514 684.953 528.043 737.273 649.545 777.317C674.451 785.522 699.482 793.147 725.245 799.449C853.034 830.752 911.38 823.053 1035.46 774.671C1047.28 770.063 1059.15 765.113 1071.12 759.777C1176.41 712.867 1284.78 616.356 1475.1 626.85C1572.51 632.216 1675.64 676.986 1777 732.145" stroke="#BED0DB" stroke-width="0.25" stroke-miterlimit="10"/>
<path d="M-186.332 734.554C-101.35 757.206 5.8501 780.765 98.566 793.444C122.29 796.685 142.428 799.746 160.991 799.122C198.398 797.859 218.845 788.97 247.406 774.389C277.416 759.079 304.867 733.692 349.854 720.21C451.513 689.918 527.354 747.128 648.744 787.989C673.537 796.328 698.582 803.923 724.486 810.017C852.542 840.146 911.718 826.487 1035.79 776.44C1047.56 771.698 1059.4 766.645 1071.39 761.264C1176.01 714.175 1286.39 621.707 1477.58 633.554C1574.51 639.559 1677.67 683.184 1780.15 737.809" stroke="#BED0DB" stroke-width="0.25" stroke-miterlimit="10"/>
<path d="M-186.936 741.495C-102.124 767.195 4.92215 793.697 97.9193 805.38C121.601 808.353 141.936 810.909 160.738 809.676C198.707 807.179 219.45 796.64 247.533 780.884C277.234 764.222 304.305 738.314 349.446 724.937C451.542 694.867 526.693 756.998 647.957 798.662C672.623 807.134 697.697 814.715 723.755 820.601C852.064 849.57 912.098 829.965 1036.15 778.224C1047.86 773.334 1059.69 768.191 1071.65 762.751C1175.62 715.498 1288.01 627.059 1480.07 640.243C1576.54 646.872 1679.71 689.368 1783.3 743.457" stroke="#BED0DB" stroke-width="0.25" stroke-miterlimit="10"/>
<path d="M-187.527 748.45C-102.869 777.197 3.99358 806.657 97.286 817.329C120.94 820.034 141.471 822.07 160.484 820.227C199.002 816.496 220.04 804.308 247.659 787.393C277.05 769.393 303.756 742.935 349.052 729.677C451.584 699.83 526.046 766.866 647.197 809.332C671.75 817.938 696.838 825.504 723.037 831.167C851.613 858.977 911.535 830.914 1036.52 779.991C1048.27 775.205 1059.98 769.72 1071.95 764.235C1175.25 716.805 1289.65 632.378 1482.57 646.945C1578.57 654.198 1681.78 695.564 1786.46 749.119" stroke="#BED0DB" stroke-width="0.25" stroke-miterlimit="10"/>
<path d="M-188.132 755.407C-103.643 787.216 3.06562 819.604 96.6393 829.281C120.251 831.718 140.979 833.234 160.217 830.797C199.298 825.817 220.617 811.979 247.772 793.905C276.84 774.552 303.193 747.559 348.63 734.42C451.598 704.796 525.371 776.722 646.395 820.02C670.836 828.76 695.939 836.296 722.278 841.751C851.107 868.402 911.915 834.542 1036.86 781.776C1048.55 776.841 1060.23 771.282 1072.22 765.723C1174.87 718.129 1291.29 637.7 1485.04 653.649C1580.59 661.512 1683.81 701.749 1789.61 754.783" stroke="#BED0DB" stroke-width="0.25" stroke-miterlimit="10"/>
<path d="M-188.736 762.349C-104.402 797.205 2.13771 832.551 95.9927 841.217C119.562 843.387 140.487 844.398 159.95 841.336C199.579 835.123 221.194 819.62 247.885 800.401C276.629 779.696 302.631 752.168 348.209 739.147C451.612 709.761 524.696 786.577 645.594 830.693C669.923 839.567 695.039 847.088 721.519 852.32C850.615 877.827 913.195 840.37 1037.19 783.545C1048.75 778.254 1060.49 772.814 1072.46 767.21C1174.45 719.452 1292.88 643.008 1487.5 660.354C1582.58 668.826 1685.83 707.948 1792.74 760.447" stroke="#BED0DB" stroke-width="0.25" stroke-miterlimit="10"/>
<path d="M-189.327 769.305C-105.147 807.208 1.22369 845.527 95.374 853.167C118.915 855.07 140.023 855.56 159.725 851.904C199.903 844.442 221.798 827.289 248.039 806.911C276.446 784.853 302.097 756.79 347.829 743.888C451.683 714.725 524.064 796.447 644.849 841.38C669.065 850.388 694.195 857.894 720.83 862.903C850.179 887.265 913.616 843.862 1037.59 785.329C1049.1 779.903 1060.81 774.359 1072.78 768.696C1174.12 720.775 1294.56 648.284 1490.04 667.057C1584.66 676.139 1687.91 714.146 1795.93 766.11" stroke="#BED0DB" stroke-width="0.25" stroke-miterlimit="10"/>
<path d="M-189.932 776.262C-105.921 817.227 0.295278 858.503 94.7268 865.118C118.226 866.768 139.517 866.723 159.458 862.457C200.184 853.762 222.346 834.944 248.138 813.407C276.193 789.996 301.52 761.398 347.393 748.63C451.682 719.69 523.374 806.302 644.033 852.053C668.136 861.194 693.281 868.685 720.056 873.486C849.673 896.704 913.968 847.356 1037.92 787.112C1049.36 781.553 1061.05 775.905 1073.02 770.182C1173.71 722.113 1296.17 653.561 1492.48 673.761C1586.65 683.452 1689.92 720.329 1799.05 771.773" stroke="#BED0DB" stroke-width="0.25" stroke-miterlimit="10"/>
<path d="M-190.537 783.204C-106.68 827.216 -0.632896 871.465 94.0799 877.054C117.537 878.436 139.024 877.872 159.191 873.011C200.451 863.067 222.881 842.6 248.25 819.917C275.954 795.139 300.957 766.021 346.971 753.372C451.696 724.67 522.699 816.157 643.245 862.74C667.236 872.015 692.395 879.492 719.311 884.07C849.181 906.143 914.362 850.864 1038.25 788.897C1049.65 783.204 1061.32 777.451 1073.28 771.684C1173.31 723.451 1297.8 658.838 1494.97 680.48C1588.67 690.765 1691.96 726.543 1802.2 777.451" stroke="#BED0DB" stroke-width="0.25" stroke-miterlimit="10"/>
<path d="M-191.141 790.159C-107.439 837.218 -1.56088 884.44 93.4332 889.003C116.862 890.133 138.533 889.033 158.938 883.563C200.746 872.37 223.429 850.253 248.377 826.412C275.715 800.281 300.395 770.642 346.563 758.097C451.725 729.618 522.053 825.995 642.458 873.411C666.337 882.82 691.495 890.281 718.566 894.637C848.703 915.58 914.741 854.355 1038.61 790.664C1049.95 784.837 1061.58 778.981 1073.55 773.154C1172.93 724.773 1299.44 664.069 1497.45 687.152C1590.7 698.018 1693.99 732.71 1805.34 783.083" stroke="#BED0DB" stroke-width="0.25" stroke-miterlimit="10"/>
<path d="M-191.732 797.115C-108.199 847.221 -2.47509 897.431 92.8002 900.954C116.187 901.816 138.04 900.196 158.684 894.132C201.027 881.691 223.978 857.923 248.503 832.937C275.476 805.454 299.846 775.28 346.155 762.854C451.753 734.598 521.391 835.865 641.684 884.113C665.45 893.656 690.623 901.103 717.848 905.235C848.238 925.048 915.177 857.879 1038.99 792.463C1050.28 786.503 1061.88 780.557 1073.85 774.671C1172.57 726.126 1301.12 669.331 1499.96 693.886C1592.76 705.346 1696.07 738.938 1808.53 788.777" stroke="#BED0DB" stroke-width="0.25" stroke-miterlimit="10"/>
<path d="M-192.337 804.073C-108.958 857.241 -3.40331 910.424 92.1532 912.891C115.512 913.5 137.548 911.345 158.417 904.671C201.294 890.982 224.498 865.579 248.616 839.419C275.208 810.583 299.284 779.874 345.733 767.567C451.767 739.549 520.815 845.468 640.883 894.757C664.564 904.374 689.723 911.865 717.089 915.774C847.746 934.458 915.557 861.358 1039.31 794.218C1050.55 788.124 1062.13 782.089 1074.1 776.129C1172.26 727.628 1302.75 674.534 1502.42 700.561C1594.76 712.601 1698.08 745.093 1811.65 794.411" stroke="#BED0DB" stroke-width="0.25" stroke-miterlimit="10"/>
<path d="M-192.941 811.013C-109.718 867.229 -4.31719 923.414 91.5066 924.826C114.823 925.168 137.042 922.492 158.15 915.224C201.548 900.286 225.019 873.248 248.728 845.914C274.927 815.725 298.722 784.482 345.312 772.293C451.795 744.498 520.126 855.352 640.081 905.429C663.651 915.194 688.823 922.715 716.33 926.342C847.212 944.149 915.951 864.865 1039.65 795.986C1050.84 789.758 1062.4 783.619 1074.35 777.614C1171.85 728.921 1304.38 679.736 1504.89 707.264C1596.77 719.883 1700.11 751.291 1814.77 800.074" stroke="#BED0DB" stroke-width="0.25" stroke-miterlimit="10"/>
<path d="M-193.532 817.97C-110.477 877.232 -5.23116 936.613 90.8738 936.776C114.162 936.91 136.55 933.655 157.911 925.777C201.843 909.59 225.553 880.903 248.855 852.424C274.66 820.883 298.159 789.104 344.904 777.035C451.823 749.462 519.465 865.237 639.308 916.116C662.751 926.015 687.951 933.506 715.598 936.94C846.762 953.543 916.499 868.67 1040.01 797.785C1051.16 791.438 1062.68 785.18 1074.64 779.116C1171.46 730.228 1306.05 684.938 1507.39 713.982C1598.83 727.166 1702.16 757.503 1817.95 805.752" stroke="#BED0DB" stroke-width="0.25" stroke-miterlimit="10"/>
<path d="M-194.137 824.926C-111.237 887.25 -6.14556 949.515 90.2266 948.727C113.472 948.578 136.029 944.788 157.644 936.345C202.082 918.851 226.059 888.603 248.967 858.935C274.379 826.041 297.596 793.727 344.482 781.776C451.837 754.427 518.776 875.136 638.506 926.803C661.836 936.851 687.051 944.298 714.839 947.523C846.284 962.922 916.836 872.074 1040.34 799.568C1051.43 793.088 1062.92 786.726 1074.89 780.617C1171.05 731.537 1307.73 689.858 1509.85 720.701C1600.86 734.331 1704.18 763.717 1821.07 811.43" stroke="#BED0DB" stroke-width="0.25" stroke-miterlimit="10"/>
<path d="M-194.741 831.868C-92.1251 912.95 44.6213 993.72 157.391 946.884C252.3 907.465 254.677 808.992 344.074 786.503C472.791 754.13 542.275 939.556 714.108 958.092C857.604 973.565 929.493 857.255 1075.17 782.089C1213.25 710.832 1441.73 664.129 1824.24 817.063" stroke="#BED0DB" stroke-width="0.25" stroke-miterlimit="10"/>
<path d="M-266.518 745.793C-172.775 665.171 -54.8028 589.975 39.5584 628.815C117.255 660.802 110.125 741.795 184.813 777.691C323.345 844.281 445.354 612.405 644.666 629.156C846.466 646.131 884.225 897.508 1043.01 884.681C1210.85 871.125 1241.83 584.342 1437.5 544.67C1557.16 520.413 1673.27 601.777 1752.56 674.149" stroke="#BED0DB" stroke-width="0.25" stroke-miterlimit="10"/>
<path d="M-267.98 749.331C-174.238 672.039 -56.2652 600.024 38.3351 637.793C65.8278 648.837 82.886 665.796 96.7519 684.554C122.121 718.667 136.479 758.844 184.11 780.694C227.283 800.284 268.81 791.039 312.222 770.051C406.892 724.3 506.696 624.415 643.203 636.767C674.043 639.532 701.17 647.618 725.583 659.226C859.714 723.23 907.963 895.175 1042.28 882.556C1056.85 881.218 1070.4 877.859 1083.14 872.82C1215.92 820.395 1259.74 582.648 1439.37 547.777C1558.56 524.292 1674.64 604.364 1755.09 676.097" stroke="#BED0DB" stroke-width="0.25" stroke-miterlimit="10"/>
<path d="M-269.443 752.868C-175.7 678.905 -57.7278 610.056 37.1116 646.755C64.548 657.486 81.7327 673.97 95.8658 691.985C121.657 724.849 136.268 763.361 183.392 783.695C226.087 802.111 267.249 792.034 310.829 771.165C405.992 725.637 505.303 631.148 641.741 644.362C672.468 647.29 699.609 655.331 724.163 666.702C858.532 729.383 907.302 894.475 1041.55 880.385C1056.03 878.868 1069.56 875.435 1082.31 870.337C1214.35 817.748 1260.7 584.862 1441.24 550.823C1560.03 528.424 1675.99 606.875 1757.64 677.969" stroke="#BED0DB" stroke-width="0.25" stroke-miterlimit="10"/>
<path d="M-270.905 756.39C-177.163 685.757 -59.1056 619.821 35.8885 655.718C63.2968 666.078 80.594 682.116 94.9802 699.417C121.249 731.003 136.114 767.791 182.69 786.698C224.934 803.851 265.702 793.03 309.438 772.28C405.078 726.975 503.926 637.881 640.278 651.957C670.893 655.034 698.048 663.045 722.742 674.178C857.337 735.536 906.641 893.94 1040.81 878.229C1055.23 876.535 1068.73 873.027 1081.47 867.869C1212.77 815.117 1261.6 586.824 1443.09 553.885C1561.45 532.407 1677.34 609.417 1760.15 679.856" stroke="#BED0DB" stroke-width="0.25" stroke-miterlimit="10"/>
<path d="M-272.368 759.929C-178.625 692.625 -60.5542 629.781 34.6508 664.681C62.017 674.715 79.4548 690.277 94.0801 706.835C120.828 737.143 135.945 772.192 181.972 789.686C223.781 805.576 264.141 794.012 308.045 773.381C404.178 728.284 502.547 644.615 638.816 659.553C669.318 662.794 696.515 670.701 721.322 681.671C856.297 741.334 905.994 893.421 1040.08 876.075C1054.44 874.217 1067.9 870.62 1080.64 865.403C1211.21 812.488 1262.5 588.772 1444.98 556.948C1562.88 536.392 1678.72 611.959 1762.7 681.745" stroke="#BED0DB" stroke-width="0.25" stroke-miterlimit="10"/>
<path d="M-273.83 763.465C-180.102 699.491 -62.0027 639.739 33.4272 673.658C60.7512 683.364 78.3297 698.436 93.194 714.281C120.434 743.31 135.804 776.635 181.269 792.688C222.642 807.299 262.594 795.006 306.653 774.494C403.278 729.62 501.155 651.347 637.353 667.148C667.729 670.551 694.954 678.399 719.902 689.146C855.129 747.412 905.333 892.885 1039.35 873.919C1053.64 871.897 1067.07 868.211 1079.8 862.934C1209.62 809.84 1263.39 590.718 1446.83 560.024C1564.29 540.359 1680.05 614.5 1765.23 683.646" stroke="#BED0DB" stroke-width="0.25" stroke-miterlimit="10"/>
<path d="M-275.293 767.005C-181.565 706.36 -63.4513 649.699 32.2037 682.638C59.4714 692.032 77.2045 706.613 92.3079 721.73C120.026 749.48 135.649 781.066 180.566 795.707C221.503 809.055 261.047 796.004 305.275 775.626C402.392 730.975 499.763 658.425 635.905 674.775C666.154 678.402 693.407 686.131 718.495 696.669C853.99 753.523 904.686 892.411 1038.63 871.795C1052.85 869.61 1066.23 865.79 1078.98 860.499C1207.95 806.929 1264.29 592.697 1448.72 563.118C1565.72 544.345 1681.43 617.073 1767.78 685.566" stroke="#BED0DB" stroke-width="0.25" stroke-miterlimit="10"/>
<path d="M-276.755 770.542C-183.027 713.227 -64.8997 659.658 30.9803 691.6C58.2058 700.667 76.0937 714.758 91.4221 729.146C119.632 755.619 135.509 785.466 179.863 798.694C220.378 810.779 259.5 796.985 303.897 776.726C401.506 732.298 498.385 665.202 634.456 682.355C664.593 686.16 691.86 693.815 717.089 704.131C852.837 759.602 904.04 891.891 1037.93 869.625C1052.06 867.276 1065.42 863.367 1078.18 858.016C1206.4 804.224 1265.2 594.614 1450.62 566.164C1567.17 548.283 1682.82 619.585 1770.33 687.439" stroke="#BED0DB" stroke-width="0.25" stroke-miterlimit="10"/>
<path d="M-278.218 774.079C-184.49 720.094 -66.3483 669.631 29.7567 700.578C56.9401 709.332 74.9686 722.933 90.536 736.593C119.252 761.787 135.382 789.909 179.16 801.711C219.253 812.532 257.953 797.995 302.504 777.855C400.592 733.635 496.992 671.994 632.994 689.965C663.018 693.934 690.313 701.544 715.683 711.621C851.67 765.696 903.393 891.4 1037.21 867.469C1051.28 864.957 1064.61 860.944 1077.35 855.548C1204.81 801.548 1266.09 596.531 1452.49 569.226C1568.59 552.222 1684.17 622.126 1772.87 689.326" stroke="#BED0DB" stroke-width="0.25" stroke-miterlimit="10"/>
<path d="M-279.681 777.615C-185.952 726.959 -67.8109 679.603 28.5332 709.539C55.6603 717.966 73.8575 731.091 89.664 744.023C118.886 767.939 135.27 794.322 178.47 804.712C218.142 814.254 256.406 798.989 301.14 778.953C399.72 734.956 495.628 678.756 631.559 697.558C661.456 701.691 688.78 709.241 714.29 719.111C850.531 771.803 902.76 890.907 1036.51 865.327C1050.5 862.651 1063.79 858.549 1076.55 853.094C1203.27 798.9 1267 598.446 1454.39 572.301C1570.04 556.174 1685.56 624.681 1775.44 691.226" stroke="#BED0DB" stroke-width="0.25" stroke-miterlimit="10"/>
<path d="M-281.143 781.154C-187.414 733.828 -69.2731 689.578 27.3101 718.518C54.3809 726.634 72.7469 739.253 88.7784 751.456C118.507 774.109 135.143 798.738 177.754 807.716C217.017 815.995 254.846 799.987 299.734 780.069C398.806 736.295 494.222 685.535 630.083 705.155C659.868 709.466 687.206 716.957 712.856 726.589C849.335 777.899 902.085 890.418 1035.77 863.158C1049.69 860.319 1062.91 856.023 1075.7 850.613C1202.03 797.162 1267.87 600.335 1456.26 575.364C1571.44 560.099 1686.93 627.209 1777.97 693.116" stroke="#BED0DB" stroke-width="0.25" stroke-miterlimit="10"/>
<path d="M-282.605 784.69C-188.877 740.693 -70.7216 699.55 26.0865 727.494C53.1152 735.297 71.6358 747.426 87.8924 758.901C118.141 780.275 135.031 803.151 177.05 810.731C215.92 817.732 253.299 800.996 298.356 781.197C397.92 737.646 492.844 692.311 628.634 712.779C658.293 717.253 685.659 724.685 711.45 734.108C848.168 784.036 901.438 889.985 1035.05 861.045C1048.9 858.043 1062.09 853.643 1074.87 848.188C1200.47 794.589 1268.74 602.266 1458.13 578.469C1572.85 564.051 1688.28 629.794 1780.5 695.046" stroke="#BED0DB" stroke-width="0.25" stroke-miterlimit="10"/>
<path d="M-284.068 788.23C-190.34 747.562 -72.1843 709.541 24.8629 736.459C51.8353 743.936 70.5388 755.574 87.0063 766.335C117.776 786.431 134.918 807.568 176.347 813.736C214.809 819.459 251.752 801.994 296.978 782.314C397.034 738.986 491.48 699.091 627.186 720.376C656.731 725.014 684.112 732.401 710.043 741.587C847.001 790.147 900.791 889.512 1034.33 858.878C1048.11 855.712 1061.26 851.223 1074.06 845.708C1198.94 791.976 1269.63 604.126 1460.01 581.518C1574.27 567.948 1689.66 632.323 1783.06 696.921" stroke="#BED0DB" stroke-width="0.25" stroke-miterlimit="10"/>
<path d="M-285.531 791.768C-191.802 754.43 -73.6608 719.53 23.6396 745.437C50.5698 752.602 69.442 763.749 86.1205 773.768C117.41 792.585 134.82 811.968 175.644 816.724C213.712 821.169 250.205 802.975 295.585 783.414C396.12 740.294 490.088 705.84 625.723 727.972C655.157 732.773 682.551 740.101 708.623 749.064C845.82 796.257 900.13 889.037 1033.6 856.723C1047.31 853.408 1060.47 848.919 1073.21 843.256C1196.92 788.275 1270.49 606.014 1461.87 584.596C1575.66 571.857 1691.01 634.865 1785.58 698.824" stroke="#BED0DB" stroke-width="0.25" stroke-miterlimit="10"/>
<path d="M-286.993 795.305C-193.265 761.297 -75.1234 729.518 22.416 754.4C49.29 761.252 68.331 771.895 85.2344 781.2C117.058 798.724 134.721 816.367 174.941 819.727C212.629 822.893 248.658 803.971 294.207 784.529C395.234 741.632 488.709 712.603 624.275 735.568C653.581 740.532 681.004 747.815 707.217 756.555C844.652 802.381 899.469 888.591 1032.88 854.567C1046.52 851.089 1059.66 846.496 1072.4 840.789C1195.36 785.614 1271.37 607.872 1463.75 587.672C1577.08 575.766 1692.38 637.422 1788.12 700.727" stroke="#BED0DB" stroke-width="0.25" stroke-miterlimit="10"/>
<path d="M-288.442 798.841C-194.713 768.162 -76.5719 739.519 21.2066 763.376C48.0243 769.916 67.2481 780.053 84.3625 788.644C116.721 804.89 134.637 820.765 174.252 822.742C211.56 824.615 247.125 804.965 292.829 785.656C394.348 742.982 487.331 719.379 622.826 743.176C652.02 748.304 679.457 755.527 705.81 764.044C843.471 808.517 898.822 888.158 1032.17 852.425C1045.74 848.783 1058.83 844.101 1071.58 838.334C1193.8 782.966 1272.24 609.728 1465.64 590.747C1578.5 579.658 1693.75 639.961 1790.67 702.627" stroke="#BED0DB" stroke-width="0.25" stroke-miterlimit="10"/>
<path d="M-289.904 802.38C-196.176 775.031 -78.0484 749.524 19.9832 772.355C46.7447 778.583 66.1654 788.215 83.4767 796.093C116.37 811.046 134.553 825.166 173.549 825.761C210.478 826.326 245.578 805.977 291.451 786.788C393.462 744.337 485.953 726.158 621.378 750.802C650.46 756.094 677.91 763.273 704.404 771.567C842.304 814.687 898.175 887.758 1031.45 850.301C1044.95 846.511 1058.01 841.725 1070.75 835.898C1192.23 780.352 1273.12 611.603 1467.52 593.84C1579.92 583.569 1695.13 642.534 1793.23 704.546" stroke="#BED0DB" stroke-width="0.25" stroke-miterlimit="10"/>
<path d="M-291.366 805.918C-197.638 781.898 -79.5108 759.528 18.7599 781.318C45.4651 787.249 65.0686 796.361 82.5908 803.51C116.032 817.17 134.468 829.522 172.846 828.749C209.409 828.021 244.032 806.958 290.073 787.888C392.577 745.645 484.575 732.892 619.929 758.383C648.885 763.838 676.363 770.973 703.012 779.029C841.137 820.797 897.543 887.298 1030.75 848.131C1044.18 844.178 1057.21 839.287 1069.95 833.416C1190.68 777.692 1274 613.401 1469.42 596.888C1581.35 587.434 1696.52 645.061 1795.79 706.419" stroke="#BED0DB" stroke-width="0.25" stroke-miterlimit="10"/>
<path d="M-292.829 809.455C-199.101 788.764 -80.9875 769.531 17.5363 790.295C44.1993 795.914 63.9716 804.505 81.7047 810.956C115.694 823.308 134.384 833.891 172.128 831.766C208.326 829.729 242.47 807.968 288.667 789.017C391.648 746.997 483.183 739.654 618.453 766.008C647.295 771.626 674.788 778.716 701.578 786.535C839.927 826.964 896.868 886.896 1030 845.99C1043.36 841.888 1056.35 836.894 1069.11 830.963C1189.09 775.06 1274.85 615.229 1471.28 599.964C1582.74 591.298 1697.86 647.602 1798.31 708.321" stroke="#BED0DB" stroke-width="0.25" stroke-miterlimit="10"/>
<path d="M-294.292 812.993C-200.577 795.632 -82.4642 779.55 16.3127 799.259C42.9195 804.565 62.8886 812.651 80.8187 818.389C115.357 829.433 134.314 838.247 171.425 834.769C207.257 831.41 240.909 808.965 287.288 790.133C390.762 748.336 481.805 746.403 617.004 773.604C645.72 779.386 673.241 786.432 700.171 794.027C838.746 833.104 896.221 886.495 1029.28 843.851C1042.57 839.585 1055.54 834.501 1068.28 828.511C1187.52 772.43 1275.7 617.043 1473.15 603.056C1584.13 595.193 1699.22 650.175 1800.85 710.24" stroke="#BED0DB" stroke-width="0.25" stroke-miterlimit="10"/>
<path d="M-295.754 816.529C-202.04 802.498 -83.9409 789.566 15.0892 808.235C41.6397 813.245 61.8057 820.795 79.9327 825.819C115.033 835.555 134.243 842.586 170.722 837.77C206.188 833.073 239.362 809.96 285.896 791.246C389.862 749.672 480.412 753.15 615.541 781.198C644.145 787.129 671.68 794.145 698.751 801.502C837.551 839.256 895.559 886.077 1028.55 841.679C1041.77 837.264 1054.71 832.077 1067.45 826.027C1185.94 769.783 1276.56 618.811 1475.02 606.102C1585.54 599.027 1700.58 652.7 1803.38 712.111" stroke="#BED0DB" stroke-width="0.25" stroke-miterlimit="10"/>
<path d="M-297.217 820.068C-203.502 809.366 -85.4173 799.586 13.8658 817.2C40.3601 821.896 60.7089 828.927 79.0468 833.252C114.696 841.665 134.173 846.927 170.019 840.774C205.134 834.739 237.815 810.957 284.518 792.362C388.976 750.996 479.034 759.899 614.093 788.81C642.584 794.904 670.119 801.875 697.345 809.01C836.369 845.426 894.913 885.707 1027.83 839.555C1040.98 834.991 1053.89 829.7 1066.62 823.591C1184.38 767.168 1277.42 620.625 1476.89 609.195C1586.93 602.893 1701.93 655.258 1805.91 714.03" stroke="#BED0DB" stroke-width="0.25" stroke-miterlimit="10"/>
<path d="M-298.679 823.605C-204.965 816.232 -86.8938 809.618 12.6425 826.176C39.0805 830.576 59.6262 837.071 78.1609 840.698C114.373 847.788 134.103 851.266 169.316 843.775C204.065 836.388 236.269 811.952 283.14 793.476C388.09 752.333 477.67 766.632 612.645 796.404C641.009 802.662 668.572 809.588 695.939 816.485C835.188 851.579 894.28 885.305 1027.13 837.398C1040.21 832.687 1053.08 827.276 1065.82 821.122C1182.83 764.536 1278.31 622.378 1478.8 612.256C1588.36 606.726 1703.34 657.799 1808.49 715.916" stroke="#BED0DB" stroke-width="0.25" stroke-miterlimit="10"/>
<path d="M-300.142 827.142C-206.427 823.1 -88.3703 819.651 11.4192 835.154C37.801 839.256 58.5436 845.202 77.2752 848.13C114.035 853.883 134.033 855.577 168.613 846.778C203.01 838.038 234.722 812.947 281.748 794.591C387.177 753.67 476.278 773.38 611.182 804.014C639.435 810.436 667.012 817.317 694.518 823.976C833.979 857.762 893.633 884.933 1026.4 835.243C1039.41 830.368 1052.25 824.868 1064.99 818.655C1181.27 761.905 1279.15 624.132 1480.67 615.333C1589.77 610.561 1704.7 660.34 1811.03 717.819" stroke="#BED0DB" stroke-width="0.25" stroke-miterlimit="10"/>
<path d="M-301.604 830.665C-207.89 829.952 -89.847 829.669 10.1815 844.102C36.507 847.907 57.4465 853.303 76.375 855.547C113.698 859.962 133.948 859.858 167.895 849.765C201.927 839.658 233.161 813.929 280.356 795.691C386.276 754.993 474.9 780.098 609.72 811.595C637.859 818.165 665.45 825.017 693.098 831.453C832.783 863.916 892.986 884.547 1025.67 833.088C1038.61 828.064 1051.42 822.46 1064.14 816.188C1179.68 759.274 1279.99 625.871 1482.53 618.395C1591.15 614.381 1706.04 662.882 1813.55 719.707" stroke="#BED0DB" stroke-width="0.25" stroke-miterlimit="10"/>
<path d="M-303.067 834.203C-209.353 836.819 -91.3237 839.717 8.95795 853.08C35.2272 856.588 56.3636 861.433 75.4889 862.994C113.36 866.056 133.878 864.154 167.192 852.783C200.859 841.293 231.614 814.924 278.963 796.82C385.376 756.346 473.508 786.847 608.257 819.205C636.27 825.939 663.889 832.761 691.677 838.944C831.574 870.099 892.339 884.19 1024.94 830.933C1037.8 825.76 1050.59 820.053 1063.31 813.721C1178.12 756.643 1280.85 627.595 1484.4 621.457C1592.54 618.202 1707.4 665.424 1816.08 721.594" stroke="#BED0DB" stroke-width="0.25" stroke-miterlimit="10"/>
<path d="M-304.53 837.74C-210.815 843.685 -92.8004 849.765 7.73434 862.042C33.9473 865.253 55.2665 869.549 74.6028 870.411C113.022 872.12 134.918 871.288 166.489 855.77C198.651 839.955 230.067 815.905 277.585 797.92C384.49 757.654 472.143 793.55 606.808 826.8C634.709 833.682 662.328 840.475 690.285 846.435C830.407 876.282 891.72 883.833 1024.23 828.792C1037.03 823.471 1049.77 817.659 1062.5 811.267C1176.58 754.042 1281.72 629.319 1486.28 624.533C1593.96 622.021 1708.78 667.965 1818.64 723.496" stroke="#BED0DB" stroke-width="0.25" stroke-miterlimit="10"/>
<path d="M-305.992 841.278C-212.278 850.553 -94.2909 859.813 6.51103 871.021C32.6678 873.934 54.1839 877.68 73.7311 877.858C112.713 878.215 134.918 875.465 165.786 858.788C197.484 841.665 228.52 816.916 276.207 799.05C383.604 759.007 470.765 800.299 605.36 834.411C633.148 841.457 660.782 848.22 688.879 853.927C829.211 882.481 889.878 880.221 1023.52 826.637C1036.37 821.48 1048.96 815.252 1061.68 808.801C1175.02 751.411 1282.6 631.014 1488.17 627.596C1595.37 625.812 1710.15 670.507 1821.19 725.385" stroke="#BED0DB" stroke-width="0.25" stroke-miterlimit="10"/>
<path d="M-307.455 844.815C-213.74 857.42 -95.7676 869.876 5.28747 879.998C31.388 882.614 53.0868 885.795 72.845 885.304C112.375 884.294 134.89 879.611 165.083 861.805C196.33 843.373 226.973 817.926 274.815 800.179C382.69 760.359 469.387 807.031 603.898 842.036C631.559 849.23 659.221 855.963 687.459 861.448C828.016 888.708 889.245 879.998 1022.79 824.526C1035.57 819.22 1048.13 812.888 1060.85 806.392C1173.45 748.854 1283.44 632.753 1490.05 630.731C1596.79 629.691 1711.52 673.123 1823.73 727.346" stroke="#BED0DB" stroke-width="0.25" stroke-miterlimit="10"/>
<path d="M-308.917 848.352C-215.202 864.286 -97.2439 879.938 4.06432 888.96C30.1086 891.279 52.0043 893.91 71.9594 892.721C112.038 890.343 133.526 881.216 164.38 864.792C196.541 847.668 225.412 818.907 273.437 801.263C381.804 761.666 468.009 813.719 602.449 849.601C629.998 856.958 657.674 863.662 686.053 868.894C826.821 894.861 889.85 882.792 1022.07 822.326C1034.67 816.558 1047.31 810.434 1060.02 803.88C1171.89 746.193 1284.3 634.372 1491.92 633.748C1598.18 633.421 1712.89 675.605 1826.26 729.189" stroke="#BED0DB" stroke-width="0.25" stroke-miterlimit="10"/>
<path d="M-310.379 851.892C-216.665 871.155 -98.7206 890.003 2.84079 897.94C28.8288 899.961 50.9073 902.028 71.0734 900.17C111.687 896.424 133.428 885.469 163.677 867.796C195.445 849.246 223.865 819.905 272.044 802.38C380.904 762.991 466.631 820.44 600.987 857.198C628.423 864.704 656.099 871.378 684.632 876.373C825.626 901.047 889.217 882.452 1021.34 820.172C1033.87 814.257 1046.48 808.029 1059.19 801.414C1170.33 743.579 1285.15 636.024 1493.79 636.812C1599.57 637.213 1714.24 678.148 1828.81 731.078" stroke="#BED0DB" stroke-width="0.25" stroke-miterlimit="10"/>
<path d="M-311.842 855.428C-218.128 878.021 -100.197 900.079 1.61716 906.901C27.5489 908.64 49.8103 910.127 70.1873 907.6C111.349 902.472 133.315 889.704 162.973 870.797C194.333 850.805 222.318 820.899 270.666 803.493C380.018 764.327 465.267 827.157 599.538 864.807C626.862 872.462 654.552 879.121 683.226 883.877C824.43 907.273 888.613 882.153 1020.62 818.03C1033.08 811.981 1045.65 805.634 1058.38 798.96C1168.8 740.991 1286.03 637.687 1495.67 639.887C1600.99 641.002 1715.62 680.688 1831.35 732.979" stroke="#BED0DB" stroke-width="0.25" stroke-miterlimit="10"/>
<path d="M-313.305 858.966C-219.59 884.889 -101.688 910.157 0.393626 915.88C26.2691 917.321 48.7133 918.243 69.3012 915.033C110.997 908.537 133.188 893.941 162.27 873.8C193.222 852.366 220.771 821.896 269.288 804.609C379.132 765.666 463.903 833.861 598.09 872.403C625.287 880.221 653.005 886.851 681.819 891.354C823.249 913.472 888.008 881.827 1019.9 815.876C1032.31 809.678 1044.84 803.227 1057.55 796.493C1167.24 738.376 1286.88 639.308 1497.54 642.965C1602.38 644.778 1716.98 683.246 1833.88 734.883" stroke="#BED0DB" stroke-width="0.25" stroke-miterlimit="10"/>
<path d="M-314.767 862.504C-221.053 891.756 -103.165 920.25 -0.829711 924.858C24.9895 926.017 47.6166 926.359 68.4154 922.48C110.646 914.602 133.048 898.192 161.567 876.818C192.097 853.928 219.225 822.907 267.896 805.739C378.218 767.019 462.525 840.58 596.627 880.028C623.712 887.995 651.444 894.61 680.399 898.876C822.039 919.715 887.389 881.545 1019.17 813.751C1031.5 807.404 1044.01 800.849 1056.72 794.056C1165.68 735.805 1287.76 640.958 1499.42 646.057C1603.79 648.569 1718.33 685.818 1836.43 736.8" stroke="#BED0DB" stroke-width="0.25" stroke-miterlimit="10"/>
<path d="M-316.23 866.04C-222.529 898.622 -104.641 930.341 -2.05334 933.819C23.7097 934.696 46.5195 934.459 67.5293 929.91C110.28 920.65 132.907 902.412 160.864 879.819C190.958 855.487 217.678 823.901 266.518 806.853C377.332 768.34 461.16 847.282 595.179 887.623C622.151 895.738 649.883 902.338 678.993 906.351C820.844 925.927 886.798 881.231 1018.45 811.594C1030.72 805.099 1043.19 798.44 1055.89 791.587C1164.13 733.202 1288.61 642.548 1501.29 649.117C1605.2 652.328 1719.69 688.343 1838.96 738.687" stroke="#BED0DB" stroke-width="0.25" stroke-miterlimit="10"/>
<path d="M-317.692 869.579C-223.992 905.49 -106.117 940.435 -3.27639 942.798C22.4304 943.393 45.423 942.575 66.6437 937.343C109.929 926.686 132.767 906.649 160.147 882.822C189.791 857.034 216.117 824.883 265.112 807.968C376.419 769.679 459.769 853.987 593.702 895.234C620.562 903.498 648.308 910.083 677.573 913.843C819.649 932.155 886.194 880.935 1017.72 809.44C1029.93 802.81 1042.36 796.032 1055.06 789.121C1162.57 730.602 1289.49 644.124 1503.17 652.18C1606.6 656.074 1721.07 690.886 1841.51 740.575" stroke="#BED0DB" stroke-width="0.25" stroke-miterlimit="10"/>
<path d="M-319.141 873.116C-225.44 912.357 -107.58 950.542 -4.48608 951.761C21.1644 952.073 44.3258 950.676 65.7715 944.775C109.577 932.735 132.612 910.87 159.458 885.825C188.652 858.579 214.584 825.879 263.747 809.083C375.546 771.016 458.432 860.69 592.268 902.829C619.015 911.257 646.775 917.812 676.18 921.334C818.467 938.383 885.631 880.652 1017.03 807.299C1029.17 800.521 1041.57 793.639 1054.27 786.668C1161.06 728.015 1290.4 645.714 1505.08 655.257C1608.05 659.835 1722.48 693.442 1844.08 742.478" stroke="#BED0DB" stroke-width="0.25" stroke-miterlimit="10"/>
<path d="M-320.603 876.654C-226.903 919.224 -109.043 960.649 -5.70936 960.739C19.8849 960.753 43.2291 958.776 64.8858 952.222C109.212 938.799 132.443 915.121 158.755 888.842C187.485 860.14 213.037 826.89 262.369 810.212C374.661 772.369 457.069 867.394 590.82 910.439C617.44 919.016 645.228 925.556 674.774 928.826C817.286 944.626 885.055 880.37 1016.32 805.144C1028.4 798.217 1040.76 791.231 1053.44 784.201C1159.52 725.414 1291.27 647.26 1506.95 658.334C1609.46 663.595 1723.83 695.984 1846.63 744.38" stroke="#BED0DB" stroke-width="0.25" stroke-miterlimit="10"/>
<path d="M-322.066 880.193C-228.365 926.092 -110.519 970.758 -6.93297 969.703C18.6191 969.45 42.118 966.879 63.9997 959.64C108.832 944.821 132.274 919.329 158.052 891.816C186.304 861.658 211.476 827.857 260.977 811.299C373.746 773.678 455.704 874.054 589.357 918.021C615.865 926.746 643.667 933.272 673.354 936.304C816.091 950.855 884.464 880.089 1015.59 802.99C1027.6 795.93 1039.93 788.839 1052.61 781.735C1157.97 722.814 1292.14 648.807 1508.82 661.397C1610.86 667.328 1725.19 698.527 1849.16 746.269" stroke="#BED0DB" stroke-width="0.25" stroke-miterlimit="10"/>
<path d="M-323.528 883.73C-229.828 932.959 -111.996 980.88 -8.15655 978.68C17.3393 978.145 41.0069 974.994 63.1136 967.086C108.466 950.87 132.092 923.58 157.348 894.833C185.122 863.233 209.929 828.867 259.599 812.428C372.86 775.016 454.34 880.757 587.908 925.631C614.304 934.505 642.106 941.015 671.947 943.795C814.895 957.098 883.901 879.806 1014.87 800.834C1026.82 793.625 1039.1 786.431 1051.78 779.267C1156.42 720.227 1293.02 650.323 1510.69 664.458C1612.28 671.058 1726.56 701.053 1851.69 748.157" stroke="#BED0DB" stroke-width="0.25" stroke-miterlimit="10"/>
<path d="M-324.991 887.266C-231.291 939.825 -113.459 991.001 -9.38011 987.657C16.0594 986.839 39.8958 983.094 62.2275 974.532C108.086 956.933 131.894 927.83 156.645 897.85C183.927 864.792 208.382 829.877 258.206 813.557C371.96 776.367 453.046 887.222 586.432 933.255C612.729 942.233 640.531 948.788 670.513 951.3C813.686 963.355 883.311 879.567 1014.12 798.708C1026.01 791.365 1038.27 784.082 1050.94 776.828C1154.96 717.863 1293.89 651.853 1512.55 667.549C1613.68 674.803 1727.89 703.624 1854.22 750.073" stroke="#BED0DB" stroke-width="0.25" stroke-miterlimit="10"/>
<path d="M-326.453 890.804C-232.753 946.692 -114.921 1001.14 -10.6033 996.62C14.78 995.52 38.7852 991.194 61.3419 981.964C107.707 962.968 131.698 932.066 155.942 900.852C182.732 866.353 206.835 830.873 256.828 814.671C371.074 777.705 451.682 893.955 584.983 940.851C611.168 949.977 638.984 956.577 669.107 958.791C812.491 969.88 882.748 879.299 1013.41 796.552C1025.23 789.061 1037.45 781.674 1050.12 774.361C1153.41 715.232 1294.79 653.354 1514.45 670.626C1615.11 678.533 1729.29 706.18 1856.78 751.976" stroke="#BED0DB" stroke-width="0.25" stroke-miterlimit="10"/>
<path d="M-327.916 894.341C-234.216 953.558 -116.384 1011.48 -11.8268 1005.6C13.5143 1004.27 37.7164 999.428 60.4559 989.395C107.229 968.779 131.487 936.316 155.239 903.853C181.522 867.913 205.288 831.868 255.45 815.785C370.188 779.042 450.304 900.687 583.535 948.445C609.607 957.735 637.437 964.29 667.7 966.267C811.31 976.032 882.369 879.298 1012.69 794.396C1024.46 786.786 1036.64 779.25 1049.29 771.907C1151.84 712.615 1295.67 654.839 1516.32 673.702C1616.53 682.263 1730.65 708.721 1859.31 753.877" stroke="#BED0DB" stroke-width="0.25" stroke-miterlimit="10"/>
<path d="M-329.378 897.879C-235.678 960.426 -117.846 1021.52 -13.0501 1014.56C12.2347 1012.94 36.5493 1007.38 59.5701 996.828C106.919 974.993 131.276 940.568 154.522 906.857C180.299 869.474 203.728 832.865 254.044 816.901C369.26 780.366 448.912 907.422 582.058 956.056C608.004 965.51 635.863 972.02 666.266 973.774C810.1 982.216 881.722 878.928 1011.94 792.257C1023.66 784.498 1035.79 776.858 1048.45 769.455C1150.26 709.985 1296.57 656.015 1518.18 676.779C1617.94 685.861 1731.99 711.278 1861.83 755.781" stroke="#BED0DB" stroke-width="0.25" stroke-miterlimit="10"/>
<path d="M-330.841 901.418C-214.64 983.124 -61.3137 1062.33 58.6839 1004.26C159.697 955.374 156.701 848.116 252.666 818.017C390.847 774.659 476.911 971.962 664.874 981.252C821.829 989.01 893.45 857.956 1047.65 766.974C1193.82 680.734 1439.69 615.482 1864.4 757.67" stroke="#BED0DB" stroke-width="0.25" stroke-miterlimit="10"/>
</g>
</svg>
