<svg width="1025" height="690" viewBox="0 0 1025 690" fill="none" xmlns="http://www.w3.org/2000/svg">
<path d="M-141.6 -25.8799C-71.5996 210.73 -4.34961 275.12 50.1804 278.12C163.9 284.38 246.84 25.0001 335.83 45.0601C406.04 60.8801 373.54 226.66 476.42 288.16C574.96 347.06 679.91 239.92 850.22 241.3C947.1 242.08 1083.41 278.13 1247.76 440.61" stroke="#BED0DB" stroke-width="0.25" stroke-linecap="round" stroke-linejoin="round"/>
<path d="M-144.41 -18.3896C-74.9097 210.13 -6.75968 273.61 50.0503 276.64C165.86 282.88 247.3 30.5204 338.76 49.7504C410.06 64.9204 381.06 225.45 482.28 285.99C553.93 328.85 629.09 285.35 731.39 260.04C767.94 250.96 807.97 244.23 852.52 244.6C949.11 245.4 1084.53 279.2 1247.92 432.37" stroke="#BED0DB" stroke-width="0.25" stroke-linecap="round" stroke-linejoin="round"/>
<path d="M-147.229 -10.8994C-78.2195 209.521 -9.17948 272.091 49.9105 275.161C167.811 281.381 247.791 35.8206 341.691 54.4306C414.111 68.7806 388.58 224.241 488.13 283.821C558.87 326.161 633.151 285.821 734.711 262.271C770.911 253.801 810.61 247.521 854.82 247.891C951.12 248.711 1085.66 280.261 1248.08 424.121" stroke="#BED0DB" stroke-width="0.25" stroke-linecap="round" stroke-linejoin="round"/>
<path d="M-150.05 -3.41016C-81.5298 208.91 -11.5998 270.58 49.7702 273.68C169.75 279.88 248.25 41.2498 344.62 59.1198C418.14 72.7598 396.09 223.03 493.98 281.65C563.81 323.48 637.21 286.3 738.03 264.5C773.89 256.65 813.26 250.81 857.11 251.19C953.12 252.03 1086.77 281.32 1248.23 415.88" stroke="#BED0DB" stroke-width="0.25" stroke-linecap="round" stroke-linejoin="round"/>
<path d="M-152.87 4.08008C-84.8396 208.3 -14.0096 269.06 49.6304 272.2C171.7 278.37 248.71 46.6801 347.55 63.8001C422.17 76.7301 403.61 221.81 499.84 279.47C568.77 320.78 641.28 286.76 741.36 266.72C776.87 259.48 815.92 254.09 859.42 254.47C955.14 255.33 1087.91 282.37 1248.4 407.62" stroke="#BED0DB" stroke-width="0.25" stroke-linecap="round" stroke-linejoin="round"/>
<path d="M-155.689 11.5703C-88.1495 207.69 -16.4295 267.54 49.4905 270.72C173.651 276.87 249.161 52.1303 350.471 68.4903C426.181 80.7203 411.121 220.61 505.681 277.3C573.701 318.1 645.381 287.45 744.671 268.96C779.851 262.41 818.55 257.39 861.701 257.78C957.131 258.65 1089.01 283.44 1248.54 399.38" stroke="#BED0DB" stroke-width="0.25" stroke-linecap="round" stroke-linejoin="round"/>
<path d="M-158.51 19.0605C-91.4598 207.081 -18.8497 266.031 49.3503 269.241C175.59 275.371 249.62 57.5905 353.4 73.1805C430.2 84.7205 418.64 219.401 511.53 275.131C578.64 315.411 649.44 287.961 747.99 271.191C782.82 265.261 821.2 260.681 864 261.081C959.13 261.971 1090.14 284.511 1248.7 391.141" stroke="#BED0DB" stroke-width="0.25" stroke-linecap="round" stroke-linejoin="round"/>
<path d="M-161.33 26.5498C-94.7696 206.47 -21.2696 264.51 49.2104 267.75C177.54 273.86 250.06 63.0498 356.33 77.8498C434.22 88.6998 426.16 218.17 517.39 272.94C583.59 312.7 653.51 288.44 751.32 273.4C785.81 268.1 823.85 263.95 866.31 264.35C961.15 265.26 1091.27 285.55 1248.87 382.87" stroke="#BED0DB" stroke-width="0.25" stroke-linecap="round" stroke-linejoin="round"/>
<path d="M-164.14 34.04C-98.0696 205.86 -23.6697 263 49.0803 266.27C179.5 272.36 250.52 68.53 359.27 82.54C438.25 92.72 433.69 216.96 523.25 270.77C588.54 310.02 657.58 288.95 754.65 275.63C788.79 270.95 826.51 267.24 868.61 267.65C963.16 268.58 1092.4 286.61 1249.03 374.63" stroke="#BED0DB" stroke-width="0.25" stroke-linecap="round" stroke-linejoin="round"/>
<path d="M-166.959 41.5303C-101.379 205.26 -26.0895 261.48 48.9405 264.79C181.441 270.86 250.971 74.0103 362.191 87.2303C442.261 96.7403 441.191 215.76 529.101 268.6C593.491 307.33 661.641 289.44 757.971 277.86C791.761 273.8 829.151 270.53 870.911 270.94C965.171 271.89 1093.53 287.67 1249.19 366.38" stroke="#BED0DB" stroke-width="0.25" stroke-linecap="round" stroke-linejoin="round"/>
<path d="M-169.78 49.0205C-104.69 204.651 -28.5098 259.971 48.8002 263.311C183.39 269.361 251.41 79.5105 365.12 91.9105C446.28 100.761 448.71 214.541 534.95 266.421C598.43 304.641 665.7 289.931 761.29 280.091C794.73 276.651 831.8 273.821 873.21 274.241C967.18 275.211 1094.65 288.741 1249.34 358.141" stroke="#BED0DB" stroke-width="0.25" stroke-linecap="round" stroke-linejoin="round"/>
<path d="M-172.6 56.5098C-108 204.04 -30.9296 258.45 48.6604 261.83C185.34 267.86 251.85 85.0198 368.05 96.5998C450.29 104.8 456.23 213.33 540.8 264.25C603.37 301.95 669.76 290.42 764.61 282.32C797.71 279.49 834.45 277.11 875.5 277.53C969.18 278.51 1095.77 289.79 1249.49 349.89" stroke="#BED0DB" stroke-width="0.25" stroke-linecap="round" stroke-linejoin="round"/>
<path d="M-175.42 64C-111.31 203.43 -33.3499 256.94 48.5201 260.35C187.28 266.36 252.29 90.54 370.97 101.28C454.3 108.83 463.74 212.11 546.65 262.08C608.31 299.27 673.81 290.9 767.93 284.55C800.68 282.34 837.09 280.4 877.8 280.83C971.19 281.83 1096.89 290.86 1249.65 341.65" stroke="#BED0DB" stroke-width="0.25" stroke-linecap="round" stroke-linejoin="round"/>
<path d="M-178.24 71.4902C-114.62 202.82 -35.7597 255.42 48.3803 258.87C189.23 264.86 252.74 96.0602 373.9 105.97C458.31 112.87 471.26 210.91 552.5 259.91C613.26 296.58 677.87 291.38 771.25 286.78C803.65 285.18 839.74 283.69 880.1 284.13C973.2 285.15 1098.02 291.93 1249.81 333.4" stroke="#BED0DB" stroke-width="0.25" stroke-linecap="round" stroke-linejoin="round"/>
<path d="M-181.06 78.9805C-117.93 202.21 -38.1796 253.9 48.2404 257.39C191.18 263.36 253.18 101.59 376.83 110.66C462.33 116.93 478.78 209.7 558.35 257.74C618.2 293.9 681.92 291.86 774.57 289.01C806.62 288.03 842.381 286.98 882.391 287.42C975.201 288.46 1099.13 292.98 1249.96 325.15" stroke="#BED0DB" stroke-width="0.25" stroke-linecap="round" stroke-linejoin="round"/>
<path d="M-183.88 86.4697C-121.25 201.6 -40.5999 252.39 48.1001 255.9C193.12 261.85 253.62 107.12 379.76 115.33C466.34 120.97 486.29 208.47 564.21 255.55C623.15 291.19 685.99 292.31 777.9 291.23C809.6 290.86 845.04 290.26 884.7 290.71C977.22 291.77 1100.27 294.04 1250.13 316.9" stroke="#BED0DB" stroke-width="0.25" stroke-linecap="round" stroke-linejoin="round"/>
<path d="M-186.689 93.9502C-124.549 200.98 -43.0095 250.86 47.9706 254.41C195.081 260.34 254.071 112.66 382.691 120.01C470.351 125.02 493.811 207.26 570.061 253.37C628.091 288.5 690.041 292.76 781.211 293.45C812.561 293.69 847.68 293.54 886.99 293.99C979.21 295.07 1101.38 295.08 1250.28 308.64" stroke="#BED0DB" stroke-width="0.25" stroke-linecap="round" stroke-linejoin="round"/>
<path d="M-189.51 101.44C-127.86 200.37 -45.4198 249.35 47.8302 252.93C197.03 258.84 254.51 118.22 385.62 124.7C474.37 129.09 501.33 206.05 575.91 251.2C633.03 285.81 694.1 293.22 784.53 295.68C815.54 296.52 850.32 296.83 889.28 297.29C981.21 298.38 1102.5 296.15 1250.43 300.4" stroke="#BED0DB" stroke-width="0.25" stroke-linecap="round" stroke-linejoin="round"/>
<path d="M-192.33 108.93C-131.17 199.77 -47.8396 247.83 47.6904 251.45C198.97 257.34 254.95 123.78 388.55 129.38C478.38 133.15 508.85 204.83 581.77 249.02C637.99 283.11 698.16 293.66 787.86 297.9C818.52 299.35 852.98 300.11 891.59 300.58C983.23 301.69 1103.64 297.21 1250.6 292.15" stroke="#BED0DB" stroke-width="0.25" stroke-linecap="round" stroke-linejoin="round"/>
<path d="M-195.15 116.42C-134.48 199.16 -50.2599 246.32 47.5501 249.97C200.92 255.84 255.4 129.35 391.47 134.07C482.39 137.22 516.36 203.62 587.61 246.85C642.92 280.43 702.21 294.11 791.17 300.14C821.48 302.19 855.61 303.41 893.88 303.88C985.23 305.01 1104.75 298.27 1250.75 283.91" stroke="#BED0DB" stroke-width="0.25" stroke-linecap="round" stroke-linejoin="round"/>
<path d="M-197.97 123.91C-137.79 198.55 -52.6797 244.8 47.4103 248.49C202.87 254.34 255.84 134.92 394.4 138.76C486.41 141.3 523.88 202.42 593.47 244.68C647.87 277.74 706.28 294.55 794.5 302.37C824.46 305.02 858.27 306.7 896.18 307.18C987.24 308.33 1105.88 299.34 1250.91 275.66" stroke="#BED0DB" stroke-width="0.25" stroke-linecap="round" stroke-linejoin="round"/>
<path d="M-200.79 131.4C-141.1 197.94 -55.0996 243.29 47.2704 247.01C204.82 252.84 256.28 140.51 397.33 143.44C490.42 145.38 531.39 201.2 599.32 242.5C652.81 275.05 710.34 294.98 797.82 304.59C827.44 307.84 860.91 309.98 898.48 310.46C989.25 311.63 1107 300.39 1251.06 267.4" stroke="#BED0DB" stroke-width="0.25" stroke-linecap="round" stroke-linejoin="round"/>
<path d="M-203.61 138.89C-144.41 197.33 -57.5099 241.77 47.1301 245.53C206.76 251.34 256.73 146.34 400.26 148.13C494.44 149.63 538.91 199.99 605.17 240.33C657.76 272.36 714.43 295.24 801.14 306.82C830.42 310.61 863.56 313.27 900.78 313.76C991.26 314.95 1108.13 301.45 1251.22 259.16" stroke="#BED0DB" stroke-width="0.25" stroke-linecap="round" stroke-linejoin="round"/>
<path d="M-206.42 146.38C-147.71 196.72 -59.9199 240.25 47.0001 244.05C208.72 249.83 257.18 151.86 403.19 152.81C498.46 153.66 546.43 198.77 611.03 238.16C662.71 269.68 718.5 295.72 804.47 309.05C833.4 313.46 866.22 316.56 903.08 317.05C993.27 318.26 1109.25 302.51 1251.38 250.91" stroke="#BED0DB" stroke-width="0.25" stroke-linecap="round" stroke-linejoin="round"/>
<path d="M-209.24 153.87C-151.02 196.11 -62.3398 238.74 46.8602 242.56C210.67 248.32 257.63 157.37 406.12 157.49C502.48 157.69 553.95 197.56 616.88 235.98C667.65 266.98 722.56 296.18 807.79 311.28C836.37 316.3 868.86 319.85 905.38 320.35C995.28 321.57 1110.38 303.57 1251.54 242.67" stroke="#BED0DB" stroke-width="0.25" stroke-linecap="round" stroke-linejoin="round"/>
<path d="M-212.06 161.36C-154.33 195.5 -64.7596 237.22 46.7204 241.08C212.61 246.82 258.08 162.88 409.05 162.18C585.8 161.35 622.82 275.95 811.11 313.51C909.31 333.1 1054.91 332.98 1251.7 234.42" stroke="#BED0DB" stroke-width="0.25" stroke-linecap="round" stroke-linejoin="round"/>
<path d="M-119.36 354.17C-55.5299 307.81 23.9201 265.68 84.1001 293.01C133.66 315.52 126.27 365.21 173.72 390.02C261.76 436.05 349.14 297.43 478.48 314.91C609.43 332.61 625.52 488.98 729.44 486.76C839.29 484.41 869.21 308.68 998.09 291.23C1076.91 280.56 1149.83 334.9 1199.05 382.37" stroke="#BED0DB" stroke-width="0.25" stroke-miterlimit="10"/>
<path d="M-119.79 358.84C-56.07 314.53 23.27 274.35 83.64 301.04C101.19 308.83 111.73 319.9 120.13 331.97C135.51 353.91 143.5 379.2 173.8 394.38C201.28 408.01 228.66 403.79 257.66 392.41C320.91 367.59 389.35 309.57 477.91 322.08C497.92 324.89 515.32 330.85 530.84 338.88C616.1 383.15 641.71 490.92 729.69 487.95C739.23 487.65 748.17 486.06 756.65 483.41C844.97 455.85 881.6 310.81 999.86 295.74C1078.35 285.53 1151.28 339.06 1201.29 386.18" stroke="#BED0DB" stroke-width="0.25" stroke-miterlimit="10"/>
<path d="M-120.22 363.52C-56.6197 321.27 22.6103 283.04 83.1803 309.08C100.7 316.68 111.34 327.46 119.94 339.08C135.64 360.27 143.86 384.54 173.88 398.77C201.08 411.66 228.26 406.92 257.36 395.61C320.93 370.94 388.87 316.24 477.34 329.28C497.27 332.18 514.68 338.12 530.3 346.01C615.75 389.48 641.94 493.03 729.92 489.16C739.42 488.74 748.35 487.11 756.83 484.42C844.68 456.73 882.78 314.77 1001.61 300.25C1079.79 290.7 1152.72 343.23 1203.52 389.99" stroke="#BED0DB" stroke-width="0.25" stroke-miterlimit="10"/>
<path d="M-120.64 368.2C-57.1501 328 22.0299 291.57 82.7299 317.11C100.25 324.48 110.98 334.99 119.77 346.17C135.82 366.59 144.26 389.8 173.98 403.13C200.93 415.22 227.87 410.01 257.08 398.78C320.96 374.27 388.4 322.88 476.8 336.44C496.65 339.44 514.07 345.35 529.79 353.1C615.44 395.76 642.2 495.21 730.19 490.33C739.65 489.81 748.56 488.12 757.04 485.4C844.41 457.58 883.97 318.55 1003.39 304.74C1081.26 295.74 1154.18 347.38 1205.77 393.78" stroke="#BED0DB" stroke-width="0.25" stroke-miterlimit="10"/>
<path d="M-121.07 372.88C-57.6898 334.73 21.4002 300.21 82.2702 325.15C99.7702 332.32 110.61 342.54 119.58 353.28C135.99 372.93 144.65 395.08 174.06 407.52C200.77 418.81 227.47 413.13 256.78 401.98C320.97 377.62 387.92 329.55 476.23 343.64C496 346.73 513.45 352.58 529.25 360.23C615.2 401.86 642.44 497.42 730.43 491.54C739.85 490.91 748.74 489.17 757.22 486.41C844.12 458.46 885.13 322.35 1005.15 309.26C1082.7 300.81 1155.63 351.56 1208 397.6" stroke="#BED0DB" stroke-width="0.25" stroke-miterlimit="10"/>
<path d="M-121.5 377.55C-58.24 341.46 20.76 308.84 81.81 333.18C99.29 340.15 110.24 350.07 119.39 360.37C136.16 379.24 145.04 400.34 174.14 411.88C200.61 422.38 227.07 416.22 256.48 405.15C320.98 380.94 387.43 336.18 475.66 350.81C495.34 353.99 512.82 359.81 528.72 367.33C614.89 408.1 642.67 499.62 730.67 492.72C740.05 491.99 748.92 490.19 757.41 487.4C843.83 459.32 886.3 326.12 1006.91 313.76C1084.13 305.85 1157.07 355.71 1210.24 401.4" stroke="#BED0DB" stroke-width="0.25" stroke-miterlimit="10"/>
<path d="M-121.92 382.231C-58.7699 348.191 20.1301 317.481 81.3601 341.221C98.8201 347.991 109.88 357.621 119.21 367.481C136.34 385.581 145.45 405.621 174.23 416.261C200.46 425.961 226.67 419.331 256.19 408.341C321 384.291 386.92 343.041 475.11 358.001C494.71 361.321 512.2 367.061 528.2 374.461C614.58 414.381 642.92 501.841 730.93 493.931C740.27 493.091 749.12 491.22 757.61 488.41C843.49 460 887.47 329.911 1008.68 318.281C1085.58 310.901 1158.53 359.891 1212.48 405.221" stroke="#BED0DB" stroke-width="0.25" stroke-miterlimit="10"/>
<path d="M-122.35 386.911C-59.3101 354.921 19.4899 326.131 80.9099 349.261C98.3499 355.831 109.53 365.161 119.04 374.581C136.53 391.921 145.87 410.891 174.32 420.641C200.32 429.541 226.28 422.441 255.9 411.531C321.02 387.631 386.44 349.731 474.55 365.191C494.06 368.611 511.58 374.321 527.67 381.581C614.27 420.651 643.16 504.061 731.17 495.131C740.47 494.191 749.3 492.261 757.79 489.421C843.19 460.851 888.62 333.691 1010.44 322.801C1087.02 315.951 1159.97 364.071 1214.71 409.041" stroke="#BED0DB" stroke-width="0.25" stroke-miterlimit="10"/>
<path d="M-122.78 391.58C-59.8598 361.65 18.8502 334.77 80.4502 357.29C97.8702 363.66 109.16 372.7 118.85 381.68C136.71 398.25 146.27 416.16 174.4 425.01C200.16 433.12 225.88 425.54 255.61 414.72C321.04 390.97 385.96 356.41 474 372.37C493.43 375.89 510.96 381.56 527.15 388.69C613.96 426.91 643.41 506.28 731.43 496.32C740.68 495.27 749.5 493.28 757.99 490.41C842.9 461.68 889.79 337.45 1012.21 327.3C1088.46 320.98 1161.43 368.23 1216.96 412.84" stroke="#BED0DB" stroke-width="0.25" stroke-miterlimit="10"/>
<path d="M-123.2 396.26C-60.3897 368.38 18.2203 343.41 80.0003 365.33C97.4003 371.5 108.81 380.24 118.67 388.78C136.9 404.58 146.69 421.43 174.49 429.39C200.03 436.7 225.49 428.66 255.32 417.91C321.07 394.31 385.48 363.09 473.44 379.56C492.79 383.18 510.34 388.82 526.63 395.81C613.64 433.18 643.65 508.51 731.69 497.52C740.9 496.37 749.7 494.32 758.2 491.41C842.63 462.53 890.97 341.21 1013.99 331.8C1089.91 326 1162.89 372.38 1219.21 416.64" stroke="#BED0DB" stroke-width="0.25" stroke-miterlimit="10"/>
<path d="M-123.63 400.94C-60.9299 375.11 17.5701 352.06 79.5401 373.37C96.9101 379.34 108.45 387.79 118.48 395.89C137.09 410.92 147.1 426.71 174.57 433.77C199.88 440.28 225.08 431.77 255.02 421.1C321.08 397.66 384.99 369.77 472.88 386.75C492.14 390.47 509.71 396.07 526.1 402.93C613.32 439.46 643.88 510.74 731.93 498.72C741.1 497.47 749.89 495.36 758.38 492.42C842.33 463.39 892.12 344.97 1015.75 336.32C1091.34 331.03 1164.34 376.56 1221.44 420.46" stroke="#BED0DB" stroke-width="0.25" stroke-miterlimit="10"/>
<path d="M-124.06 405.61C-61.4801 381.84 16.9199 360.71 79.0799 381.4C96.4299 387.18 108.1 395.32 118.3 402.98C137.29 417.24 147.52 431.96 174.66 438.13C199.75 443.84 224.69 434.86 254.73 424.27C321.1 400.98 384.51 376.43 472.32 393.92C491.5 397.74 509.08 403.3 525.57 410.04C612.99 445.73 644.12 512.97 732.18 499.91C741.31 498.56 750.08 496.38 758.57 493.41C842.03 464.23 893.27 348.71 1017.51 340.82C1092.78 336.04 1165.78 380.72 1223.68 424.26" stroke="#BED0DB" stroke-width="0.25" stroke-miterlimit="10"/>
<path d="M-124.48 410.29C-62.01 388.57 16.29 369.36 78.63 389.44C95.96 395.02 107.75 402.87 118.12 410.09C137.49 423.58 147.95 437.23 174.74 442.52C199.62 447.43 224.29 437.98 254.43 427.47C321.11 404.33 384.02 383.12 471.75 401.11C490.85 405.03 508.44 410.56 525.03 417.16C612.66 452.01 644.34 515.21 732.42 501.12C741.51 499.66 750.26 497.43 758.76 494.43C841.74 465.1 894.42 352.47 1019.28 345.35C1094.22 341.08 1167.24 384.91 1225.92 428.09" stroke="#BED0DB" stroke-width="0.25" stroke-miterlimit="10"/>
<path d="M-124.91 414.97C-62.5497 395.3 15.6404 378.02 78.1703 397.48C95.4803 402.87 107.4 410.41 117.93 417.19C137.69 429.91 148.37 442.49 174.82 446.89C199.48 450.99 223.88 441.08 254.13 430.65C321.12 407.67 383.53 389.79 471.19 408.29C490.21 412.3 507.82 417.81 524.5 424.27C612.33 458.29 644.57 517.45 732.66 502.31C741.71 500.75 750.44 498.46 758.94 495.42C841.44 465.95 895.56 356.2 1021.03 349.85C1095.63 346.08 1168.67 389.06 1228.14 431.89" stroke="#BED0DB" stroke-width="0.25" stroke-miterlimit="10"/>
<path d="M-125.34 419.64C-63.0998 402.03 14.9801 386.67 77.7101 405.51C94.9901 410.7 107.05 417.94 117.74 424.29C137.89 436.24 148.8 447.75 174.9 451.27C199.36 454.57 223.48 444.19 253.83 433.84C321.13 411.01 383.04 396.46 470.62 415.48C489.55 419.59 507.18 425.06 523.97 431.39C611.99 464.57 644.8 519.7 732.91 503.51C741.92 501.85 750.63 499.5 759.13 496.43C841.15 466.82 896.71 359.93 1022.79 354.37C1097.06 351.09 1170.12 393.24 1230.38 435.71" stroke="#BED0DB" stroke-width="0.25" stroke-miterlimit="10"/>
<path d="M-125.77 424.32C-63.64 408.76 14.33 395.33 77.25 413.55C94.51 418.55 106.7 425.49 117.56 431.39C138.1 442.57 149.24 453 174.99 455.64C199.24 458.13 223.09 447.29 253.54 437.02C321.16 414.34 382.56 403.12 470.07 422.66C488.92 426.87 506.56 432.31 523.45 438.5C611.67 470.85 645.04 521.95 733.17 504.7C742.14 502.94 750.83 500.52 759.33 497.42C840.87 467.66 897.87 363.64 1024.57 358.87C1098.51 356.08 1171.58 397.4 1232.63 439.51" stroke="#BED0DB" stroke-width="0.25" stroke-miterlimit="10"/>
<path d="M-126.19 429C-64.1699 415.49 13.6901 404 76.8101 421.59C94.0401 426.39 106.37 433.03 117.39 438.5C138.32 448.9 149.69 458.25 175.09 460.02C199.14 461.7 222.71 450.41 253.26 440.21C321.19 417.68 382.09 409.79 469.52 429.84C488.29 434.14 505.94 439.56 522.93 445.62C611.35 477.15 645.29 524.21 733.42 505.9C742.35 504.04 751.02 501.56 759.53 498.43C840.59 468.53 899.03 367.37 1026.34 363.39C1099.95 361.09 1173.04 401.58 1234.87 443.33" stroke="#BED0DB" stroke-width="0.25" stroke-miterlimit="10"/>
<path d="M-126.62 433.68C-64.7201 422.22 13.0299 412.66 76.3499 429.63C93.5599 434.24 106.02 440.56 117.2 445.6C138.53 455.22 150.13 463.5 175.17 464.4C199.02 465.26 222.3 453.52 252.96 443.41C321.2 421.04 381.6 416.47 468.95 437.04C487.64 441.44 505.3 446.83 522.39 452.75C611 483.46 645.51 526.49 733.66 507.11C742.55 505.16 751.21 502.61 759.71 499.44C840.29 469.4 900.17 371.08 1028.09 367.9C1101.36 366.08 1174.47 405.74 1237.1 447.14" stroke="#BED0DB" stroke-width="0.25" stroke-miterlimit="10"/>
<path d="M-127.05 438.35C-65.2598 428.95 12.3802 421.32 75.8902 437.66C93.0702 442.08 105.68 448.09 117.01 452.7C138.74 461.54 150.57 468.73 175.24 468.77C198.9 468.81 221.89 456.62 252.65 446.59C321.2 424.37 381.1 423.13 468.38 444.22C486.99 448.72 504.66 454.07 521.86 459.86C610.67 489.75 645.74 528.75 733.91 508.3C742.76 506.25 751.4 503.64 759.9 500.43C840 470.26 901.31 374.77 1029.86 372.4C1102.8 371.06 1175.93 409.9 1239.34 450.94" stroke="#BED0DB" stroke-width="0.25" stroke-miterlimit="10"/>
<path d="M-127.47 443.03C-65.7997 435.68 11.7303 430 75.4403 445.7C92.6003 449.93 105.34 455.63 116.84 459.8C138.98 467.85 151.03 473.96 175.34 473.15C198.81 472.36 221.51 459.73 252.37 449.78C321.23 427.71 380.63 429.79 467.83 451.41C486.35 456 504.04 461.33 521.34 466.98C610.34 496.05 645.99 531.03 734.16 509.5C742.97 507.35 751.59 504.68 760.1 501.44C839.72 471.13 902.47 378.47 1031.63 376.92C1104.24 376.05 1177.38 414.08 1241.58 454.76" stroke="#BED0DB" stroke-width="0.25" stroke-miterlimit="10"/>
<path d="M-127.9 447.71C-66.3399 442.41 11.0701 438.67 74.9801 453.74C92.1101 457.78 105 463.16 116.65 466.91C139.19 474.17 151.48 479.2 175.42 477.53C198.7 475.91 221.1 462.84 252.07 452.97C321.24 431.06 380.14 436.45 467.27 458.59C485.71 463.28 503.41 468.58 520.81 474.09C610 502.34 646.22 533.3 734.41 510.69C743.18 508.44 751.78 505.71 760.29 502.43C839.43 471.99 903.61 382.15 1033.4 381.42C1105.67 381.02 1178.84 418.24 1243.83 458.56" stroke="#BED0DB" stroke-width="0.25" stroke-miterlimit="10"/>
<path d="M-128.33 452.38C-66.8801 449.14 10.4099 447.34 74.5199 461.77C91.6299 465.62 104.66 470.68 116.46 474C139.41 480.46 151.93 484.41 175.5 481.89C198.59 479.43 220.7 465.93 251.77 456.14C321.25 434.38 379.66 443.1 466.7 465.76C485.06 470.54 502.77 475.82 520.27 481.2C609.65 508.64 646.45 535.58 734.65 511.88C743.38 509.54 751.96 506.73 760.47 503.43C839.14 472.86 904.75 385.82 1035.15 385.93C1107.09 385.99 1180.27 422.4 1246.05 462.37" stroke="#BED0DB" stroke-width="0.25" stroke-miterlimit="10"/>
<path d="M-128.75 457.061C-67.42 455.871 9.76001 456.021 74.07 469.801C91.15 473.461 104.33 478.201 116.28 481.101C139.64 486.771 152.38 489.621 175.59 486.271C198.49 482.961 220.31 469.041 251.48 459.331C321.28 437.721 379.18 449.751 466.15 472.951C484.43 477.821 502.16 483.081 519.76 488.321C609.33 514.951 646.7 537.871 734.91 513.081C743.59 510.641 752.17 507.771 760.67 504.431C838.86 473.731 905.9 389.491 1036.92 390.441C1108.52 390.961 1181.73 426.571 1248.29 466.181" stroke="#BED0DB" stroke-width="0.25" stroke-miterlimit="10"/>
<path d="M-129.18 461.74C-67.9597 462.6 9.10029 464.71 73.6103 477.84C90.6703 481.31 103.98 485.73 116.1 488.2C139.87 493.06 152.84 494.82 175.68 490.64C198.52 486.46 219.92 472.15 251.19 462.51C321.3 441.06 378.7 456.4 465.59 480.13C483.79 485.1 501.53 490.34 519.23 495.43C608.99 521.26 646.94 540.15 735.16 514.27C743.8 511.73 752.36 508.8 760.87 505.43C838.58 474.6 907.06 393.15 1038.7 394.95C1109.97 395.92 1183.19 430.74 1250.54 469.99" stroke="#BED0DB" stroke-width="0.25" stroke-miterlimit="10"/>
<path d="M-129.61 466.41C-68.4999 469.33 8.44013 473.39 73.1501 485.87C90.1801 489.16 103.64 493.24 115.91 495.3C140.08 499.36 153.29 500.02 175.75 495.02C198.28 490 219.5 475.26 250.88 465.7C321.3 444.4 378.21 463.06 465.01 487.31C483.12 492.37 500.87 497.59 518.68 502.54C608.62 527.57 647.16 542.44 735.39 515.46C743.99 512.83 752.53 509.83 761.04 506.42C838.28 475.47 908.18 396.79 1040.44 399.44C1111.37 400.86 1184.62 434.89 1252.76 473.78" stroke="#BED0DB" stroke-width="0.25" stroke-miterlimit="10"/>
<path d="M-130.04 471.091C-69.05 476.061 7.77997 482.08 72.69 493.91C89.69 497.01 103.3 500.76 115.72 502.41C140.3 505.66 153.73 505.221 175.83 499.401C198.17 493.521 219.1 478.371 250.58 468.891C321.31 447.741 377.72 469.711 464.45 494.501C482.48 499.651 500.24 504.85 518.15 509.66C608.28 533.89 647.4 544.75 735.63 516.66C744.19 513.93 752.71 510.871 761.22 507.431C837.98 476.351 909.32 400.451 1042.19 403.961C1112.79 405.831 1186.05 439.061 1254.98 477.601" stroke="#BED0DB" stroke-width="0.25" stroke-miterlimit="10"/>
<path d="M-130.46 475.77C-69.58 482.79 7.13003 490.77 72.25 501.95C89.23 504.87 102.98 508.29 115.55 509.51C140.54 511.94 154.2 510.4 175.93 503.77C198.07 497.02 218.72 481.47 250.3 472.08C321.34 451.08 377.25 476.36 463.9 501.69C481.85 506.94 499.62 512.11 517.64 516.79C607.96 540.22 647.66 547.07 735.9 517.88C744.43 515.06 752.89 511.84 761.44 508.45C838.05 478.03 910.5 404.1 1043.99 408.49C1114.26 410.8 1187.54 443.25 1257.25 481.43" stroke="#BED0DB" stroke-width="0.25" stroke-miterlimit="10"/>
<path d="M-130.89 480.44C-70.1201 489.52 6.46987 499.46 71.7899 509.98C88.7399 512.71 102.63 515.79 115.37 516.61C140.76 518.23 154.64 515.58 176.02 508.15C197.97 500.52 218.33 484.58 250.01 475.27C321.36 454.43 376.78 483.01 463.35 508.88C481.22 514.22 499 519.38 517.12 523.91C607.62 546.54 647.92 549.38 736.16 519.08C744.65 516.17 753.09 512.89 761.64 509.45C837.77 478.89 911.65 407.73 1045.76 413C1115.69 415.75 1188.99 447.42 1259.5 485.24" stroke="#BED0DB" stroke-width="0.25" stroke-miterlimit="10"/>
<path d="M-131.32 485.12C-70.6698 496.25 5.80017 508.16 71.3302 518.02C88.2502 520.57 102.29 523.31 115.18 523.71C140.98 524.51 155.81 522.42 176.1 512.52C197.09 502.28 217.92 487.68 249.71 478.45C321.38 457.76 376.29 489.65 462.78 516.05C480.57 521.48 498.36 526.62 516.58 531.01C607.27 552.85 648.16 551.68 736.39 520.26C744.84 517.25 753.26 513.91 761.81 510.44C837.46 479.74 912.78 411.34 1047.51 417.5C1117.11 420.68 1190.43 451.58 1261.72 489.04" stroke="#BED0DB" stroke-width="0.25" stroke-miterlimit="10"/>
<path d="M-131.74 489.8C-71.1997 502.98 5.15025 516.86 70.8802 526.06C87.7802 528.42 101.96 530.83 115 530.82C141.2 530.79 156.29 527.51 176.19 516.91C196.09 506.31 217.53 490.8 249.42 481.65C321.4 461.11 375.82 496.31 462.22 523.25C479.93 528.77 497.73 533.9 516.05 538.14C606.92 559.2 648.41 554.02 736.64 521.47C745.05 518.37 753.49 515.04 762 511.45C836.87 479.89 913.93 414.96 1049.27 422.02C1118.54 425.63 1191.87 455.75 1263.95 492.86" stroke="#BED0DB" stroke-width="0.25" stroke-miterlimit="10"/>
<path d="M-132.17 494.481C-71.7399 509.721 4.49009 525.571 70.4201 534.101C87.2901 536.281 101.61 538.341 114.81 537.921C141.41 537.071 155.95 531.091 176.26 521.281C197.6 510.981 217.12 493.901 249.11 484.831C321.4 464.451 375.33 502.941 461.65 530.431C479.28 536.041 497.09 541.151 515.51 545.251C606.57 565.521 648.65 556.331 736.88 522.661C745.25 519.471 753.67 516.071 762.19 512.451C836.59 480.771 915.08 418.561 1051.03 426.531C1119.96 430.571 1193.32 459.921 1266.19 496.671" stroke="#BED0DB" stroke-width="0.25" stroke-miterlimit="10"/>
<path d="M-132.6 499.15C-72.2901 516.44 3.8299 534.27 69.9599 542.13C86.7999 544.13 101.26 545.85 114.63 545.02C141.63 543.34 156.38 536.25 176.35 525.65C197.47 514.44 216.72 497.01 248.82 488.01C321.42 467.78 374.86 509.58 461.09 537.61C478.63 543.31 496.46 548.41 514.99 552.37C606.23 571.86 648.92 558.67 737.13 523.86C745.46 520.57 753.87 517.11 762.38 513.45C836.31 481.66 916.23 422.16 1052.8 431.03C1121.4 435.49 1194.77 464.08 1268.43 500.47" stroke="#BED0DB" stroke-width="0.25" stroke-miterlimit="10"/>
<path d="M-133.02 503.83C-72.82 523.17 3.16998 542.99 69.51 550.17C86.33 551.99 100.93 553.36 114.45 552.12C141.84 549.61 156.8 541.41 176.44 530.03C197.34 517.92 216.33 500.12 248.54 491.2C321.45 471.12 374.4 516.22 460.55 544.79C478.01 550.58 495.85 555.67 514.48 559.48C605.91 578.19 648.52 559.31 737.4 525.05C745.75 521.83 754.08 518.14 762.59 514.45C836.05 482.54 917.4 425.74 1054.58 435.54C1122.85 440.42 1196.24 468.25 1270.68 504.28" stroke="#BED0DB" stroke-width="0.25" stroke-miterlimit="10"/>
<path d="M-133.45 508.51C-73.3697 529.91 2.51028 551.7 69.0503 558.21C85.8403 559.85 100.58 560.87 114.26 559.23C142.05 555.88 157.21 546.57 176.52 534.41C197.19 521.39 215.93 503.23 248.24 494.39C321.46 474.46 373.92 522.85 459.98 551.98C477.36 557.86 495.21 562.93 513.94 566.6C605.55 584.53 648.79 561.75 737.64 526.25C745.95 522.93 754.26 519.19 762.78 515.45C835.78 483.43 918.56 429.32 1056.34 440.05C1124.28 445.34 1197.68 472.41 1272.92 508.09" stroke="#BED0DB" stroke-width="0.25" stroke-miterlimit="10"/>
<path d="M-133.88 513.18C-73.9099 536.63 1.85012 560.41 68.5901 566.24C85.3501 567.7 100.23 568.38 114.07 566.32C142.25 562.14 157.62 551.71 176.6 538.78C197.04 524.85 215.53 506.33 247.94 497.57C321.47 477.8 373.44 529.48 459.41 559.16C476.71 565.13 494.57 570.19 513.4 573.71C605.2 590.87 649.7 565.67 737.87 527.44C746.09 523.88 754.44 520.22 762.95 516.45C835.48 484.32 919.69 432.89 1058.09 444.56C1125.7 450.26 1199.12 476.58 1275.14 511.9" stroke="#BED0DB" stroke-width="0.25" stroke-miterlimit="10"/>
<path d="M-134.3 517.86C-74.4398 543.36 1.2002 569.14 68.1502 574.28C84.8902 575.56 99.9002 575.89 113.91 573.43C142.48 568.41 158.05 556.87 176.71 543.16C196.91 528.32 215.15 509.44 247.67 500.76C321.52 481.14 372.99 536.12 458.88 566.35C476.1 572.41 493.97 577.46 512.91 580.83C604.89 597.22 650 568.02 738.16 528.64C746.34 524.99 754.67 521.26 763.18 517.45C835.24 485.21 920.89 436.44 1059.89 449.07C1127.18 455.18 1200.6 480.75 1277.41 515.71" stroke="#BED0DB" stroke-width="0.25" stroke-miterlimit="10"/>
<path d="M-134.73 522.54C-74.99 550.1 0.540031 577.87 67.69 582.32C84.4 583.43 99.54 583.4 113.72 580.53C142.68 574.68 158.44 562.02 176.78 547.53C196.73 531.78 214.74 512.54 247.36 503.95C321.52 484.48 372.5 542.75 458.3 573.53C475.44 579.68 493.32 584.72 512.36 587.95C604.53 603.57 650.25 570.37 738.39 529.84C746.53 526.1 754.84 522.3 763.35 518.45C834.95 486.11 922.03 439.99 1061.63 453.58C1128.59 460.1 1202.03 484.91 1279.63 519.52" stroke="#BED0DB" stroke-width="0.25" stroke-miterlimit="10"/>
<path d="M-135.16 527.21C-75.5297 556.82 -0.119652 586.59 67.2303 590.35C83.9103 591.28 99.1903 590.9 113.53 587.63C142.87 580.94 158.82 567.17 176.86 551.91C196.56 535.24 214.34 515.65 247.06 507.14C321.53 487.83 372.02 549.38 457.74 580.72C474.8 586.96 492.69 591.99 511.83 595.07C604.18 609.92 650.53 572.73 738.63 531.04C746.73 527.21 755.03 523.34 763.54 519.46C834.67 487.01 923.19 443.54 1063.4 458.1C1130.03 465.02 1203.48 489.09 1281.87 523.34" stroke="#BED0DB" stroke-width="0.25" stroke-miterlimit="10"/>
<path d="M-135.59 531.89C-76.0698 563.55 -0.779861 595.32 66.7701 598.39C83.4301 599.15 98.8402 598.41 113.35 594.73C143.08 587.2 159.21 572.32 176.95 556.28C196.39 538.7 213.94 518.76 246.77 510.32C321.55 491.16 371.56 556 457.18 587.9C474.16 594.23 492.05 599.25 511.3 602.18C603.84 616.27 650.8 575.08 738.88 532.23C746.95 528.31 755.22 524.37 763.73 520.45C834.4 487.9 924.36 447.06 1065.16 462.59C1131.47 469.9 1204.92 493.24 1284.1 527.13" stroke="#BED0DB" stroke-width="0.25" stroke-miterlimit="10"/>
<path d="M-136.01 536.57C-76.6098 570.28 -1.42975 604.06 66.3203 606.43C82.9503 607.01 98.4903 605.92 113.17 601.84C143.28 593.47 159.6 577.48 177.04 560.67C196.22 542.18 213.55 521.88 246.48 513.52C321.57 494.51 371.09 562.64 456.63 595.1C473.53 601.52 491.43 606.53 510.79 609.31C603.51 622.64 651.11 577.45 739.15 533.44C747.18 529.43 755.43 525.43 763.94 521.47C834.14 488.81 925.55 450.6 1066.95 467.12C1132.94 474.83 1206.4 497.43 1286.37 530.96" stroke="#BED0DB" stroke-width="0.25" stroke-miterlimit="10"/>
<path d="M-136.44 541.25C-77.1499 577.02 -2.08995 612.8 65.86 614.46C82.47 614.87 98.1401 613.42 112.98 608.93C143.47 599.72 159.97 582.63 177.12 565.03C196.03 545.63 213.15 524.97 246.18 516.69C321.58 497.84 370.68 569.1 456.06 602.26C472.9 608.73 490.79 613.77 510.25 616.4C603.16 628.97 651.38 579.79 739.38 534.62C747.37 530.52 755.61 526.46 764.12 522.45C833.92 489.82 926.71 454.1 1068.7 471.61C1134.36 479.71 1207.83 501.57 1288.59 534.75" stroke="#BED0DB" stroke-width="0.25" stroke-miterlimit="10"/>
<path d="M-136.87 545.92C-77.6901 583.74 -2.74013 621.54 65.3999 622.49C81.9799 622.72 97.7799 620.921 112.79 616.031C143.65 605.981 160.34 587.791 177.2 569.401C195.83 549.091 212.75 528.07 245.88 519.87C321.6 501.17 370.19 575.75 455.49 609.44C472.25 616.01 490.15 621.07 509.71 623.51C602.78 635.49 651.66 582.15 739.62 535.81C747.58 531.62 755.8 527.491 764.3 523.451C833.63 490.691 927.87 457.6 1070.45 476.12C1135.79 484.61 1209.27 505.74 1290.81 538.56" stroke="#BED0DB" stroke-width="0.25" stroke-miterlimit="10"/>
<path d="M-137.29 550.6C-78.23 590.47 -3.39001 630.42 64.95 630.53C81.51 630.62 97.43 628.43 112.62 623.13C143.86 612.24 160.72 592.94 177.29 573.78C195.64 552.56 212.35 531.18 245.59 523.06C321.62 504.51 369.72 582.4 454.94 616.63C471.61 623.29 489.53 628.33 509.19 630.64C602.46 641.81 652.05 584.71 739.88 537.02C747.81 532.75 756 528.54 764.5 524.46C833.35 491.57 929.06 461.1 1072.23 480.64C1137.25 489.51 1210.73 509.92 1293.07 542.38" stroke="#BED0DB" stroke-width="0.25" stroke-miterlimit="10"/>
<path d="M-137.72 555.28C-78.7697 597.21 -4.03973 639.1 64.4903 638.57C81.0203 638.47 97.0603 635.92 112.43 630.24C144.03 618.47 161.08 598.12 177.37 578.16C195.44 556.03 211.95 534.29 245.29 526.25C321.63 507.85 369.23 589.06 454.37 623.82C470.96 630.58 488.89 635.59 508.65 637.76C602.12 648.12 652.29 587 740.11 538.22C748 533.86 756.17 529.58 764.68 525.47C833.06 492.45 930.25 464.41 1073.98 485.16C1138.7 494.33 1212.17 514.1 1295.29 546.2" stroke="#BED0DB" stroke-width="0.25" stroke-miterlimit="10"/>
<path d="M-138.15 559.95C-65.1799 614.5 32.0601 668.84 112.25 637.33C179.74 610.81 181.43 544.56 245 529.43C336.53 507.65 385.94 632.4 508.13 644.87C610.17 655.28 661.29 577.03 764.88 526.46C863.07 478.52 1025.54 447.1 1297.54 549.99" stroke="#BED0DB" stroke-width="0.25" stroke-miterlimit="10"/>
<path d="M-189.189 502.04C-122.529 447.8 -38.6395 397.21 28.4605 423.34C83.7105 444.86 78.6405 499.35 131.751 523.5C230.261 568.3 317.021 412.3 458.751 423.57C602.251 434.99 629.101 604.11 742.011 595.48C861.361 586.36 883.391 393.42 1022.53 366.73C1107.62 350.41 1190.19 405.15 1246.57 453.84" stroke="#BED0DB" stroke-width="0.25" stroke-miterlimit="10"/>
<path d="M-190.229 504.42C-123.569 452.42 -39.6795 403.97 27.5905 429.38C47.1405 436.81 59.2705 448.22 69.1305 460.84C87.1705 483.79 97.3805 510.82 131.251 525.52C161.951 538.7 191.481 532.48 222.351 518.36C289.671 487.58 360.641 420.38 457.711 428.69C479.641 430.55 498.93 435.99 516.29 443.8C611.67 486.86 645.98 602.54 741.49 594.05C751.85 593.15 761.49 590.89 770.55 587.5C864.97 552.23 896.13 392.28 1023.86 368.82C1108.62 353.02 1191.16 406.89 1248.37 455.15" stroke="#BED0DB" stroke-width="0.25" stroke-miterlimit="10"/>
<path d="M-191.27 506.8C-124.61 457.04 -40.7195 410.72 26.7205 435.41C46.2305 442.63 58.4505 453.72 68.5005 465.84C86.8405 487.95 97.2304 513.86 130.74 527.54C161.1 539.93 190.37 533.15 221.36 519.11C289.03 488.48 359.65 424.91 456.67 433.8C478.52 435.77 497.821 441.18 515.281 448.83C610.831 491 645.51 602.07 740.97 592.59C751.27 591.57 760.891 589.26 769.961 585.83C863.851 550.45 896.81 393.77 1025.19 370.87C1109.66 355.8 1192.12 408.58 1250.18 456.41" stroke="#BED0DB" stroke-width="0.25" stroke-miterlimit="10"/>
<path d="M-192.31 509.17C-125.65 461.65 -41.6996 417.29 25.8504 441.44C45.3404 448.41 57.6404 459.2 67.8704 470.84C86.5504 492.09 97.1204 516.84 130.24 529.56C160.28 541.1 189.27 533.82 220.37 519.86C288.38 489.38 358.67 429.44 455.63 438.91C477.4 440.98 496.71 446.37 514.27 453.86C609.98 495.14 645.04 601.71 740.45 591.14C750.7 590 760.3 587.64 769.36 584.17C862.73 548.68 897.451 395.09 1026.51 372.93C1110.67 358.48 1193.08 410.29 1251.97 457.68" stroke="#BED0DB" stroke-width="0.25" stroke-miterlimit="10"/>
<path d="M-193.35 511.551C-126.69 466.271 -42.7296 423.991 24.9704 447.471C44.4304 454.221 56.8304 464.691 67.2304 475.831C86.2504 496.221 97.0004 519.801 129.73 531.571C159.46 542.261 188.16 534.481 219.38 520.601C287.74 490.261 357.69 433.971 454.59 444.021C476.28 446.201 495.62 451.521 513.26 458.901C609.24 499.041 644.58 601.361 739.93 589.691C750.14 588.441 759.71 586.021 768.77 582.511C861.62 546.911 898.09 396.401 1027.85 374.991C1111.69 361.161 1194.06 412.001 1253.78 458.951" stroke="#BED0DB" stroke-width="0.25" stroke-miterlimit="10"/>
<path d="M-194.39 513.93C-127.74 470.89 -43.7596 430.69 24.1004 453.51C43.5304 460.04 56.0303 470.18 66.6003 480.84C85.9703 500.37 96.9003 522.79 129.23 533.59C158.65 543.42 187.06 535.15 218.39 521.35C287.1 491.16 356.7 438.5 453.55 449.13C475.15 451.42 494.51 456.7 512.25 463.93C608.41 503.13 644.11 601 739.41 588.24C749.57 586.88 759.12 584.4 768.17 580.85C860.49 545.13 898.72 397.71 1029.17 377.06C1112.69 363.83 1195.01 413.71 1255.58 460.23" stroke="#BED0DB" stroke-width="0.25" stroke-miterlimit="10"/>
<path d="M-195.43 516.31C-128.78 475.51 -44.7897 437.39 23.2303 459.55C42.6203 465.87 55.2303 475.68 65.9703 485.85C85.6803 504.52 96.7903 525.77 128.73 535.62C157.84 544.6 185.96 535.82 217.41 522.11C286.47 492.07 355.71 443.26 452.52 454.26C474.03 456.7 493.41 461.9 511.25 468.99C607.6 507.24 643.65 600.68 738.9 586.81C749.01 585.34 758.52 582.77 767.59 579.21C859.3 543.17 899.36 399.04 1030.51 379.14C1113.71 366.51 1195.99 415.44 1257.39 461.52" stroke="#BED0DB" stroke-width="0.25" stroke-miterlimit="10"/>
<path d="M-196.47 518.691C-129.82 480.131 -45.8197 444.091 22.3603 465.581C41.7203 471.681 54.4403 481.161 65.3403 490.841C85.4003 508.651 96.6903 528.731 128.23 537.631C157.04 545.761 184.86 536.481 216.43 522.851C285.84 492.961 354.73 447.821 451.49 459.361C472.92 461.921 492.31 467.071 510.25 474.011C606.78 511.331 643.19 600.331 738.4 585.351C748.45 583.771 757.95 581.141 767.02 577.541C858.2 541.351 900.01 400.331 1031.86 381.191C1114.74 369.161 1196.98 417.131 1259.21 462.781" stroke="#BED0DB" stroke-width="0.25" stroke-miterlimit="10"/>
<path d="M-197.51 521.071C-130.86 484.751 -46.8498 450.801 21.4902 471.621C40.8202 477.511 53.6402 486.661 64.7102 495.851C85.1302 512.801 96.6003 531.721 127.73 539.661C156.24 546.941 183.76 537.161 215.44 523.611C285.19 493.861 353.74 452.391 450.45 464.481C471.8 467.151 491.21 472.271 509.25 479.051C605.95 515.431 642.73 600.001 737.89 583.901C747.89 582.211 757.37 579.511 766.43 575.881C857.07 539.551 900.64 401.621 1033.19 383.251C1115.75 371.811 1197.94 418.841 1261.01 464.051" stroke="#BED0DB" stroke-width="0.25" stroke-miterlimit="10"/>
<path d="M-198.55 523.45C-131.9 489.37 -47.8898 457.51 20.6202 477.65C39.9102 483.32 52.8502 492.15 64.0902 500.85C84.8702 516.94 96.5202 534.69 127.24 541.68C155.45 548.1 182.66 537.83 214.47 524.35C284.57 494.75 352.77 456.94 449.43 469.59C470.69 472.37 490.12 477.45 508.26 484.09C605.14 519.54 642.28 599.67 737.39 582.46C747.34 580.66 756.79 577.9 765.86 574.23C855.97 537.77 901.29 402.91 1034.54 385.32C1116.78 374.47 1198.93 420.56 1262.84 465.33" stroke="#BED0DB" stroke-width="0.25" stroke-miterlimit="10"/>
<path d="M-199.59 525.831C-132.94 493.991 -48.9298 464.221 19.7502 483.691C39.0002 489.151 52.0601 497.641 63.4601 505.851C84.6001 521.091 96.4302 537.661 126.73 543.701C154.65 549.271 181.55 538.501 213.47 525.101C283.92 495.651 351.77 461.501 448.38 474.701C469.56 477.601 489 482.641 507.24 489.121C604.29 523.641 641.8 599.341 736.86 581.001C746.76 579.091 756.16 576.201 765.26 572.561C855.09 536.601 901.91 404.181 1035.87 387.381C1117.78 377.111 1199.9 422.261 1264.64 466.601" stroke="#BED0DB" stroke-width="0.25" stroke-miterlimit="10"/>
<path d="M-200.63 528.21C-133.98 498.61 -49.9599 470.93 18.8801 489.73C38.1001 494.98 51.2701 503.14 62.8301 510.86C84.3401 525.24 96.3501 540.63 126.23 545.73C153.87 550.44 180.45 539.18 212.49 525.86C283.29 496.56 350.79 466.06 447.35 479.83C468.44 482.84 487.9 487.84 506.24 494.18C603.46 527.77 641.34 599.05 736.35 579.58C746.2 577.56 755.58 574.6 764.67 570.93C853.98 534.87 902.53 405.48 1037.2 389.47C1118.78 379.77 1200.86 424 1266.44 467.9" stroke="#BED0DB" stroke-width="0.25" stroke-miterlimit="10"/>
<path d="M-201.67 530.59C-135.02 503.23 -50.9999 477.65 18.0101 495.76C37.1901 500.79 50.4901 508.62 62.2001 515.86C84.0801 529.38 96.2701 543.6 125.73 547.75C153.08 551.6 179.35 539.85 211.51 526.61C282.66 497.46 349.82 470.62 446.32 484.94C467.33 488.06 486.8 493.03 505.24 499.21C602.63 531.88 640.88 598.73 735.84 578.12C745.64 575.99 754.99 572.97 764.09 569.26C852.89 533.11 903.16 406.73 1038.54 391.52C1119.79 382.39 1201.84 425.7 1268.26 469.16" stroke="#BED0DB" stroke-width="0.25" stroke-miterlimit="10"/>
<path d="M-202.709 532.97C-136.059 507.85 -52.0495 484.37 17.1405 501.8C36.2905 506.62 49.7105 514.12 61.5705 520.86C83.8205 533.52 96.2005 546.56 125.231 549.76C152.301 552.75 178.251 540.51 210.521 527.35C282.011 498.34 348.831 475.16 445.281 490.05C466.211 493.28 485.691 498.21 504.231 504.24C601.791 535.99 640.411 598.41 735.321 576.67C745.071 574.44 754.431 571.42 763.491 567.61C851.461 530.62 903.77 408 1039.86 393.59C1120.78 385.02 1202.8 427.41 1270.05 470.44" stroke="#BED0DB" stroke-width="0.25" stroke-miterlimit="10"/>
<path d="M-203.75 535.351C-137.1 512.471 -53.0895 491.091 16.2705 507.831C35.3805 512.441 48.9205 519.601 60.9405 525.861C83.5705 537.651 96.1305 549.521 124.73 551.781C151.53 553.911 177.15 541.181 209.54 528.101C281.38 499.241 347.85 479.711 444.25 495.161C465.09 498.501 484.59 503.401 503.23 509.281C600.96 540.111 639.94 598.111 734.81 575.221C744.51 572.881 753.85 569.791 762.91 565.951C850.35 528.831 904.4 409.251 1041.2 395.661C1121.79 387.651 1203.78 429.131 1271.86 471.721" stroke="#BED0DB" stroke-width="0.25" stroke-miterlimit="10"/>
<path d="M-204.78 537.73C-138.13 517.09 -54.1198 497.82 15.4102 513.87C34.4802 518.27 48.1502 525.09 60.3202 530.87C83.3302 541.8 96.0702 552.48 124.24 553.81C150.77 555.07 176.06 541.85 208.56 528.86C280.75 500.15 346.87 484.27 443.22 500.28C463.98 503.73 483.49 508.59 502.23 514.32C600.12 544.24 639.48 597.82 734.3 573.78C743.95 571.33 753.26 568.18 762.33 564.3C849.24 527.05 905.02 410.5 1042.54 397.73C1122.8 390.27 1204.75 430.84 1273.67 473" stroke="#BED0DB" stroke-width="0.25" stroke-miterlimit="10"/>
<path d="M-205.82 540.11C-139.17 521.71 -55.1698 504.55 14.5402 519.91C33.5702 524.1 47.3802 530.58 59.6902 535.88C83.0802 545.94 96.0102 555.441 123.74 555.841C150 556.221 174.96 542.53 207.58 529.62C280.12 501.06 345.89 488.83 442.19 505.41C462.87 508.97 482.39 513.8 501.23 519.38C599.29 548.39 639.02 597.55 733.79 572.35C743.39 569.8 752.68 566.58 761.74 562.66C848.12 525.29 905.64 411.76 1043.88 399.81C1123.81 392.9 1205.73 432.57 1275.49 474.29" stroke="#BED0DB" stroke-width="0.25" stroke-miterlimit="10"/>
<path d="M-206.86 542.491C-140.21 526.331 -56.2099 511.281 13.6701 525.941C32.6601 529.931 46.6001 536.061 59.0601 540.871C82.8401 550.061 95.9501 558.371 123.24 557.851C149.24 557.361 173.86 543.191 206.6 530.361C279.49 501.941 344.91 493.361 441.16 510.511C461.75 514.181 481.29 518.981 500.24 524.401C598.46 552.501 638.57 597.241 733.29 570.891C742.84 568.231 752.11 564.941 761.17 560.991C847.02 523.501 906.27 412.971 1045.23 401.861C1124.82 395.501 1206.72 434.271 1277.31 475.551" stroke="#BED0DB" stroke-width="0.25" stroke-miterlimit="10"/>
<path d="M-207.9 544.871C-141.25 530.951 -57.2599 518.011 12.8001 531.981C31.7601 535.761 45.8201 541.541 58.4301 545.881C82.6001 554.191 95.8901 561.311 122.73 559.881C148.47 558.511 172.75 543.871 205.6 531.121C278.83 502.851 343.92 497.911 440.11 515.641C460.62 519.421 480.17 524.191 499.22 529.451C597.6 556.651 638.09 596.971 732.76 569.451C742.26 566.691 751.5 563.331 760.57 559.341C845.89 521.731 906.87 414.201 1046.55 403.931C1125.81 398.101 1207.67 435.981 1279.1 476.831" stroke="#BED0DB" stroke-width="0.25" stroke-miterlimit="10"/>
<path d="M-208.939 547.25C-142.299 535.57 -58.3095 524.75 11.9305 538.01C30.8505 541.58 45.0505 547.02 57.8005 550.88C82.3605 558.31 95.8406 564.24 122.231 561.9C147.711 559.64 171.641 544.54 204.621 531.87C278.201 503.75 342.941 502.45 439.081 520.75C459.501 524.64 479.071 529.38 498.221 534.49C596.761 560.78 637.631 596.7 732.251 568.01C741.701 565.14 750.921 561.72 759.981 557.69C844.771 519.96 907.48 415.42 1047.88 406.01C1126.8 400.72 1208.64 437.71 1280.91 478.12" stroke="#BED0DB" stroke-width="0.25" stroke-miterlimit="10"/>
<path d="M-209.979 549.63C-143.339 540.19 -59.3595 531.49 11.0605 544.05C29.9405 547.42 44.2805 552.5 57.1705 555.88C82.1305 562.43 95.7905 567.16 121.731 563.92C146.951 560.76 170.541 545.21 203.631 532.62C277.561 504.65 341.95 506.99 438.04 525.86C458.38 529.85 477.961 534.57 497.211 539.52C595.911 564.92 637.16 596.42 731.73 566.55C741.13 563.58 750.331 560.09 759.391 556.02C843.651 518.18 908.09 416.61 1049.21 408.06C1127.8 403.3 1209.61 439.41 1282.71 479.38" stroke="#BED0DB" stroke-width="0.25" stroke-miterlimit="10"/>
<path d="M-211.02 552.01C-144.38 544.81 -60.4095 538.23 10.1905 550.08C29.0305 553.24 43.5005 557.97 56.5405 560.88C81.8905 566.54 95.7405 570.08 121.23 565.94C146.2 561.88 169.44 545.88 202.65 533.37C276.93 505.54 340.97 511.53 437.01 530.98C457.27 535.08 476.851 539.77 496.211 544.57C595.071 569.07 636.7 596.17 731.22 565.12C740.57 562.05 749.75 558.49 758.8 554.38C842.54 516.42 908.701 417.83 1050.54 410.14C1128.79 405.9 1210.57 441.13 1284.51 480.67" stroke="#BED0DB" stroke-width="0.25" stroke-miterlimit="10"/>
<path d="M-212.06 554.39C-145.42 549.43 -61.4596 544.98 9.32043 556.12C28.1204 559.08 42.7304 563.45 55.9104 565.89C81.6604 570.66 95.6904 573 120.73 567.96C145.44 562.99 168.34 546.55 201.67 534.12C276.3 506.44 340 516.06 435.98 536.09C456.15 540.3 475.75 544.96 495.21 549.6C594.23 573.21 636.25 595.9 730.72 563.67C740.02 560.5 749.17 556.86 758.23 552.72C841.44 514.65 909.331 419.01 1051.9 412.2C1129.81 408.48 1211.57 442.84 1286.34 481.94" stroke="#BED0DB" stroke-width="0.25" stroke-miterlimit="10"/>
<path d="M-213.1 556.77C-146.46 554.05 -62.5096 551.73 8.45039 562.16C27.2104 564.92 41.9604 568.92 55.2804 570.89C81.4204 574.76 95.6404 575.9 120.23 569.98C144.69 564.1 167.24 547.22 200.68 534.87C275.65 507.34 339.01 520.6 434.94 541.21C455.03 545.53 474.64 550.16 494.2 554.64C593.37 577.37 635.79 595.65 730.2 562.22C739.45 558.94 748.58 555.24 757.64 551.06C840.33 512.88 909.93 420.19 1053.23 414.27C1130.81 411.06 1212.54 444.55 1288.15 483.22" stroke="#BED0DB" stroke-width="0.25" stroke-miterlimit="10"/>
<path d="M-214.14 559.14C-147.5 558.66 -63.5596 558.47 7.57036 568.18C26.2904 570.74 41.1804 574.37 54.6404 575.88C81.1804 578.85 95.5803 578.78 119.72 571.99C143.92 565.19 166.13 547.88 199.69 535.61C275.01 508.23 338.03 525.12 433.9 546.31C453.91 550.73 473.53 555.34 493.19 559.67C592.52 581.51 635.33 595.39 729.68 560.77C738.88 557.39 747.99 553.62 757.04 549.4C839.2 511.11 910.53 421.36 1054.55 416.33C1131.79 413.63 1213.49 446.26 1289.94 484.49" stroke="#BED0DB" stroke-width="0.25" stroke-miterlimit="10"/>
<path d="M-215.18 561.52C-148.54 563.28 -64.6097 565.23 6.70032 574.22C25.3803 576.58 40.4103 579.84 54.0103 580.89C80.9403 582.95 95.5303 581.67 119.22 574.02C143.16 566.29 165.03 548.55 198.7 536.37C274.37 509.14 337.04 529.66 432.86 551.43C452.78 555.96 472.42 560.55 492.18 564.71C591.66 585.67 634.87 595.15 729.16 559.32C738.31 555.84 747.4 552 756.45 547.74C838.09 509.34 911.14 422.52 1055.88 418.39C1132.78 416.2 1214.46 447.97 1291.74 485.76" stroke="#BED0DB" stroke-width="0.25" stroke-miterlimit="10"/>
<path d="M-216.22 563.901C-149.58 567.901 -65.6597 571.991 5.83028 580.251C24.4703 582.411 39.6303 585.301 53.3803 585.881C80.7003 587.031 96.2703 586.471 118.72 576.031C141.59 565.391 163.93 549.211 197.72 537.111C273.74 510.021 336.07 534.171 431.83 556.541C451.67 561.171 471.31 565.741 491.19 569.751C590.83 589.831 634.43 594.911 728.66 557.881C737.76 554.301 746.82 550.391 755.87 546.091C836.99 507.591 911.76 423.681 1057.22 420.461C1133.79 418.771 1215.44 449.681 1293.56 487.041" stroke="#BED0DB" stroke-width="0.25" stroke-miterlimit="10"/>
<path d="M-217.26 566.28C-150.62 572.52 -66.7198 578.75 4.96024 586.29C23.5602 588.25 38.8603 590.77 52.7603 590.89C80.4803 591.13 96.2702 589.28 118.22 578.06C140.76 566.54 162.83 549.89 196.74 537.87C273.11 510.93 335.09 538.71 430.8 561.66C450.56 566.4 470.21 570.95 490.19 574.79C589.98 594 633.12 592.48 728.15 556.43C737.29 552.96 746.24 548.77 755.29 544.43C835.88 505.82 912.38 424.82 1058.56 422.52C1134.79 421.32 1216.41 451.39 1295.37 488.31" stroke="#BED0DB" stroke-width="0.25" stroke-miterlimit="10"/>
<path d="M-218.3 568.66C-151.66 577.14 -67.7698 585.52 4.09019 592.33C22.6502 594.09 38.0802 596.23 52.1302 595.9C80.2402 595.22 96.2502 592.07 117.72 580.09C139.94 567.691 161.73 550.57 195.75 538.63C272.46 511.84 334.11 543.24 429.76 566.79C449.43 571.63 469.1 576.16 489.18 579.85C589.13 598.19 632.67 592.33 727.63 555.01C736.72 551.44 745.65 547.18 754.7 542.81C834.77 504.1 912.98 425.99 1059.9 424.63C1135.8 423.93 1217.39 453.15 1297.18 489.63" stroke="#BED0DB" stroke-width="0.25" stroke-miterlimit="10"/>
<path d="M-219.34 571.04C-152.7 581.76 -68.8198 592.29 3.22015 598.36C21.7402 599.92 37.3102 601.69 51.5002 600.89C80.0002 599.29 95.2802 593.15 117.22 582.1C140.09 570.58 160.62 551.23 194.77 539.36C271.83 512.72 333.13 547.74 428.73 571.88C448.32 576.83 468 581.34 488.18 584.86C588.28 602.33 633.1 594.21 727.12 553.53C736.08 549.65 745.07 545.53 754.11 541.12C833.66 502.31 913.59 427.08 1061.23 426.66C1136.79 426.44 1218.36 454.82 1298.98 490.87" stroke="#BED0DB" stroke-width="0.25" stroke-miterlimit="10"/>
<path d="M-220.38 573.421C-153.74 586.381 -69.8699 599.061 2.35013 604.401C20.8301 605.761 36.5301 607.151 50.8701 605.901C79.7501 603.381 95.2101 596.011 116.72 584.121C139.31 571.641 159.52 551.901 193.78 540.111C271.19 513.611 332.15 552.261 427.69 576.991C447.2 582.041 466.88 586.531 487.17 589.891C587.43 606.491 632.65 593.981 726.6 552.081C735.51 548.101 744.48 543.911 753.52 539.461C832.55 500.551 914.2 428.191 1062.56 428.721C1137.78 428.991 1219.32 456.531 1300.79 492.141" stroke="#BED0DB" stroke-width="0.25" stroke-miterlimit="10"/>
<path d="M-221.42 575.801C-154.78 591.001 -70.9199 605.841 1.48007 610.431C19.9201 611.601 35.7501 612.601 50.2401 610.901C79.5101 607.451 95.1301 598.861 116.22 586.141C138.52 572.691 158.42 552.571 192.8 540.861C270.56 514.511 331.18 556.781 426.66 582.111C446.09 587.261 465.78 591.741 486.17 594.941C586.58 610.681 632.22 593.781 726.09 550.641C734.95 546.571 743.89 542.301 752.94 537.811C831.46 498.811 914.82 429.311 1063.9 430.791C1138.79 431.541 1220.3 458.241 1302.6 493.421" stroke="#BED0DB" stroke-width="0.25" stroke-miterlimit="10"/>
<path d="M-222.459 578.18C-155.819 595.62 -71.9795 612.62 0.610535 616.47C19.0105 617.44 34.9705 618.06 49.6105 615.9C79.2605 611.53 95.0405 601.71 115.721 588.16C137.731 573.74 157.321 553.24 191.821 541.61C269.931 515.41 330.211 561.29 425.631 587.22C444.971 592.48 464.681 596.94 485.171 599.97C585.741 614.85 631.791 593.56 725.581 549.19C734.401 545.02 743.311 540.68 752.351 536.15C830.351 497.05 915.43 430.4 1065.23 432.86C1139.78 434.08 1221.27 459.96 1304.4 494.7" stroke="#BED0DB" stroke-width="0.25" stroke-miterlimit="10"/>
<path d="M-223.5 580.56C-156.86 600.24 -73.0295 619.41 -0.259506 622.51C18.1005 623.29 34.1905 623.52 48.9805 620.91C79.0105 615.61 94.9405 604.57 115.22 590.19C136.93 574.79 156.22 553.92 190.83 542.37C269.28 516.32 329.231 565.81 424.591 592.35C443.851 597.71 463.57 602.16 484.16 605.03C584.88 619.05 631.35 593.37 725.06 547.76C733.83 543.49 742.72 539.08 751.76 534.51C829.241 495.32 916.051 431.51 1066.56 434.94C1140.78 436.63 1222.23 461.69 1306.21 495.99" stroke="#BED0DB" stroke-width="0.25" stroke-miterlimit="10"/>
<path d="M-224.54 582.94C-157.91 604.86 -74.0796 626.2 -1.12956 628.54C17.1904 629.13 33.4105 628.97 48.3505 625.91C78.7505 619.68 94.8405 607.41 114.72 592.21C136.12 575.84 155.12 554.59 189.85 543.12C268.65 517.21 328.26 570.32 423.56 597.46C442.74 602.92 462.46 607.36 483.16 610.06C584.03 623.23 630.93 593.16 724.55 546.31C733.27 541.94 742.14 537.46 751.17 532.85C828.14 493.57 916.661 432.58 1067.89 437C1141.78 439.16 1223.2 463.39 1308.01 497.26" stroke="#BED0DB" stroke-width="0.25" stroke-miterlimit="10"/>
<path d="M-225.58 585.32C-158.95 609.48 -75.1296 632.99 -1.99959 634.58C16.2804 634.98 32.6304 634.43 47.7204 630.91C78.5004 623.74 94.7404 610.26 114.21 594.23C135.29 576.88 154.01 555.25 188.85 543.87C268 518.11 327.27 574.83 422.51 602.58C441.61 608.14 461.34 612.57 482.15 615.1C583.18 627.42 630.5 592.96 724.03 544.86C732.71 540.4 741.55 535.84 750.58 531.19C827.03 491.82 917.28 433.64 1069.23 439.06C1142.78 441.68 1224.18 465.1 1309.82 498.53" stroke="#BED0DB" stroke-width="0.25" stroke-miterlimit="10"/>
<path d="M-226.61 587.701C-159.98 614.101 -76.1699 639.791 -2.85986 640.611C15.3801 640.821 31.8501 639.881 47.1001 635.911C78.2501 627.811 94.6301 613.101 113.72 596.251C134.48 577.921 152.92 555.921 187.88 544.621C267.38 519.011 326.32 579.341 421.49 607.691C440.51 613.361 460.25 617.771 481.16 620.141C582.34 631.611 630.1 592.771 723.54 543.421C732.17 538.861 740.99 534.231 750.02 529.541C825.96 490.081 917.93 434.711 1070.59 441.131C1143.81 444.211 1225.18 466.821 1311.65 499.811" stroke="#BED0DB" stroke-width="0.25" stroke-miterlimit="10"/>
<path d="M-227.65 590.08C-161.02 618.72 -77.2099 646.59 -3.7299 646.65C14.4701 646.66 31.0701 645.33 46.4701 640.92C77.9901 631.89 94.5101 615.96 113.22 598.28C133.65 578.97 151.82 556.6 186.9 545.38C266.75 519.92 325.35 583.85 420.46 612.81C439.39 618.58 459.15 622.98 480.16 625.18C581.5 635.81 629.69 592.58 723.03 541.97C731.62 537.31 740.41 532.61 749.43 527.88C824.86 488.33 918.55 435.75 1071.92 443.2C1144.81 446.74 1226.14 468.53 1313.46 501.09" stroke="#BED0DB" stroke-width="0.25" stroke-miterlimit="10"/>
<path d="M-228.689 592.46C-162.059 623.34 -78.2595 653.39 -4.59946 652.68C13.5705 652.51 30.2805 650.78 45.8405 645.91C77.7205 635.94 94.3906 618.79 112.721 600.28C132.811 579.99 150.711 557.25 185.911 546.11C266.101 520.8 324.381 588.33 419.421 617.91C438.271 623.78 458.041 628.17 479.151 630.21C580.651 640 629.271 592.39 722.511 540.52C731.051 535.77 739.821 531 748.841 526.22C823.761 486.58 919.17 436.79 1073.25 445.26C1145.81 449.25 1227.11 470.24 1315.26 502.36" stroke="#BED0DB" stroke-width="0.25" stroke-miterlimit="10"/>
<path d="M-229.729 594.841C-163.099 627.961 -79.3095 660.201 -5.4695 658.721C12.6605 658.361 29.4905 656.241 45.2105 650.921C77.4605 640.011 94.2605 621.651 112.221 602.311C131.971 581.051 149.611 557.931 184.931 546.871C265.471 521.701 323.41 592.841 418.391 623.031C437.161 629.001 456.931 633.381 478.151 635.251C579.801 644.201 628.87 592.201 722 539.071C730.5 534.221 739.23 529.381 748.25 524.561C822.66 484.841 919.79 437.811 1074.58 447.321C1146.82 451.761 1228.08 471.941 1317.06 503.631" stroke="#BED0DB" stroke-width="0.25" stroke-miterlimit="10"/>
<path d="M-230.77 597.22C-164.14 632.58 -80.3495 667.01 -6.33952 664.76C11.7505 664.21 28.7004 661.69 44.5804 655.93C77.1904 644.09 94.1205 624.51 111.72 604.34C131.12 582.1 148.51 558.61 183.94 547.63C264.83 522.61 322.491 597.19 417.341 628.16C436.041 634.2 455.81 638.61 477.13 640.3C578.94 648.41 628.45 592.04 721.47 537.64C729.92 532.7 738.641 527.8 747.651 522.92C821.621 483.25 920.411 438.84 1075.9 449.4C1147.81 454.28 1229.03 473.67 1318.86 504.92" stroke="#BED0DB" stroke-width="0.25" stroke-miterlimit="10"/>
<path d="M-231.81 599.6C-165.18 637.2 -81.3896 673.83 -7.20958 670.79C10.8404 670.05 27.9104 667.14 43.9504 660.93C76.9204 648.15 93.9804 627.36 111.22 606.36C130.27 583.15 147.41 559.28 182.96 548.38C264.2 523.51 321.52 601.72 416.31 633.27C434.93 639.41 454.71 643.85 476.13 645.34C578.09 652.8 628.05 591.86 720.96 536.19C729.37 531.15 738.06 526.18 747.07 521.26C820.52 481.48 921.05 439.85 1077.25 451.47C1148.83 456.79 1230.02 475.39 1320.68 506.2" stroke="#BED0DB" stroke-width="0.25" stroke-miterlimit="10"/>
<path d="M-232.85 601.98C-166.22 641.82 -82.4296 680.79 -8.07961 676.83C9.9404 675.94 27.1504 672.68 43.3204 665.93C76.5804 652.06 93.8304 630.22 110.72 608.38C129.41 584.2 146.31 559.95 181.98 549.13C263.57 524.41 320.54 606.25 415.28 638.38C433.82 644.63 453.61 649.04 475.13 650.37C577.25 656.94 627.78 591.86 720.45 534.74C728.82 529.62 737.48 524.55 746.48 519.61C819.4 479.72 921.68 440.85 1078.58 453.54C1149.84 459.3 1230.99 477.1 1322.48 507.48" stroke="#BED0DB" stroke-width="0.25" stroke-miterlimit="10"/>
<path d="M-233.89 604.36C-167.26 646.44 -83.4696 687.54 -8.94965 682.86C9.03035 681.77 26.3204 678.03 42.6904 670.93C76.3604 656.24 93.6804 633.08 110.21 610.4C128.54 585.25 145.2 560.62 180.98 549.88C262.91 525.3 319.55 610.78 414.23 643.5C432.68 649.86 452.49 654.24 474.11 655.42C576.39 661.1 627.32 591.61 719.92 533.3C728.25 528.08 736.88 522.94 745.88 517.96C818.28 477.95 922.32 441.64 1079.9 455.61C1150.84 461.72 1231.94 478.82 1324.27 508.76" stroke="#BED0DB" stroke-width="0.25" stroke-miterlimit="10"/>
<path d="M-234.93 606.74C-152.3 661.71 -43.2697 715 42.0603 675.93C113.89 643.04 111.76 570.88 180 550.63C278.26 521.46 339.46 654.2 473.12 660.45C584.73 665.67 635.66 577.5 745.31 516.29C849.25 458.27 1024.09 414.37 1326.1 510.03" stroke="#BED0DB" stroke-width="0.25" stroke-miterlimit="10"/>
</svg>
